<mxfile host="app.diagrams.net" modified="2024-06-13T00:19:02.670Z" agent="Mozilla/5.0 (Windows NT 10.0; Win64; x64) AppleWebKit/537.36 (KHTML, like Gecko) Chrome/125.0.0.0 Safari/537.36" etag="iv4PfkpmIN5ObJteugKF" version="24.5.4" type="github">
  <diagram name="Page-1" id="GtrIb1RTTACNShNhBr6K">
    <mxGraphModel dx="2269" dy="1200" grid="1" gridSize="10" guides="1" tooltips="1" connect="1" arrows="1" fold="1" page="1" pageScale="1" pageWidth="827" pageHeight="1169" math="0" shadow="0">
      <root>
        <mxCell id="0" />
        <mxCell id="1" parent="0" />
        <mxCell id="Tz56ruePDzN_duz72LHa-30" value="" style="shape=image;verticalLabelPosition=bottom;labelBackgroundColor=default;verticalAlign=top;aspect=fixed;imageAspect=0;image=data:image/png,iVBORw0KGgoAAAANSUhEUgAAAmIAAAF6CAYAAAC6OzSNAAAAAXNSR0IArs4c6QAAAARnQU1BAACxjwv8YQUAAAAJcEhZcwAADsMAAA7DAcdvqGQAAP+lSURBVHhe7J0FYBzH2YbfYxYzk0UmycwMccABBxzmJk2bpGlTyJ9Cym0abrBhRrMdM5MsWxbLYmaWjnH/mdWdLTsG2TrpZGceZ7J3s3t3C6OZd7755hsBRwCDwWAwGAwGY9gROrcMBoPBYDAYjGGGCTEGg8FgMBgMDzEChVgPDr3zf/j9h0ehc+ZcOVzitdlLsfpvv8Pzm2qcGQwGg8FgMK4ERp4Qs7fj4Kcv4D8fH0Snw5nnVszo6dTC4nw3rFzqtVmLsPaVF/HGpnJnBoPBYDAYjCuBH93QpHnL4xgdkorHt5qdOQwGg8FgMBieYeQIMYcDAzISDfI4juZzdtjt558s6iDH/RAH+dzFmLKcDPScyVFn/dmL5YK/d6HrcNN5nGSg33f2487+LPrhIM/TrefLYDAYDMbw4GEh5kDr3uexclI4VFIp1OFTcN8bx6H9QaNqQsm3v8XycaFQSsWQaSIw6da/Y0eT3bkfsGT+Bzct/SVWlx7Cq/dMRrhaCplXDOY/8TXK+XFIA7Y/uxgLfrMJHfYObPrNAsycORvX/PUAP0zp+vyq7O/w+NQgyCXemPnPfPpBWCrX4Y83T0KUtxxSqRzekZOw4o/rUXXe8c2BXhu5upJv8dvl4xCqlEIs0yBi0q34+44mnLq6gXDhewRdDt59aBZivGSQSJXwT1qKP+/udu4kZ9y2Hy/cPgnhKimkqjBMvu9NHN7zIm656mms63CeuHkf/nrtQjzwfkm/8yPXuvopLF7yG2zodGYRLnhdlkz856al+OXqEux/8XakBykgkftj7K2v4ajWjrYDL2JlWiB5FgoEjrsVL2f0OD9IsDdg5wsPYcn4CHjJpeR61AhLvwl/3d5EzobBYDAYjMsEGkfMU9iq/sdd4y/iFIk3cn969zPu/b/dy03wU3BymYCTzn2Zq7HTo+xc83f3cjFSP27a4x9wu47ncodX/527PkbKec99gSu08V/FGdfczflLwrnkpFAu8YZnubc++5D7x+2jOZVQwy18rYKzcVau8Ks/c79emc5pSF76yqe53/72Ge7vq0rIPtfno7jRKSFc6u3/5D766A3u/V1NnL1lLfdggpSThM3lHvvPh9yXX7zD/eWudM5HKOWSH9/GdfX9/A8Y2LWRq2v+jruXXIvftMe5D3Yd53IPr+b+fn0MJ/Wey71w6uK4u/3FXNRPd/S9/wEDuUdmLuN3ozmpzyzut99lcPm5+7lVL/2S+9OqRvJpgq2Ke/e6AE6kSORu/NO73Gfv/427d4I/5xMUyMmlc7mXXSes/4y7USnmEp/aT77RhY0rf34mJ+l33MCvS8KFJyVxYaNv4Z579xPujafmckEiGTf2ppXcxLDR3K3Pvct98sYvuDlBIk6S/GvuoPNH7fWvc9clzeMe+PO73Ortu7nt377I3ZGq5ESh93JruvuOYTAYDAZjpONBIWblcv6YzkkkY7jfZhideRzXm/EXbpaP8JRYseZxf54o5VTzX+EqnO03pf2zFZyfJJn79eG+lpkXUkIZl/LIeq7JqRk4/Tbu0Wgihpa9y7U7s4ybHuRCxaHcg5tO/Sal7/NCznv+i1zhSYVh5XKfm0jOMYV7ap/WmUewN3Af3uDPiTRXcW/Xu36sPwO8NnJc3p8nclLVfO6V0y+OW+En4ZJ/fbhP7FxIiA3oHrVwby0hgnLWC1xlv2NcWHP/xE2QSLgxv83gTp5xbwb3l1k+nPCihdjFXJeQk6f+lNvY7Px+WyH318kSTiBP5R7b1NwnEsn3F/51ErmfE7nn8qx8ztno/PgGTiNJ4p52qTUGg8FgMEY4Hhya7ELm0RPgohfi6nS5Mw/QTLoDy0eLnO/6hsv2FzgQEiHDiW2bsXlzX8rQqeDHVaGgQO88kiAMxrxbliDEdVXyVKTGiWDrbEPbQMb5yOdveupRpEqd7x2N2L0nH1zCdbhtqtqZSRCGYfl10yHTH0dG1tnGJwd2beTisH9/ARwhEZCd2Hby2jZn6KDy41BVUIB+V3dOBnaPfJA+MRGCIy/jJ3/4Grmdp9+QriOZKOKisfDqdJw8Y80k3LF8NPqd8cC4qOsSImjuCiwKdj40UQySE1QQhczDioXBzrFzEWISYiDjutDRccaDtHShKvcQdu/YggN1Zkg4I3QGtlgEg8FgMC4PPCfE7J1oJ2JA4BeEwPO09I62FnQ47Khd9QzuvvNO3OlMdz+zAZ2+0QgPON8liCGm3223D9BvSAK5st/J2JrR1Oog+iwMYWJnnhNlUBC80IvunrMovAFeGxUsLR0O2GtX4Zm7T13bnXc/gw2dvogODxjQAxrYPZJi6rNf4t0Ho1D44u2YEJOEJU99hnwt/QY7Ots7YRf4Iei8JzxABnVdQoiEZ9lL8oSgFlzne0cnDr50G8aHBSN+0kLccMsduPffu9DNVuxiMBgMxmXEQNr5oUEgg0wmAPQ66M7TdgrkSsiJoBrz9B60dnais1/qaC3Buzd4O48cAoQKKOQCcLpe9J5xjjaSZxBo4O19FuEywGsjFwelnMjFMU9jT+vp19bZ0YqSd2/AQK5uwPdINQb3vHUIZSW78OZ94Sh44z5c/cQ6dENAzldG/m+A7rwnTBGQf0QHOc770NxyXedDv/NZ3PXbTRDf/iWK2vXo6epE45d3IshzJZrBYDAYjIvGc82WMASj4nzhqM7CsZZT9ipHcyaO15x6L4oajRR/BypzjsM1cW8wCIQCctFWWAYS0VUcizHJXnAUH8C+xv4/rsPBPUdhkKdjarprHLMfA7w2cnEYneIPR2UOjg/i4i72Hqli5uGR19bg71fJ0XLkEIotQoSMioOvowrHs1pPWQ8dzcg8XnO6NVGohkbNobOl+VRQXHs9DmZUnTrOTdd1bmyoOnwUDcLJuOfXNyLZu68YO6zWH8w0tZvNFzn7lMFgMBiM4cOD9gM55tx0DUJNu/HCr95HVnMXGjLew8NXP4a1bdTm4kS+APfeMQrGzX/Go6/uRa2BZtrQVboXn7/6JbIvMi6rKCQMgYJuHN2+B41dtSgo6Sc8foAaSx9YiVjzTvzlgb9i04k2aLsqsff1h/HEx42IXPk4bos82y0c4LWR4xbcewdGGTfjz4++ir19FwdbVyn2fv4qvhzoxQ3kHlmO4fUnfo9PMxpgIlesK92KPScskMckIFpMvmLOTbgm1IRd//kVPshqRldDBt57+Gr89NvG0++PNA2Tx8nRvfkV/GNrNTobM/H+w9fh6Z26foXJTdd1ToQIigiF3F6CvTuqYCZn2J37Ph55ZtVpQtRy8NcY46VBws92OHMYDAaDwRhhOJ32PYO9idv4y0mcr0hAx7k4gdiPm/jIR9w7D0ZxmsVvcg3OiXScNpt7664xnA85TiCScHKpmBMIxJzPuKe57fq+Q+hsyHBZIvfUvv4z5tq5969Vc4pZ/+HKXJP3bEXcf5cGcSIByG8KOf+7VvOzBM/+eUovl/nqLVySRsgRCdV3niIfbuxdb3PZ/SZS/oCBXhun5bLfuosb4yMi1yTiJHIpJxYIOLHPOO7pUxfHPRgu4xKf2tf3/mxc6B7ZTnBvLQ/nZPS7pX2/oYy/kXs9x/kbnJ1r2vgUN8mXnAe9TnIufpN+yr305NTTwlJQdEf+zS0KlTiPk3BBM3/NrX7vXi5EvZh789RDu6jrOnXXjdzGB0M5WeKvuP39HoVxzT1coCyZe/qAM1N3hPvXwlBOIpRwXv6+nNo/nXvwld9y89UJ3JN7+44xH/o/brxaQb5/N/+ewWAwGIyRhoD+jwoyz2FHV2kGMkq18E6ZhmnxPucw0zmgq83F0fwa9Dg0CE1KQ1qiP2TOvReFrQNFBw6jzOCL0TOmI8HnwoZBe08lso4WodmkRPi4qUiPUg3AnDjQayNXp6tF7tF81PQ4oAlNQlpaIvwv+uIudI8s6Cg+hqOlbXD4JmLy1BQEnjGyau8qweHDJejxSsKM6QnofGkuUn4vxvNlu/CLqFNn79BWIvNgITo1KZhJjnOODv4A91zXOXBoUZV5CAUdCiRMn4kUPzdMNGAwGAwGYxgZAUKMMXKxo+I/ZxdiDAaDwWAwBg9rWRkMBoPBYDA8BBNijPMgQtCcB/HMMw9gtj8rKgwGg8FguBs2NMlgMBgMBoPhIZiZg8FgMBgMBsNDMCHGYDAYDAaD4SGYEGMwGAwGg8HwEEyIMRgMBoPBYHgIJsQYDAaDwWAwPAQTYgwGg8FgMBgeggkxBoPBYDAYDA/BhBiDwWAwGAyGh2BCjMFgMBgMBsNDMCHGYDAYDAaD4SHYEkeMIcVisqKzvgc9zToYeoww6cwYNT0aAVG+ziMYDAaDwfjxwoQYw+1wDg66biPythSjLKMWNosdQqGAz4dAgAUPTkbspEjn0QwGg8Fg/HhhQozhVqjYqitsxr6Pj/ECLGRUAMJTghFKtmKZCCpfJSQysfNoBoPBYDB+3DAhxnArbdWd2PF2BmipmnvfRAQnEAEmETn3MhgMBoPB6A9z1me4DavZhvIjtTBqTbwIo5YwJsIYDAaDwTg3TIgx3Ia2XY/iA9VInZeA4Hh/Zy6DwWAwGIxzwYQYw2101HXDarQiJMEfYinzA2MwGAwG40IwIcZwG83lHfAO0cA7WO3MYTAYDAaDcT6YEGO4jfaaLsjVUkhVUmcOg8FgMBiM88GEGMNtWAwWqH2VUHkrnDkMBoPBYDDOBxNiDAaDQaCRfFga3sTo42z3hqWhTSMJFkeM4TbeefAbpM6Nw+x7JjlzGIyRzZmVMqsOhxeBQMAn1+sfE66yduaWMTz0L3eeLntMiDHcxlv3fYXJN47BpOvHOHMYjJEJrfYsdjvMJNHXDgcRZOQfecMaxGFAKhRCTBo/sVgM0gxCIBRASPJ+LGLM4XBAZ7XyZY0WNwfnYGVvmKBlTCwQQiYSnixzrq2nyh8TYgy38fb9X/NCbOLy0c4cBmNkQhvCVqMJtQajM4cxnASKBPATiXghJnJuPd0YDhe0ybWRDkB2V48zhzHc+BLhHyKV8OVOLCJlj4gyV9nzRPljPmIMBoPBGFYsZguMBgMsFgtsVhvsTsvkjwVm//AsVpsdJpMJVlL+RkLZY0KMwWD86KAVL2sMPYfZbIZOr+9rDG1WvjGkVsofwzNhZc/z2EiZMxlNsFitsNltHi97TIgxGIwfJawx9BzUEsZbxIggs5LGkFnEGMOJzWY7zSJGhZgnYUKMwWD86KANIWsMPQe1SFCrGC/CSKP4Y3serOx5FlrmaGfASrauToAnnwkTYgwGg8EYVugsVdoA2p1DQj82YcKEmGeht9/uIALMw5YwF0yIMRiMK47edj0yvs1DY0kbtB16OOzDUOFyDlj13WiuKEFFQQEqSyrR3qWDjYiOs8PBpmtFbXUHrB5vl4kwMnSgobwOesupe8U5rNC11qGmsdOt4oGGa+D9cnghRhtGj9+AyxRShozdaKo4gXJS5vh0ogytHTpyj899TznODmN3M2qLi1Hf1A27M3844Oxm6Ht0sJ7z7+J0OIcFvc01qGvppQFm3AKR/iOq7DEhxmAwrjjMejOOrsnH2r/vxPa3DiP7+2I0FrfCbLA4j3A/NkMbcjZ/ge8++AK71q/B5k8+waovt6C6RXeOyt4BfeFavP78TnT+YLcFHQX7cKy8y22Nz7nh4DC1o2DtW3jt2TdQ0mZ1ZjtgbD6Bra/9Ec9/tGdYG2vGQOGgrzmCz19+ERtWb8DBzRuw9dP38fG7G9DYe+6yTsvqsbUfYvUXq3HkeDVszvzhwNyaj+2fbUZDj7OcnQ/OBl1tNtY//zu8+t1x8hdzZcKEGIPBuGIx6y2oyW7EgU+P84JsBxVlm07A0GNyHuE+DG0lyMtoQOqND+Gep3+Nu35+D2ZMHgW1TOQ84mIwoXH/d9iW0zz0QsymR/W+DdhxsASCfj9mM7fj2KbvkFXadsU2gJ6irbITrccbnO/cQOBYLH7457jnV0/j/sdvQVjdERwr7XLu/CFWXTMqarUYs+J+XLMgFRJn/nAgVoUiaVIqvOUXlh+W3noc2rgORbWkQ9K/cF5hsICuDLfBAroyBsrqv+5AZ/3QBbSkQ5H6rrMEaxWQhkAqgtJHhvAFsfCbG+PcMXh0jUfx7csfgRt3AxYtGA9/Hw2kMinERIcVr30D+zumYuUDU6GytGP3J29Dl3onZku247mXajFhigD1+bUQxc3BioeugyBzFb5+72tUixOx8PbHcO0N0WjYtQHbNu9Hp90PyfOuxbLlk2HO24ivt5UiRKpHflEbAtPnYEqMDfvW7IU1fDKWP3wHUkIFOPH959i2NQs9BhFiFt6Oa1bMRpCKRrXnwJl7UHY0HzZpO7a8mIl5Lz2HCeEyos+aceLwMbTWEBHbMxZ/e+oGPhr+YLHozWjYVAKRwYSEWRHwDfaGl68GSqUSEomED+x6JULLZG+bHoW7ynHiQBWi7kqFz6hA595LxYGe4u149+tiXPWTBzA6RAWHoQqbn30V+lt+g+sTzcjavBb7DhUDmlGYsuIGTE1TYNevf4fNxc2Qhy/D/X+7D8Gd2djx3VZU1PXAf/IyLLl+EeK9GvDNMx/Dmh4PvVWJRTcuh782Dzu+2oDiinYok2dh2cobkOTfiU1//RA9SfEwFB1GXbMYSSsfwW3XjIFQ14i8zWvw/ebjsKlDMPa6lVgQ34W1bxdg1m9+glhhJTb8731kl7ZC4B2LGbffj8VToiF0FjNTRzWK84rRXrgTe6XX4LmfzMOldGvOhOvphlynhbe3DzRep8oeDS7siYCuoucIztcMxqA4tq4Q4SlBCEsKcuYwGGeHlhU6fBiaGAi1n9LtSaqQQNuuoyM3p6HQyOAf6YOI0cEIGh8Cu1rq3DN4JAo/BPkLUb53E3au2YbC4ir02BUIDPVHZ94uFHdFYMK0aEjtOtIQ74Q+YAISZNXYk2HCvJ88ghUrr4Jvx35s3NyDiXcvR7S+EG3TH8dPb45Hy44vsbbQD3f97ilctTgV2p3f4JA5BlGCShzObMG4FT/B8kVRyF+9GR0RC3Dvo9dAl0UaRS4Uo6JlREx1IWDsdEycnYCqDV+iO2omksJUfcsLieXwj4pGoLIHmZtKEb10HkK9xBBK1QiOiwTqc5Hd5Yf505JJA+kGIaY1oyO7GS1ZbWjI7YCpxwoREV9ypQxytcwjDeFQo+s0oPRwNXa/l4mKI3WQe0kRcV0SH9F9cHAwt1fi+JE82EhZ1zWUo3DfPmT3hGLu4kSUb1mDGvk03P3UTzA1RYas7/fA5DsW069KRXebFjMffQxjFRVY895+xN/1JOko3IiA3uPYs6MWoaM0KFi9Babxy3HrivkIFVVjzSvr4L/iZ7jzJ7cgSV2DTV8cR0BqCGq2bENH9Dzc+uj9mBGnx/qPCxA/Pwl1G77G3qZA3PGbX2DRzARYTBzUonYc31WDmAWkU9JTjSYuBGkzZyBOVYuNW7qRvnQ8VM7bIlb6ICQ2FNayI8i3xWHexBj3DOOZTRBbLJDL5ZDJZCdFmKeW2boyux4MBmPEExDti+t+M29I0tz7J0EkOdV3DojywfhlyZj/0BRc9cQszL5nIv/77kQgViB88tW46/+ewyPPPILJ8RIUbliLjLxGnM8vWeGXhPjEUCjUgUiZOwd+Tblo7jA79xIsXaQRL0RvQw62v/cGvn7vWxQ31+DEvmLoHEQARsZhVHwI1Bo/qAJiEJMcA41SQ3r6CtgtNvLxBpRlFaGurgFtTe3QkkbIYBqAf84QofBXIXxWMAJH+8Cis6L8QB32vZ+NfR9lIX97GXpadR6P6+QurGYbKo7WYc8HR3Hgs+MQiUlDLxQgeU7saeVz0FgN6G6qx4ldG7DniBazb78ekbIuVOQfR3X+Hqx7+w2sW7UTtXklqKhoxam5Kw7oyo8h+0Q9Cjd/jm/++xYOZBShsS4Pje0Gco6BGD11PPw1Epiqc5B5ognlO7/Gt/99E1t35qKjORvVjVoiB70wauJ4BHqp4BsWBrnFCG1nG4pLjYibMhVhfiqoQhIxeeoYeCnEfT/NmdFZUYDykmq01Dehs1MHG+k8DZ0X58iFCTEGg3FFQhu62EnhWPLzGVj2yzmYeUc6kmbFwidEMyS9XptZj+62Xoi8AhCZOhGzbrgRacEStDV0/sAydy44GmUeYt5CdBKRGHLSa/eJH49Jc+eRtACz7/wlHr1vMlQXvAwHOk4cRokhCfNX3ow5i2ch3Nd9VsBLReYnRuQsX0SkB0IgEvAz2Iy9Zl6srP/nLhz45Dg/8/VyRt9lIAIsEzvfyeCH4efdPxmRY0Kg8lUgKi3UeZSb8E3AtJtW4ob7b0dcsAxmIrSEIikkPoEIHzsFE2m5WXg1bnr6Z1gyK46UL+fnIIBYrobaOxopM+fw5Wv6tbfj9p89gKRQpfMYCj1OAaUyDEnT5/LHTVl0I1Y+9STSozXOY05HKBSDak2b5RzTPEzNyNpQgJA512Ppzddh0oRESKVuFKeXEUyIMRiMKw4qtu599Xpc/9sFSJ0XD/8Ib8iUQ+uSrKvJwKp//QNfvLcKxzIzkfH9ZpywaJCQGgnfkAAYazKRm5GJnF3bUFDS7fwU+VzzERzeth9Fh3di06ffwzHjasSFqKHw84GprBBlVUaMWj4fkvZGtJo4iGBFZ1UDbN5qSC4oxATQhERBY65CeXYhaiuq0G240Bw5M5oOfouv1hwH+bkhQ6IUIfW6KKQtH8WLZolMjPkPTkFIYiAqj9fji6c3YuMLe1GVVc8P7dHYYyMd6gfW1diLo2sL8Bk5/8biNky4NgW3/m0JwpKDUF/UilHTo+EV0F/kuAnSufCOn4SFM/3I729GJ4IwcVI6BM1NMBAtxFm1aOvSkXst7dcREUCdOh+z00xorO+Gg3QAjN2t6OkVQEqex6niRd7Hz8ZVs4D66nbYBUJYda1oa+egIH9XZyuGAq8QTFsQhdo9a7B37xHk7VyHNev2o1PvtMZKfRCdpEZzfg4qSkvR0NAKu+3HOS2E+Ygx3AbzEWMMlLytpXzDS0XSUCASiyCVkwaCNDiu1B869KW32qC1uy8og9Q7DNEJAdDXV6CquBy9dl+kL1uGtKQQaAKDIDfUoaKoBnb/eIxKCkdIbDJCvcWwS4PgL2lBaW45RDFzce1N0+FHzl0d6A99yQnoBAGInTwVKaF2lB45hLLSZghDRyElKQJSzg5OQfbHktdCDlaHBMHxMfDXSGGzOqAJj0ZMSjICZa0oOZaPFpMM4THRiEgeg1Bf+ekNKGeD2SxDxLhYoL0ObUYvxCaGQGS1kkY1HKNigt3iI0ax67QQWixQqpUIigsgwtkLtceb0NOiR/o1KUiaEweJXIyuhh4U7CpHS3kHbCYrxFIxZCophC5v7hGEsdeEiqO1OPRlLqpzGhA3MRKz7prACy963hWZdag8WofxVyfBJ1yDVos7hoc5cHYb7EINouKioVEo4BUUAAERXOKoUUhMjQf5JRQeOY76ZgP8ElIRFe4HscABu0OK4LhRCPDxR1hcKHRluTiRW4huLgij0pLgpyaS3yxGyNhk+BHRLBCqEJoYA2t1PoqyC9CiVyFx0lgEeElgMwsQkJKEQI0EnMMGk12JuPFJpKzFIdLLghNHstDUK0TM+HREBavggBqRY0Yjdmws9MWZOFHWBKE6EEHknJPHR0N+esGEndwrkX8sRkX6nVX0XTQjzEeMzZpkuA02a5IxUD795QYovGS4+bklzpzhha4112IwosH8Y/RI8TyW5kaItFr4+vpCo/GCQqFEW1k3Mr7M4x3Yp69MQ+yEMPS26tFU1obyjFrUFzbDN9Qb4aODkDw7DkGxfs5v8yxU1FOhSGPVNZBzDCTnNXp+AqLGhfKi0cXXz26BVCHG4semQ6gQokBncO5hDDcjbdYkG5pkMBgMhkcRigSIHh/KixSlt5yP91Z5rAGaACURXbFY8rMZuOHZRfCP9kHZ4Rps/M8efP/yPtTmNcGkNQ/PyglnwIdI6TZiz/tHybnsR2tFB2beNYGfDBI/Neo0EVaTT619WsRPiYSCXB+D0R8mxBgMBoMxrNCwGWdCZxOGjArAgoenIn5yBLa/eQiZq/Jh6jXzoiYsKRBLHpuBFX9ajJS5cby1bON/9mLji3txYm8F2mu6YLcOffx/zsFB265H4e5yfPenrbwYTJ4VQ4TiQqTMieNDcPQfOqXO6qUHqngLcAIRaJ6wuDBGNkyIMRgMBmNYoWKkzyeH+h6d7sPnG+aFWXdPQNKMGBTuqcChL3N4q5cL6k829eZxuOrJWZj34GTI1FIc/CIH24hwO/x1LppK22C3DY0go0KvLKOWnwl5+Ktcfnh04SPTMPWWceecjdtGBCJd8zR2YgSU3gpnLsOT0I4ALXtUMJ+tUzDcMCHGYDAYjGGFijCxWEy2Qt5Bmk4C6C9iqFVp+u1pGLMgARWZtbx1jIaDcEH9yKjwoZM9Fjw0lQ9REhTnj/wdZdj86gFse/0Q6vKb4HDjLLyu5l4+IOueDzOh7TBgzr0TMff+KXxICuqMfzbo8GV9QRO07Qb+Wlwwq5hnEZAyJxYTIUZ9wpwdAU8+E+asz3AbzFmfMVBGgrO+1WqF2WyB3qCHQaeD0WSC1WIh++x0LprzSIY7odYHKr7EYgmkUgk0Gg0USmXf7DWpjJ/t6lriyNU0lR6sxqGvcqDQyPlZiKHJgfx39Ic/lvxn6DESMVbOizc6fOgT6sU7zkeOCYbaX3lOwXQuqJDSEdFVsKMUhbsr+DAbaVenYMyiBH7W74Ua724i3ra9cQi+Yd6Y98Bk/jPUuZ8ve6SsGY3Gk2XPRF7TsufgfpwhHIYDoYCWPTG/9JhCroBarYJCoYCMlD+az2ZNMi57mBBjDBRPCzG73X5SjJlII2imiYowq43fx4TY0EAbOdrYiYQiiCVifrYaDR8glUohIeKMWrpcQqw/Vdn1OPBpNhFCQqRfm4qU2bHOPWeHxh2jFrHKrAZ+qFKuliJ2QjhJEQiI8eVDm1wIQ68JVeTzxXsr0NnYyzvaUwtcUJzfWc/xTGjTSkXkng+P8sOXcZMiyecEvBCjZcxqscJiMfMizGw28+/tdhv/OVb6hgZqeRWJxLzoksllJ8NXSCXSk2WPCTHGZQ0TYoyB4mkh5moMabIQAUYT/56Is8shcOjlDG3n6JCQmDSI1ComlkguGMfJbnegqbgVGd/koaupl7eMJc6I5i1o54OKKTqbsSa3kQ+BIZaJEZIYwAsyOiHgXJ9vKGrhw1E0kt+kS2FNumE0guP8T5sJeSGon9r6f+/hhdXCR6bCO1DD59P3rrJHOwK07NFOAU2emP35Y4MKLjEpayIqxmgHgJa9ftYwJsQYlzVMiDEGykgQYrTqo1ua+EbQmceqxKHF1dhR6wQVZC4BdqGGkApkbasOB784jvoTrUi7OhnjliTxKyacr/Gkz5POXKQO/wW7y1F1tA76bhO8g9W8hStqbCiUPgreV0jfaUDu1hKUHKjmrWj0N6glTeV78ZHw6bJGXz7zPaauGIsJy1P566O4yp1r6xJgdEiSlb2hx1XO6JaWPWqd7e8ndr6yNFQwIcZwG0yIMQaKp4WYq9qjWxqOoH8jyKrEoaV/Q9dffA20EbSardjzwTFUHKnl43VNIULHO0jt3HthzHozqnMacWJvFdqrOyGWixE3KQIqIsYKdpTBbueQOD0K469KhiZA5fzUxUGF1d4Pj6GhpBXXPDWb9xHrD1/unMklyuh4JBuUHHpIKaP/O1neXGWQ3zeA8jcUMCHGcBtMiDEGiqeFGKV/1ceqQc/Qv+G7mEbQpDMjd2spv1RWWHIgv6A7nUV5MVgMFlQdb0D29yfQXNbBC3KhWMhbyWasHH9JVjAXdPh0w7/3IGJ0MO+kT4fD+uMqb6dt+f9YORxqeCHW94Ivc67kSZgQY7gNJsQYA2UkCDHG5Y3FaOWHEA9/lQP/aF8ixtIQkhDg3Hth6OLcR77LRU1OE+QaKeKnRPF+ZFTk+YZ78+EmYieGX1Lsr2PrC5G5Kg+3PLeUX/LoTGiz238ovH9iDC0u0dXfGktfUzwlyJgQY7gNJsQYA4UJMYY7oM0XnRVJQ0RQZt6exg9XuhrWM6FDhj0tOpQcrOKtadQPbNzSJD5Sv1Qh4X3JaKT8/O2laKvqgoB8TcLUaD5chdpPCanywguO97Tp+CWaqBXshv9b8IPGnZ6zzW5HdlePM4cx3PiRZxMqk/b5iDl9FF2izBNiTPQcwfmawRgUx9YVIjwlCGFJQc4c98P6DcPPUFRMtBGkMZXoMBCDcanQsqnyUyA43p8Ip04U7auEylsJ7xD1D2ZEUmf94v1VOPJdHuoLW5E4PZpfXDx+ciTEkr7FnkViIfzCvXnx5R/lw7+vL2pF7uZS9LZq+cj6dOakjAiys0EnFNCwGSX7qnjfNf9IH+ee07E7HGg2nVotgDG8iB3kOZJEazYBUdtMiDGuGIZKiLnEV/8tS8OX+uOuSooJMYa7oGWSF2MJAeht1iF/exlvjfKP8OYDuFIrWH1hMzK+yUXRnkrel4xa7scuToTXOZzx6efpUkvhqcH8GpdKXznqC1pQfqSWt8CZdBbekZ9a0fpDh0vztpbAarZhwjUpZw13Qf+m7ESwtZiZEPMUIpsVEpJohH06a9LTQowNTTLcxlAMTfKxdk76UtBK7JRfBWNooeEFxKSC6l9JuYZ8BltZsaFJxlBg1Jpx+MsclByq5ocbxy4ahdwtJajMqufL7Mw70xGTFgapUnKyLF8IWtdQMWcm4qu+qAUFu8rQXtMNCRF5cVOiMGZBPLwCVbzoo4Ffv/n9Fky6PhUTrk3lI/GfCfUNs1htyOvVOnMYw43EaICXxQKVM7I+DezKIuszrgjcLcRo0dSRP5YTvTpnDmM48RIKECah6wHS4Juk1+j0pXBHZcWEGGOoMGpNfODX/B2loKsFKUk5S50fz/uCafwvLRxFf2ig1qbSdn6Ys6mkFYZuE2LSwxA7KYIf8mwoasbix2acc+IAFWJ0FYd8rd6ZwxhuBNpeqIxGaLw0UKn6xJgrqLAnhNjAugQMhqdg3QSPQde9o+vfWcxmPugktU5Sccz6boyRis1i42OE0WCq1GIlkYl4wR89Pgwq34uf/Xg2qO9ZRGow5j84BUt+NhPp16Sgu0XHLwh+Ym8FP1wpFAl4K9q5YH9DnoWGKrHZaSBduzPHszAhxhix0MrKwSosj2GzWWEwGGAymWG1noo8z2CMRNrrunkxtO/jLFhMVn59x8U/ncH7be169wjv4+VOqCM/nSQwcXkqlj4+EwnTomEz29Be04Utrx7EwS+z0d3U6zyaMZIg3Ukixmh9NjJEMXPWZ7gNdzvr0z8QExEDnUQEMIYfBxFgDq2WN9WLREJ+aNI13Xuw5vuR4qzfvxKmr1ka3tSfSylTtHNAxU72pmLs//QYdB0GTLlpDObeNwmBMX7wi/BGxOgQNJW1I4cco/ZXwCfYixdR7oI69tNLydtSQr5fhet+PQ9mgwXV2U3I2XwCTSXtvJVMLBXxZZ5O1aPhK1otVuc3XDr1O17D7x79Bw7s3Ip9a1dh16ZjMKhDEBbuDwk5rx/eUTuMtYfw3h/+im2HauEVk4BAX8XwWGQ4M1qO78TBKg6xUf4X/E3O1o38dZ/ju/fexfrPvsS+Q6UQBcQhNEgD0QVCiFwQswlii+Xkot8XWut0qGFCjOE23C3EeF8Km40JMQ/BkcqK02l5J1a6OLOEbF2L49I0GDwtxFwiwCUIaFljaXjTSSHWT49dTCOo6zSgIrMOh77I5hfnpgFZZ901EXET+xbzpt9FEx2SDB0VCC05vmB7Gf9ZOiNSIj99xuNgoLHH6LDklJvGImpcKGLSwxE1NoT/DSoU87aXorm0nbfOUREoVojRTuq2wdJbkYMay1Q88vwzuPaGpYiQN+PIvhPwTxmNIC/ZWYSYCdWb3sdBzQr84vFrEeatIH/f5F459w4tVvTWlqPR7IO42ECcf7l2grEBOXsbkLTiHlx/+3IkqBuw8+tsBE1OR4CKCNrBMMKEGHPWZ7gNdzvrU5+kHqMJ5SQxhh97TzcEba3QaLzg7e0FlVp9mlPrYPC0sz6t9nrMFrTREAKkBiRyzCkI+FeMIcZHJISalCF+phqN40QtrgNsBOmzqytoRs6mE3yMLyp4xiwahdDEwLOGi3DR267HsTUFKDlYjaSZfTHEFBq5c++lQ5dKOvhVLurzm3DTHxedtjQS9RPTkt9tqexA6aEaPowGnTCgCVZBOT8SXlG+ziMvjfrt7+Cz3X649w8rEKoQQFt9CJ99vh9ptz6MNL8uZK7fhBMVHVCOmoFFN0yHPWcr1rzzIYrEY3DNrfdjwdUJ0Bfsx87v96HT7ofEOUswe0YCjJWZ2JfTgECRGa3mMVi4IgGdWXuwZ8tRmDQRGLv4KkwaHQ5LSz4OHCyAWiZAcVYJuMBEzLz+WiRHesHaW4+cLRuRW9gAYeA4zLpxAdQ1e3HYlIoV8xPQW5WNfet2orbLCt/EaZh79WyE+Sv7WcrsRLjaiGiV8XnGxgP47LnNmPj7ZzEh6tKXn6JwpG6Tk06mt7cP77CvVCo96qzPLGIMtzEUQ5O8RcwNPUfGxeMwGfmhSSnpMcplckioVaxfz3EwjASLWI/FihaTGSaHo18iZY6lIU8i0smS9nOUFggFoP/4/87SENLn5bBz0LbpcOjLHBxdnQ/yuDD91nGYcF0qAoigEdNhv/NAhwepZYw60tMZj61VHYhICebL4aU2vvS86MSAo6sLkDQrGlHjw3hR6YJel1wt44PERqeFISYtHJ0NPajKboRvWiAUAQNfrPxs9FYexfESDglpERDpm5G3fRvqegMwcUoIcj75FF1xi7HwmhnwNxZg66YWjFo0Ceq2fDQm3IDbrk6GpXgbvtjUhKm3rMCE0X5o2LQOFZoEBOjysOWLfZCmzMaMObHoOrIRO/IdmHvrciKyhDi+/iDMoTHwNZdi+5dbYAqfjoVXT4Kl4CAKGsRIGOWFnG8/Qm53NObedBXCFL3o6HLAXrMfe1uDMHecPxrKa8EFjMKYtCh0HDmISq0XEhJDISXPpw8hRBLybGjnyG5A1a61OG4Yg9lLxkAtubTndZIRZhEbXG3KYDCufEhjc6VBG1CaGJ7BbDJBp9PBRLYWq4W3fjucMQLPBl2WKHvTCaz5207U5DRi/LJk3PjsAqTOT4DCS84LngtBG1hqhZ10/Wh+kXC6hNHGF/byw5p227lnOJ4Per61+c285YsKLRqh/2zwgkwl5Z37A6N9IZWLoQ4/e9T9i8OC5hNbseqFP+M/jzyKdYUqzL/zegR2Z2HnMTuUoh40lldDCzns9btR0SGARiOH1Nsf3kojirYchk0mgamhEg0NvVD463BgUy605DFIR0/AjHmTESjtxfGDpbATtdBRXYmWDiPU1iIcOl7JW4/FUUmYOHsyouJHYVRSCCzd7TC0l+DEMT0mLV+K5MQEjJ1/LebMS4aCvz0cud9W6NvqULhnA/btzUe3rhPdnT28uD4dcqy5B7UH12HzHgsW3LsQQYorT7YwIcZgMH6kMCHmKSwWCwxGI8xnhEY5E7PegvIjNdj1Xiay1hfyke7pbEjqi9V/CPBioEFWqSV29j0TYbM6sPuDo3zIi0uBzpI8sbcSUWND4Rvm7cw9N8ZeE5rLO+AT5gWpWubMHQxyRKTdhPv/9k888NBVCFT5wMdPAzEp2zZTB1qra9BcU4vWZgti5i9BpF//oVvSGXFYoW1p4I9prqmHXjkaS6ZF4zTvOfpcHAZ0N5Hjasn31bZBEj8F6UR0nRMHEdYOOtx8NoHMwdBUhMPZ9Uhc8TjufeBaxARpzuqnZjd3onjbGmzaWo/x99yFCbFeV6RoYUKMwWD8KGEGMc9htVr5GHVWIsjoa2pR6i/E6OvW6k7sfj8Tu97NJILMjEWPTsfsuycgcux5BMBFQNeYpN9HrVh7P+iLAXax0NmYhh4TIsYEn9c/zUVPqx49LVrETAhz5rgJoRLR825CPHJwYF8pHJHpmJKigXfKXCy68y4sWjYd0dGpiAjsJ14lPhg1cxxkyhCMXb4S191xE9LHpCJ+UiyU/VSRSBOIlLHxUAbFYPqKO7DslmuRNGYixiYGn1U8UcQ+cYiOs+L49iNo0xnQXHQYRw+Xw+gcjRYI6AQB8rxFAgilcsjoWp99u05h70Xeqo+wcVcbRt94C6aNjyAC88qE+Ygx3MaV5iPmsFvQ3ViJpvoWdLW1nUo6OxQaJcQDGA65VDibAa119bCIVZBLh2tW0+k4TCZAr+N9KORyBaRS6RXjI0Zn7emIAND281NiDB82bS84k5GUKeqfI+b9D6njPm2bde0GZG0swt73jvJrNk68bjTm3jeZX4R7MP5cZ0KHC72C1IidEM7H/srfUUZ+z8ov1E1DTVzod2jw2F3/OwKltwzTbh7PL3F0PmiZq8luQNWxekxckQqdfHATXijGtho063yQMiEOaqU3AnytqMqvhm/yVEyYEomaTZ9gzQdf4GB+D2InTURYoAz6mjJ0eI9GekIQNNHJiJHVYsMbr2Hjqr1oFgZjTHoCJPoWNGmlSEpNhFqhQtCoBPjqCvHdy69j284smLyikZwSCZGpA01tVkSlpMJPJYShpYHU195IHD8WcWNiocvdiPUffYHcKiESZ02At6kJrZJYTJ8yBsGSDuz97APs3lEEk0QB3+gkJCWFn/QRszcewcfvb4XO0Eru2T4c2LgBmdm18E4gn/W6sOg9L2zWJONK5UqbNUl9Ewq2fIns0i5oK4+ioDcak9JCIQmegGtunoNA5SArg3PhMKL5yGr8940tGP+zf+OW6WEeEWK27i5wLc3w8vKCj48vvy5b/9lFg8HTsybpcFiLwYgGs8WZwxhOrM1NEOm08PH1hUatgVqjBmcRoCqzAcX7KqHvNiJ5dhySZsfyi3f3d4AfCkxaEw58no1KIpISpkZhyoqxUPudf+iTzoDc+t+DmLA8FelXpzhzz41Jb+YDztIFw2c9MAFV4kvzS2MMnpE2a5INTTIY50Ak88b46x/Ffb/+JZYvTYH/5Ftwx69/g/vuWTR0IgxWdJXsw3erD8IoYH2kS4U25NTvh4YWGHocsPZUY9/HL+ON3/8eb/zzFWzZdhy9lnM1tA5o67OxZd0m1HeaqBHIc3AOGJoLseW975BfQ4T3yZPhYOmqQcZ37+K9536P1//6Oo4Wt8FdtmkaJIS3AZBEZ0M2FrVhz3tHkbk6H+oAJeY/NAXTbhnHO7YPtQijyNQyzLg9HWMWj0LpoWoc+CSLH0I8F9QaRkUbHVJNmhnrzD0/FoMVTWVtCI73g1zlvhhmjMsfJsQYjIuCOria0Xx8M97/v8fxxwd+jrfeXoOGbhOMdZn43//9E1/87wX887778Y8/voHDezbgvV88hD888Rx2H6+D1WpCw5E1ePvpx/DH++/Dyy99hdJm/akG0GEnlbwKabfegUnh7nDm/XFi6DFi+5sH8dWzW3Dgi2y0EZFBG8Lzrf93qXDmJhx4801kG2Iw79aVmDszHl2Za7CvoJ1IrrNj6WlESWExeo1nSBuHBbW7vsW372xBh2Goh005WPUtyPjyHaz5ah+aSRk+CdeLglUfIqfDH5OW34y5s4KQ8fZ/caS0+5zXdLHQ9f707SZkryrF/g+y0dui5wUYXZYobmLkBcNRuBNqBVF6yzH5hjGYe/9k1BY2Y+f/jqClooMfUjyTrsZe1Be2YNSMWP5zA4EOf9qtDgTF+0Poxsj+jMsfVhoYjIvCAUPFbnz9RSkm//yfeO6df+CqyCp8+dEhdBuNpBfdClHsEvz0379DkqUI2w8bcf2f/oHlY6QoPJQPo5EINqsUiQtWYMVPH0GY9hB27iiBwfntEMoROH4WZk5MhOxkPB3GpUCHgDpqu3F0VT4+e3oDNr20F/nby9Bc1g4zEWXuguttwYlSBxImT0JccgrGzLkOK3/9LBaP94OpuQInyhtgJ6IDnAWdpYWobOjp+5zVgI7KfGTt3YvcrBPo1Jph6a5DXlY2SguykFfSSD5nh7GzAWWZh5C17yDKKltgIo05LJ0oz8hCRVE+8vaTz+eUo6OlFiWZB3HsQA4RcUTgcTYY2mpQeHAfju09iKLiWhgsNiK/XDjQUbgH+ZVKBEWeEUpB4IVxt/0Cdz9wI9ImpGHs/KswKrQNxeWtg7aKUQFm6bWhLVeHzA9K0FbRhcTZ0bjh9/P5YUEad2sg4SiGAuqDljInDosemcaL+c2v7Efl0brTBDwNdVFf2IqeNh2SZ8c4cy9MeUYtfEO9EBDl45HhL8Yp+Kh1vD+YM8PDMGd9htu4cgO62tFTvBdZ3YmYMy0Qzbu+xdaiNgg7q3DiWC7q6utRe7wbkRNCUJVvwORbFyPWR4CmrBKIUmZhRlowdJWFqOhRY8xob5Tu2YHqVioEbOgoLYZZMxbjJ0VC1r9S4PQ4sXsnuMT5GB159qndQ81QO+vrO438ECJdHsbtKb8ZrVWd5D46f5Bsu5u1/HAltWR0NnTDxDkg7D+L7FIh90SqK8O+zbtQWVmLbq0VUt8A+KmBhn1f4pODPZgxJQUSQQ/y3nsT+/XhGBOoQ87eo9DZhDBrW0ljfwQV3RJE+NuQfyADzZ02aBJHI85bi6ObvkdZfTcMve2oKS6HlvNDiKoGH/3iFdSJFbB3lODw+u2o1TmIkKtFwZZNqCZlanQ4UJWVieLievS0ViF3XyEcwTGICiblydkCCWVeCE+KQFdlI3zGjkccv4/uEZB9cqfjNAe7tgqH1uUgePZiJIWqBlUeLURwNu6sRfOxNoSNDcTYZfEYNSOaj3LvKR+dM/Em94FODqBlqCyjhpybjF+3kpZ7GoIi49tcBMX48T5sVLxdCLq0EV0EPHRUAEZNj4aD1G3uWGuScWkIrBbI7XZ+pZD+zvq07Hmi/DEhxnAbPw4hFgZz1TEcaw/DwmXTEREVhdD4sZiwcBKC5b3IOdKEuLmTECq3oOrwcWgDkzE+2Q8dRdmo0HojMagbBzY2YPJDD2HahFhoS4+hVZyMtB+hEKNr8DUWtw1JosE6+5l+TkHyTEQI0OEmn0R/iINUzh2XjkCkQMCoJIT5iaFtrkLB3q04tKsUPulpULTkIbvdC7OnUiFmQsPBg2jyG8MLsfwKHSYsvwsLFk1HbIAFhzfmwXf6XCTIutHpSMCym2ah9/gGHDrhh4X334xJk8dCY6pAbk4dwmLUpHzUYvwDP8GCBWNgzvketVE34NYVcxFkPIpdVWGYMTUExtoyFOXkQifxhaCpBjrfRIxPCXY2NgJIVN5Qcl3IzyiH92lCrB+WDuR++Q6OS+bi2mXkHCSDHEghf9e2Lj0C46WInRrGR52XyU+VrZEgxKhFTu2vRAgRTi0VnXysMCE5r4BoX7TXkvu1rRTjlyaR/YEDOt+G4laUH67BmMWJvEXMQUSAjBRGOREEYoMeAp0O9u5uOHq6+aXFHL09LA1BglYLod4Aqd0GOSlvdNYkX6/RpbY8KMTY0CSDcVHIED7jGkwWtaO+3QKRQgxrVwM6OS8opRf+cxJ7BcPPW4e6ogLUVNWgs1Pv3PPjg8ZeeuLrO4ck3f781RC5ngepV2mMp8BYP6Rfk4I7yL6V/1jGhy1wC5wDDrEPRs26Bjf+/Ld4+r8vYfn4bmz86ih6ziYGnQgUKnh5q4j4kMI7JAIqmxFdvWbnXooD2oZiZO/+DG89+Qiee/in+PDDzajVW2Gx2iESK6D2VkMik0OukEDm5QU5Ec0yhRQcaWh6yzOwZkspklf+AitvmASFyALzWfydzgXH2WFsLcfeT97BltZUPPjYUgT1hUYfFCKZGL6jVfCOUUAsH7lNEO1sUJF43W/mIXZiOI6uLcS+j0knbHUBbx2jnc6zByw9HToUS4c3JaSuiB4fyudRwakhjb+GiAENEQJqifM12XrxW5aGJpH7LBVDTf5mlCoVv3ybiIow4eDL9WBgQozBuCBCaGKnYdr4ENCVz0R+qbjmseWQNxzDoQ3bcKJFgogw0iBqwpA+Nw0BSgmpaZWImDgZSXH+5PNi+CSMw9jxsdAEpWDOLQthLT2AA7vz4T12BsaOCTk9kjWPAvHT5iMhxA1DZyMU2vMUiUVDlIT8NjDWF2MWJGDufZP4BZnnPTAZwfEBfHR19/R8Odh7q3FgzRYUldVDbyIiyWCEXSiGUqMkvW0J3xPvNVpg7GxFa5cWdqc4c/R0oqW5k4gqI1rKi9Er1yDYV8FbPx12K8xGK/wSJiB95nW4+x//xZ/efRe/fv5feOzBmxDhfyEHcQdM2m5Y1T4IC/Yh5S4coQG+Zylnp2PRtaGxqoH3JdM3FGLn558jvzcKN923HMFK98Twclkd3HP/hxZ6jjTgK43Cn3ZNMsoz61CT18hbtejw5UDQ95jQUtnJr4fJ+785r10sEkNKxAG1ONPwCTSEB11gX0MENQ0Zw5L7E72/arUaKpWSv+/0/tPnQC2gniyPLI4Yw21caXHEfuxcznHEdF0G1OU1wS/SB35hXpDIT5cg7osjRoSYrhFZm7bieH4xtGYi2wVCKPzjMOeulYix5uHrt75GG3wQFB4AU95xWJc8ibtGN+Hj/22EV2QMjF2dMJkkiF10E5YtGAN94RZ8/f5GGKKW4f6HJ6N2z2bk5NfzTvrSoGRMW7YEqf4VePOxdZj54nOYGG7Avn/9Bnnpz+KxpWGoX/83vF2xCL++JwRHvvoWBXUG+Hh7Q1tZDc3Sh/HAijR+mM11/ubmfHz2ymZE3X4Pxlr2Y82Wbix8aCka3v4Hvt5fBZ9RqQgLVEOk8EPKklsxe3LEBQXdhbA0N0Kk1cKXxhEjjSMtW9Rfh5atwQ57DxUmnRnb3jiEymN1CE0Kwtx7JyEo3u+C51ud3YAd72RgDhFziTNieJcLOjTuSq6VBejEDNYcDz30edG/URoWhQYRFglF/GuXQPaEIGNCjOE2mBC7srichRgdDqKca/adewO6EjFmMULX0wuT2UZ+VAwZERdeGgUEDisMPd3QG60QyRQQc2S/whtqqQ1arZE0CBxMRgsEEjnUPt6QS0TgbCZou7ph5hTwC/QiqsVAvlsLi81BvkPND0dKhVb0tush9/eDTOzgxZxF5gMvpRg2fRe0VgURX1JYdb3o7TUAIvLMSAMjVnlBo5L2a2w48nsWaHuMEKvJ9zr06NU5oPJRwdrZAb21XwgNoZicul/f551Zl8rlKMRoyIotr+2HTCmDtkPHN97zHpyC8OSgc8Y6o+WQrpGZ/X0x7nj+GnJfFXw+FWC06XWJMtdrCmuSh5b+gosmWt76v/cETIgx3AYTYlcWLLI+Y6i43ISYgwiqvG0lOPxVLq5/Zj7fYB+k8emqOrHg4amInRgBqeKHdkJth55fBonGDVv6+ExInZbZM0XXyWaYtcZDTz+t5WkB5mJkdj0YDAaDwRghGLqNqMttQmCML/wjfRGaGMj7G8YQAbb3o2NEpJXCrP+hqNd3GdFW3YWYtDDe18yFq+E/c8uLBJaGNjnxtPjqDxNiDAaDwRhWBPQfbQhHUGN4Lqi1qquxB40lbUiaGQOJrE9QUef7WXelI3JsCLLWF+HAZ8f5Rcpd0GHJLhq8l1wiXUi8//Al/U46JEmt/jRRCy1N1F+MpaFNrntN77vLT48+j5NWSQ/AhiYZboMNTV5ZsKFJxlBhb22BWK/jyxWdLahSqU4G1hxpQ5N2u4MfXqSiatFPp8M3zOukNYU2nzRYK42Ld3xjEcKSAjH77onwDtHwEfjX/2s3v1TTgoemnFxEnH7GRuq2nK6+FRYYw48vEcWhMilfj9HkaT8xJsQYboMJsSuLK12IdZtM6CRCrH9P2dVDZgwddMamwGiE1GGHl0bDizBarmhMJzqLbaQJMern9Rkpr+OvSsLUm8fxoU/OhFrC6GLhNOK+b4gXpt06ng9v8ekv12PCdamYdP3okxYx2uRaSVnL6e7l3zOGHw3nQBB5HjR8hUQihVjSV+6YEGNc9jAhdmVBI31zrS1EiGng7e1zxQkxmixEiBmMBhgNBphMZiLILCSfhREYKmgjJyINIA2iSRtBlVp9cpkZGuHcZZ0YSWRtKETO9yVY8rMZiBwT4sz9ITQERcXROhz8PBsSuZh34C/aXY6FP52O2LRTwYOp0LeSMpbbw4SYp1CQv3M/IsZoZH25TA6JtK9Oc4mx4YYJMYbbGAoh1msyodJg4hvG/okx9HA6LYSdHfysNi9vL6iUKsgVpNK6AoQYLVs02aw2mM0mmC19ljH6nsZzYgwNLosDjd1ErRD8EjPUKkFEmMsaNpKEmKHHhDV/3wGfYA2uenIWHyT4fFAx1lTWhoOfZfPrVNJhzOt+Ow9eAWrnEX1CzELKWV6v1pnDGG4kpPPlRf7mXZ1L2hFwlT8mxBiXNe4WYnyFRf5YzGYz9Ho99Do9DAYD/95ms7IhpCGCVkR0yQ8JaSiplYJaLdQqp+VC7h4/Hk8LMVp2XMk1LEmFGX3vikHGGBpoOycg5YcXY0TYiJ3Cnr73dITzMyncXY79n2ThmqfnIXJ0sDP3wtTmN2HLqwdgs9gx4doUflhTrumLqk/LGBX++dof7/Jmnkag7YXKaITGq29o3BU6hZZDJsQYlzVDIcR4/x2LFUaTEUbyh2Mymngh5nD0NZqMoYEKLdpDpP4TtJJSqpRO64WUtwpc7kKMVnuuRMsRFWH98xhDh6uho75idKFllxXCU9aIc2HUmrH7vSPoqOvGHf++5qy+YeeiLKMGu949wi8K3lrVgbhJEZh5ezq/xBEtbyZShxXoDM6jGcNOTw/kBh28vfqWlGJCjHHFMBRCzG6z80NFVHxR65jLsZoj+1jRHTpoZcRbKXhfHimkMpLcOHw0EoSYa+tKLli5Glr6N3T0tet9/9cjgbr8Jmx9/RCpz1L5xeIHCq2z9n2chfLMWtz2t6v4GGMFO8oQNTYEcx+YTMq9nAkxD8P1dEOu0/K+r9Qq1t/31RNlkAkxhttwtxCjRdNlqbBT52rq00O2VKCxYju0uBpFarWgYowKMFpJuUTYYCsrTwsxCitDI4uRJMKsZiuOfJOHquwGXPvrefAN9XLuuTDdzVrseOsQfMK9sfDhqXw5K95bhcPf5MIrQIXpd6TBJ1KNIjdMQqrf8V/86z87oQn1gQQOQBqJqbffiXkzk6CUElHhPO4UHByGWnz/4qvIbFJh1l33Ye7UOMhEw3HvHTA35WDXIROm3zAdPhf6Tc6MmgPrsXXjfjQ0tMOijMC0m+/Fgvkp0EgG1xEcaUJs5HhFMhhnwAsBZ8MvEtFhMgnvVEnNyDTxM15YGtIkI8lVQdGFckdSYzlY6LWwNHLSSMLQbULpkVpEp4VD5du3PuRA6WrqJUmLuAnh/HXR+it1fjxvDTMbLNj/cRaqshqdRw8SToqIiXfiibc+wHPvvoE7bkxA6a7tqG49l/8ZB1PlYWRUJeGevz+DORMiMEhNc1HYLVZYjGbSqR5AJ8jRi9rCRiTc9Dh+9fpreOjOsShe8zWK6vVX3EpQoucIztcMxqA4tq4Q4SlBCEsKcua4D361fCoEhH0VGz9sxtKQJtd9dm37N5iDbThpAEyJTIzUefHOHAZj5FB6sBr1hc38kCSNij9QbBYbyg/XorOxB2lXp0ChkTn3gA/yqvJR8kOWtXlNEAeSzk6A6pwL0w+E3sos5FUrkDY3FV6kkyqTGFB0ogK+SWkIEDTi8NefY+vqzUS8mBEUEwE0ZmLDp98gv7gBUPggKjEShtL92PDRJ9i3Pw898EZYhB8cXRXY8d0uNLaVIW9/CVSx0XDUZ+H7jz7Crl3H0GFRIjjcH9aWfOzeuhMtFQXY/uUqHC9ogCIkCv5eUlh663F8/Zf4/tt1yClohzIsAl5oJ+dnQ8KkGAg7K3Fk1efYuOp75Bc0kvsRBn9vBW+F5xHKETRqDGJjQ6BUqKD2FaMu8xCkKTMRF6Q8i7XvIjCbILZY+jqb5L6d7GySus4TnQJmEWOMaFyNPy/ARH0O5CwNX3KJspPPwZkYjCsVGhG/YFc5guL8EZLg78wdGBajDQ3FLQhLDuJFmN1q59egrCtoxp73juDg58dh4dekFMDcZYS935JIlwZHxJ8Buq4udLdUI3f3YZjtgQhW9uDAh5+iJXA6lj10DyYENmDtu9vR65uKGbPHwytsCqYtSSeKcxu+XF+F1BvuwfU3TYNp77fYkdsCu6EdJQe3IqvcQTpLUyGrP4gvvz6OyMUrccNt8yDK34qtB8ph6m1E4Y49KNcFY8EdNyDcWIYD27Kg1Xbi6HefIqvJHzNW3o3JKQq0lDdC31GDnIxyGBxWdDe1wRE0BvNvuhaxsmrs/H4vusn9O4UICi81BFYjdOTaCnbuRptsMkZFejv3XzkwIcYY8ZwpAljyXGIwrnSqjtfzi3Unz46FXCN35g4MfbcRLRUdUPsS4UG2R1blY9Wft/GhLNqquhA1LhSLHpuO2/69FOFz4iBRSp2fvFTMaC7ajG/+/Uf8++GHsbZAgXl3Lkdg9zHszHRALdOhtaoOepEK9rqdKG12wMfPCxK5D3y87Cjeehh2uRTW5lo0N+ugDtBh/6Yc9NKxP0USpi2dh/gwGWoOHIHeLoCjvR7NDT2QexuRse04uslx4qgkTJwzBTGjkpCYFAJLVxv07cU4cVSPScuXITU5EeMWXoe585KhdE485Rx2WLXtqD62C9s27kd9Rw+a2jtgJSL4dCxozd6B7158GVu2lcJ/XBw04iuvHmJCjMFgMBgMAj+0mFEDmUp63ij6Z8OkNaNoTwUfO6wsow6bX9nPi7qQUQGYdfcEXPXkbCx4eCriJ0fyw/LuQY6ItBV44B//woMPLkOg2he+/l4Qg66B2Y7mikrUV1WiqcGA6DmLEOnbX/hxRBBZ0NNUyx9TX1WDHnkyFk2JgsR5RB90VrEN2pYGNFTS46rRJYzCgmmjID2XsxYfXkgI4Vkd8jnYtU04si0HonE34ydPP4AJicGQ/kCN0PBFAoRMW477nn8RP3vmXgjyNyDzRBuutJDLTIgxGAwGg0ForuhAc2k7kmbG8GEmLgQN/ttc2ob9n2Zh/b93o2B7GcQSEQJjfTH/oSlYRsTXzDsmIHlWLHxCNc5PDQFCJaLn34h4LgcH9peBi0zHlBQv+I6ejyV33YMlV89CTNwYRAT2862S+GDUjLGQq8Mw/vo7cP2dt2DS2LFInBwHZX/9JFYjesIYaHxDkXL1rbj+rtswdWI6kqePgvocCkLkHYuoOCuO78hEm86I5qLDOJZRDqNTQfEWdiLiHAIhJCIJpArpD33ljFXY8sI7OHCsDD06PbTtjejqtvIi9kqziTEhxmAwGIwfPdQaVpvTBKvZjuQ5sc7c06E+X9p2PRpOtODgF9n45Kn1WEcEGF1jUiQVUdcvpF+bgqsen4nEGTHwC/fmrWuDccg/HxKNP4JDfSAmwkasicasG2bTsVU0m8Jx3ZN3QHjwXbzw8EP4z4vrYZQrIKK+tkp/hEX6ks/IEDr3Nty5WIONz/0cf3zkGWw82gQZDXshUSIwPAgq/pokCJx0Ne6+OR77X/o1/vjw01i1sxQCkRgimRcCg4Mg56deCiD1DkBAkC+55lDMfeB+xBj24N0nf4oPPz8OYQDN90FYVADk3pFYcMccOA68i78/+XvsyO2Gb6A/xP3vkzwaU69LQu2Gt/Dy40/i/U/zMO6un2NGqv8VJ1xYHDGG23B3HDHGlctIiCN2JqwqHH5Gkt9hV2Mvtrx2AMEJ/ph998STw4e0XFDx1V7ThTaSanIa0dnQC02ACv4R3ohOC0NoYiCqSX7WugJc+/Q8BMef28mfRdb3PCyOGIPBYIwQaCNLG0ZXkGDXa5aGL9H77mkRTH+/ubwNuk4DYieGQywVwWKy8mEmDn5xHNteP4Qdb2egaHcF/CJ8MO/+SVj82HQs+MlUpMyJ40UZtZLRmZIXE+6CwaAwixjDbTCLGGOgjIQljuxEBNBEa0AH108QsBpxyBEKBRAJnAGbnfEBPTkzlw45rvn7Dv586NBifVELanKbeAd8umRRTHo44iZGICjWny+3vJ9Sv2G09toufmZkdHoYZt810Zl7dqj4ZBYxz8KWOGJcsTAhxhgonhZitDFsNZpQazA6cxjDSaBICH+x6LRYda5gmsPZEDrsDhh7zWg40YxNL+2HVCkh5ySCyk+JgCgfftgxelwolD7nj65PZ0vu+/gYVvxpMQJj/Jy5Z4cJsRFAv0W/1Ro2NMlgMBiMHxl0AX+jwcAv5k8X8XetKTtcWIxWPnL+0dX52P3eEex6N5N3qk+YEoWZd6bjqidmYvFjM/hhxwuJMKvJirbqLig0cmgC1c7c8+Mpyx+jD2rNFHuwA3AmzCLGcBvMIsYYKJ62iNGGn1rE6tyw8DLj4lEY9FDZbbwlQi6ja5rKTlrHaMM4FNCmjjrk0xmO1Perp1kLs8EK7yA1Okl+6rw4TL8tDfKLnOXY3dSLra8f4kNWzLl7IsQXiBFGLWJUiHabzLwQNRqNsJCt2WLuE6QO1iQPFfS50nWLpWSrEEug0aj7yqBcDrFEclKUDTdMiDHcBhNijIEyEoRYi8GIetIYMoYfUXcXZCYjvLy8oHA2hHTNPyrG3CXEHDYHTDozetv1aCpp49ePpIJLrpbCO1iNpNlxiBobwq97mr+9FLf/62qSf3GxvmjzSZcvov5hS342gx/KvFBDToUYLX9UjLmEGN1azBaSb3P6KjoPZrgV3jeRlDEJEWFU/CsUCr7cyaQyfgk9JsQYlz1MiDEGiqeFmM1m44VYA2n8GMOPo60VEoOed5ZWqVVQqVQnF18ejBCjzRn1+eqo60ZrVQcailrRVNpGxFffbMbw1CA+Yr5vqBdEEhG6m7XY8fZhXpzRsBMXC/UxO/xNLmqyG7Hk5zMQEOXr3HNu6DlSIUYnAVitRIwRQUaHZ2mZpN9HZJjzSIa7EZB//JrFIhFvAZNJpaTMScnrvg6Ap4YomRBjuA0mxBgDhQmxHze2lmaIdFr4+PpCo1YTMabmrWKXKsRoMNaO+h4+xlfDiVZ+CNJmsiJybCjCRwcjMNoXPkR80fASLugQYOnhGuz9MBOLHp2BuEkRzj0Dx2a144tfb0JIYgDm3jcJsgGsHUmbXGoVcyUqwqgAszvYsORwwFu+BHT5JSLI6HC4UMS/dokwJsQYlzVMiDEGylALMdqw2cx2Pto5Xe/uzMrV7UKMc8BiNMBssYKDECLSy5Yp5KdHCu8POd5qNMEuor1ysUcqfx5S/dMFmC1mEyxEzEAggoQO10j6zx4jwsFmgclgg1SlhPis6wdeHJbmRoi0WvhSIabx4q1idJhoIEKMNlk00TUd9V0GVGU1ouxwNXSdRj4MBfXVSpweQ8RRIFS+CkjlYr6hPRM6bLnznQyytfDWLI2/yrln4HQ39+LL33yPGXemY9ySxAE/RyrAXNfR/zXFtWUMDfQZ9U/9LWE0eQImxBhugwkxxkAZaiHWVtOJ3e9lInp8GMKSA+Eb6g21v9K5191CzA5DzTGs+Wwdauu74eDEUIZGIe3aOzBrQigkZ6vcza3Y+9q7qIpairtvmcgvPdMHaZjNOjTUtEIeHI4ALzlpHJy7hgDOZkZD7k7s23oINc3d5FKkCJm2FIuunYMIHwX5bSIQLD0o3/YRPvqsBSteeg4Twk5ZlS6VSxFi1Fpk0lvQ26ZDS0UH73RP13mksxp9w7wQOSYUsRPC4RMyMD+vprJ2rP/nLkxZMRbjliZCJBY59wyco2sK+NAVy56ajaALhK3oz5mi62QzzFrjoaff35OnBZiLSx+MZzAYjBEMbawPfZmDza8exK53j+D4xiI+j1pS3IqjFyVrvkGt/0I89M/n8Yt/PYvrrhoHsclMRJnzmIvA1l2DnZ+uRjY51yFvlzk7TBYBwmfegof++m/89Je3QlxxBFnZ9bDSk7cTsXp0K77fnAmLw/mZYYZauehi3Dmbi7Hng0xs++9BHPkmFzKFBFNXjMPSn83EsidmI/3q5AGLMMoJIqCoOA9PDb4kEUZ9vGpyGvjFvP2IELwYXA3/mVteJLA0tMmJp8VXf0TPEZyvGYxBcWxdIcJTghCWFOTMYTDODp2pRqOTp86Ld+a4F0OPEQU7y+Gwc7AarbzPEF2Cpja/CXUk0SFLTi2GwR1dUc6ExoztyDeEYOzYePgF+ME/PAYR4T6QWBqw85VP0RaWighfKRwtx/Hpy7vgNT4GPdmZqO3sQvnmz7Fh7T402X0QFSbD8a9extadx1CdVwHfidPha6rA3k/ewbcff4P8aisCoiLgpRahcusHWL3+GAp2rcLm73ahW6JCe+ZqfPvOxyjWBSMhKRQSQz0OfvYWPn3nMxw6dAJW30hEh3idEgBCMbzDYhAZGQKNkjrLC1CfWwidVxxSEoMgsulQV9qCgKRwdOa0I+6qeQjVnD88w0Cw67QQWiwnZ61JeafpUwE1qYVI32XkZzpmrs7nZzXStRypMk2aFcNbsZJmkns8mpx3gIoIqYt7kHRY8sDnx8nng5E8J+6sQ5cXoqOuBwU7yvjFvcNTgp25A4NeX38/MVeiTvxny2fJfYnee1dy8QNBPMywoUmG22BDk4yBQocm6bIwl2KJGBCkWrPbzm7CoT5jci8pgmZGIPzaZGfuIOAcsHWXYs3LryCzqAeqiASMmbUAMxdPR7CoFl8/+SZ8nvozlo3xhqN2F/722yNY8ep9aP/4v9jTEYmVP7sFgZZSbHx9LYTLHsBNo4344rXNCL3xDsyNM2L75xsgTrsO8yeHoTljE/adEGDRncvRse6v+DonAiufuAk+1evw9tsFmPXEE5gR2YhPn12HiX/5C9KFJcgs0SI41B+mij34crcMT734E4RJzyY87Gg+vh7frS3FlHt+gknxPrwBgXcg78nAa49txJyX/jQkQ5M0lpOQE8Gis6KlogtVWfW8YJapZERoKRE7IYIInmio/chx1LH6XL53A4Bez7F1BXxn4OpfzuEX7L5YaLOZvekEHxCWhr3wChq4JY5+1kYEV05XjzOHMdz4kjIUKpPywv/MoK6eEGNsaJLBYHgE6kg9ekH8kKS4KZE/aKzp8jWhSYEYf1UiFjw0FWnXpDj3DBKBEGLfZNz0+xfwq7//BlfNiUPH4a/w5ScH0WU+33ieCtHpk5EQ7g+/+AmYPd8PhXmVsIr7LENiqQSGhkJU5VSjtzoXh7dsQ1lNC+rKK1DT2guIlAiOG4+42DAERscizCcS8Umx8IuMgr/YAKPJBGNXE6pyj+LYzkOoru+EpaEbZw1h67CQ3ziObauPI3DyVUiN9obQ2ShR4UNfDwU2cn86anpRdqAWBz/JwYZ/70XG17n8cOSk60fzEe5v/P0ivoNHY3zRkBODEWEUXZcRtblNfDiLoNiB+3X1x2yw8GEx6DldjAhzQcUYtYCw5JlktdlgIn8fVouFH2L2tD2KCTEGg+ER/MK9sfAn04YkTb15LGm0+6o3alFJmRePpT+ny9ZMx+y7JyF2UgSkcgm/f/DYoGvtIAJKiZCkdEy76V7cdvdC2HJz0a4bqD8aaQjIf2dKDIGzpy6WyiBXKKEOISLymsVICBrAUjqWTuRtPAxHwmLc+rP7MH1SAuRni/puN6O9cA++fnsdpFNvxNJFY6B23ruhgA4PWbrsaMvTIm9VJY59eQJZq0/w8b/GX53Mz2Bc9Oh0TFkxjh/yo0PY7qSpuAVtNV0YvWgUL+wuhd5WPbqbtIgaF+bMGTi8CPNsu/+jh07WoULM4lxeyzVk6SmYEGMwGFcc1GpCA3fSRp3OzJz/wGQkTI2Cf4TPJTe+58TUhuMfv4qP3luHgqIKNFUWIiezEILkVPj7aeDna0F17gk0N1YiLyMLPQaXTUqPmuOZKKlqQFPBYezZ3Y3xExOhEIogEVqha2uEWZOEhLRICL0jkDplKhLiwuEb7AcvjfwHou0HiCRQe4th6umG3qCH2WwFRxqc/jhsZtRlrMaH/9sEwdgFmD81GiKzHiYzaag6y3Bo3Q40dFt4K4K7MHcbUbe/GdX72tFS1AVDtwnBo/z5sBPU2V4s7Xs+Rq2ZtzzRdSGt5HxorDA63ExDk1wqZr2Fj4TvFaji/VkvBdpgdzX0QttuQOzEcGfuxeFpC8yPHV6IGU2wUSFG47d5+HkwZ32G22DO+oyBMtTO+kpvBZJnx/FDT3KN7GTj7oL2gPVWG7SkNzxoxCqEpcbDVnsMhzduwfEjRbCGz8KKexYjSKMh56BGyaa1OJZbA3lwBBSKICRPS4KwuwdSPxUa96/D/swGBC+4CVfPS4FcoYBK0Ir8nXthTpiP+TNi0JW9DVvXbEFZnQ2hY8cg1F8Nc1czLKoYjKJO9eYedHQKED0hBd4yKzpqOuGXPgvjJ8ei+8gmbN2SgS6TCArvKIyblQq1MxaYw9KLE/s3o7bVBFNjCXIP7MOxvQWwEOEXLG3B0YMV8ElKRaDSgtZ6MyInj4OfcnBCllr4OIMBIs4GpY8cSi85rEY7v/Zj1bF63kE/+/tifpZk6aEaPlHxVF/Ugs76HrRWdvAiradVB32XCYZe40mxxkemJ43q2XwPaT5dnPvo2kJ++Jo66l9K8Fg6+aNwZxmEYiG/PqV0AEFc+0PPw2a3odVideYwhhvOZITQZOIj6tOgrq6ltVy+YsMNc9ZnuA3mrM8YKCyy/o+b/s76crESEqEUIqEYVr2NCCo7b7myGKww6c0w6yx8/DC6pflGrYnf2q0OCERCPmCrwlvODzXLVFLeF1ChlpHXfe8lCgkv9iTkOCryqrIbcNUTsxCSEOA8m4tD16HH6r/uRNzkCEy9edxFD53SToDJbEaBzuDMYQw7PT2QG3Tw9vKChq536oxh55q1O9wwIcZwG0yIMQYKE2I/bi4moCsdkqSx3+hyQnaypUKNOvPTPOpoTcNcGHtM0BKBZOg1Q9eu56Pl67v7Iu3T0BYSItKoBctI8khLC99wL3gHqflgsGo/BSmLCt6XkC6BRPOURNidq0GuK2zG9y/v54e7R02PvuiGmwkxz8P1dEOu0/JrnWq8NPysXSbEGFcETIgxBgoTYj9urM1NEGp7L2mJozPhmzD6H9nyrZmzSaPvaRw5bZsOZoMVedtLUJlZj4ixIfyakHQo1GKy8n5nNKQFFXZ063pPj6FDpzROGRVmNPirkpTZ2rxmPvTKrLsm8IuHi2V9S1TR4W8aGoX6IJ4vLpk7hVj9ztfx7xd2QhPsDTEcgCwK026/A3NnJEFJzueHkoLcE0MdNr/8KjIbVZh5172YOyUOMjcsW3VhHDA35WL3YROmXz8N3gP8Tc5hRNPez/HS6+sR98h/8eiS6EE7tzMhxrhiYUKMMVCYEPtx4+5Fvy8EHcrc+MIeXiAte2oO5Ko+vy7qU0aD/1qMNmjb9USY2WDoMvBbXYcBDiLKDL0m3hJHh0etJL+jrpu3srl8D6lQExPxpfJTEvEm5i1q1AJHyzf1QaJDpFScqUg+nckrUYhhtdvcI8S2v4PPdvvh3j+sQLBYj9Id32LzIS2WPPIAUiM0ZxFi5HoKvsE/XurGfS/ejQiFCFKZbMjCk5yOA/qaTGzfZ8Cs2+Yh4Kyx7M6EiNbmPGz8dBWK8nLhe+dr+NlVMVecEGPO+gy3wZz1GQNlqJ31L4RbnfUZF4/RAAl5Bgq5AjIiwGRSKREtfSJsKBpCOpxYsKsC45ckITz5VP1EZ9dKFVIimuT8jE3/CG/ed4weQ9etjJsUgahxIYhNj0B0Whgf+665tB3jr0pC8pxYvq6jIkyilPATCHQdRn5iQUNRCyqP1vOBaWtyG8m2AbV5TfxkhOrsRlQfb0BXhxYiIsqk6ksPkNtbmYW8agXS5qbCiwgqmcSIohMV8E1KQ6CgCYe//QLbVm9BcYMJgTERQONRbPzsG+SVNEKg9EVUYiSMpQew8ZPPsH9/PnrhhbBwPzi6KrBz1W40tpcj/0AplDFRcNQfx+ZPPsGeXcfQYVEiKNwf1tYC7N66Gy0VBdjx1WpkFzVBHhwJfy8pLL31yN7wFTZ/twE5Re1QhkaQb+9Acakd8ROjIeysxJHVX2DTqs0oJJ8TB4bBz1txmih0WLQo3bMXDfJoxKAO3RHzMCWhL9DwoDCbILZYePFPV3ZwiTDmrM+47GEWMcZAGQkWMROpiI1mCwxEFBgNBphMZlj5uEK2vuEuhtuhjZxQKIKYbKViETQaDZSqvmFJusyRa/aaO6E+Zvs+zkLV8Xrc8/L1vNP+pUDLxNE1+SjYWYGbfr8QPqFefB4/pEm21HrmoEObzvd0iJNa0HpatPzEg87GXt4y19uqg1FngoGzI/qmZPjEX9qkAUr99rfx8VYlbnv6WgSJtMjf9C2O1vrgugcXoOrrT9CVeDWmjvFDz4m9OFgYTPJnwHrkY7z2tQwP/+sW+Dcexlfft2LuigXw41qR8912iK59GPMDqvHu396HLX0Zli+dDm9jEVatLcGEaxchTK5F4aad0I5fjnmhlfjklTXwm3sb5kz0R/G6tWj0n4NbbhmPgu/eRV5vPGYvGQd7Ywm6xaOQ4p2Pl//bi5/97x5IirNR2mBEQJAKTUe3I8+Sgrvvvw7+Kld8Pw69NRn4/rsMJCxfDv2qfyIv7fdXpEXM/TZgBoPBGOHQylZCKl0FafiVpAJWk16xhvSO+UREgZdCydIQJY1CDrVK2TccSQWYyxohGJrmiIasqM1vRsqc+EsWYRRq8aqhEfkjvHgRRuHLkUzMz9iUq2X87Ew6VOkVqOb9x2j4lFHTojF6QQJm3zUBix6ZhhueXYAbn1uI8b+eNSgR1ocZjYWb8OXfn8U/HngQa/LkmHfn9QjqzsKOTAc0ShPa65pgkmhgr9uB0mYOvv5e5D74wtfbgeIth2Ajz8De1oC2dhO8gvTYuzEHWtoPUSRh+tL5SIiQo2Z/BnR2IQRdzWht0UHpY8LhrVnoJseJo5Iwac5UxCYmIyk5FObONujbi1GUqcOk66/G6NRkjF90PebOS4Yr8gnnsMOqa0fNsV3YsnE/Gjp60NTRDgsRryex61C8Yx+sUQuQEuc3TMOnnoEJMQaD8aOjzzIj7PPhkUr7YnepVdBo1LyVhvaSWRqCRO8tEWBq6hemVPHDQnRIkrdECN2/zh+daUnjj9HZk5cafNVFe00X70eWMDXamTMSkCMy/WY89K/n8eBDVyHQyx9+RGiJOQcshlY0lJSitqwUDbVaRM5eiAif/jHP6MLjFvQ0VPHH1JZVoEsyCgsnReL0KGwcEU5WaJvqUMMfV44OLhzzpoyC5FyGY4eNfLeQn7zwQzjYtU04sjUHwnEr8OivH8CEUcGQnHGooyMfOzYdQ2vpbmx850McKWhE7a7vkZXTCMsVZrBmQozBYPwooY0+FQDUWZn6itDhMWql4cUCS0OS1EToqslWdZbhSHeLMIrFYEHFkVqEpwbBJ/Ti14TsT1dDD0xaC79iw4hDqETMvBsR78jGgf1l4CLTMSXFG/7jFmLpPfdh6bVzEBc/FpFBylP+VRIfJM4YC7kmAmk33oUb7r4Nk9PGI2lqHFT9H4VYjagJY6DxD8Poa1bihntux/Qpk5A6cxQ051AQIu84RMVakb0zE+06I1pOZODYkQoYnS6Z9FkLiJhyCESQiGjsNykpA6c/f4F6FG76v99g6ZKZGD05DeFBGnjHjkJoiOYMoXj5w5z1GW6DOeszBoqnnfUpLqsYHRKjgswVYZsm6i/C0tAl/j47o5rzw5JOIeZuMUYd54v2VmLCtakIjvO/5O+nscpomaUrNqTOjednQV4qvF+Z3e6WyPrG1mo09nojZVI81CoivLzNqMitgm/yFKRPDkPVxk+x5sMvcDCvC9ETJyIsSAVHVy3KGtVIm5OMoJhERElqsOHN/2LTqr1oQhBGpydCae9BTWUvwtNTEeJFOihhcYj368H2/72OdV9vR61Bg1Hjk6Cyd6Gh1YLo1NHwUwmhb65Du9UbyenjEDc6Cr3ZG7D+oy+QWwkkTJ+EIEkXymvESFtKF7sXoGTd51i/bg9aDETv+UcjnX6nrO/eCiQqBISFIyicJn9YG8rhGL0U01MDMOhoG8xZn3Glwpz1GQPF0876FFfV94MqkNWIQ8sZ7Zyr4XN3A0iDva7/5244yPNd8rMZ0PirnHsunraqTmx4YQ/SlqWQlHTeOGEXggV09TzMWZ/BYDBGALTCpYm3ivVPpJFlaQjTGffb9RzcDXXS76jv4YcSadiJS4UK9e7mXn5JJbowOb0GBsOdsBLFGPHQipClkZEYjMsBGhn/xN5KCEQCJM2K5QXfpUK/q+xILfwjvfnZkAyGu2FCjDGi6S8CqEnfbrfzMaBYGr5E73v/50ATgzGS6ajrQsOJVoyaGsWvKTkYrGYbH6A1OCGAX+aIcfkjoP94a6wzw8MwHzGG2xgKHzGT1YpWk5l/3V8EsGI79MhJReUt7nNgFQn7wgu4ayhpJPiIMa5MaCDVvK0lOLIqDzc8sxAhowYXq4s6/H//yn4sfHgqEoiwGyy0Y2O2WJCv1TtzGMONQNsLldEALy+6zqn6tHVOh2KY/EIwIcZwG+4WYrRo6kiFdaJX58xhDCfUjhAqFp6cSUgdWd01s4gJMcZQQWN97XwnAyAdh2VPzuIX7x4MO/+XgabSdlz/u/l8sNbBQoWYhdRr3aSDSZ32TUYjeW+GmbymFn86FMoYGmhnUiQSQ0q2CrEENG4gddSnsyeHcomtC8GGJhkjFirEWKXkOeiwpEGvJw2FCTZ+6R/7yWFKBmMkQssmddBvLu9A6tw4PuL9YKDR9BuLWxGa6N5hSdqh0UjE8CKJbtWko6OhwoBune9Zcn86eX9lcihVSj6GoIjk0WW3PAmziDHchrstYrTR7yW9xFI2zdsjiE1GqAx6KBVKvtcok8vcth4gs4gxhgJaZ2x+eT8voBY9Op1fyHswVGbVY+c7hzH/QfcMS1Jok0s7NTS8htVq4Ycp6RqnvD+mnXR0WPyUIYP6htFZr2IihKkFjK6qIZHQBedPBRVmQ5OMy5qhEGI9JhPK9EZnDmNY0ekg7emCWkWjzff5Ucjk8pO+FIOBCTHGUEDDTHz1f5uRfnUKXxcNNtTEwS+yUbirHPe9dj0f/d0d0CaX1m2uREUYFWB2BxuWHA74ECoCkqggI51K6v9KX7tEGBNijMsadwsx2mukQqzcYHLmMIYTR28PRB3tUKs18Pb2glKl4n0pXIEPB8NIEWKs+hs5DLYBpM8yc1U+CneX46onZiMsKdC559LQdeix4+0MfqHwa34115nrHqgAo+dLU//XFNeWMTT0F1w09beE0eQJmBBjuI0hEWJGIsRIYgw/tu4uoLWFn1lEI1DTdQJds4sudyHWv9FzJdd7xvDR3zl6sA0hddJf87cdCE8NxsKfTHPmXjq1eU3Y/uYhTF+Z5valuM4sbyfLHSt+Q0+/IuYqc4Mpd+6ACTGG22BC7MqCCjGupZkXYj4+vlCpVactBTIYRoIQ01ms6LJYTr53VYWsShx6NCIhlKQM8bNwncNE/UXZpZC3rRQHPj+OG59diNDEwVnDqP8WDYGRvakENzy7AH7h3s497uPM8sbK3fDiKmtMiDGuKJgQu7K4koUYHQ5qJeWq1sD8Dz1BgBDwI8KLOkzTsuTy1aHhBS6lUdR1GbD7vUwYuoy45a9LB+0bZtKZsePtw6ScAAt/MhUqn0tfIuls2MkXl/Zqne+csJZ42PCWiBAok50UYS6fV08JssGVVgaDwbgMof1P1gf1HDQkilarhclkgtXiDI3CXVpoFPqZtspONJe1YczihEGLMIqh14T6olZEpAZBoZE5c90DPV/aEdBabacnG0vDlfSkzNFYbq6VQ8700xtumBBjMBg/UpgQ8xS0ETQYjTBTIWbrE2KX2gjazDbU5DZC6aNAeEqwM3dwNJe2Q66SIijO3y3C7kw81eAz+qACrK8TYOGHoT39PJgQYzDOgqO9AF+/8E+8/efn+qV/Y9P6bPRaHc6j3A0Hm6EDFQc34Mvn/453/vkituzOR6/R5tzPcCesLfQcNH5WX0R5p1WCxs+6xAei7zahIrMecRMjofZzT9DVqqx6eAWq4Bs6uDhkZ4NeJyt7nsUlxCwjJFA1E2IMxlkQeMdi/m134roVCyHuskCeshDX3bMS02aMglI0NH4EnN2M2sPbsGdXFQInLsLcOQlo3L0Ouw6UwWJnNbc76WsM2T31FDab3SnCSCPotIZd6vOoyKyDgPxNhqcEQSwVO3MvHX2XEU2lbQiM9YPS272+YS5Y2fMsvBAzOlcMofHbPPw8mBBjMM6CQKJCUGQUwiLDoVFpoAkKQ1hMFHy9BeiuOYG8Q4dQkF2M9h4jHOSP2NRZh8rcQlTlZyP3cAbKKxrQXl+OwiOHUJhfDZ3FTmpfK7prS5B/8ACyDx9DZW0HSO5JBCIZImdejzt+9RMsWDgVyVPnY3KCAo0llbDYhsoKx2AMP9QCQS0RtBF0OIgIu8RhYrPegsKdpQhPDuSXIXIHtflNvNN27MQIfvLAUMBx7O/Zk1AhRtf2pBYx3iLLLGIMxuUBZzOiPnMv9mzei9LCQhQf2okdWw+gpdeMjoJt+PL5t7FvfxZOHNiIb159E9t3ZKAs9zA2vvc/ZJR2wmZsRhERaSfyClByaCtWvbEKddr+w44CSORKKJRy8ofJkeN70dxhJiIwEOIhssIxBgMHh1WPpvx9+P6jd/HN/97D5o37UdPcSwTGuSp1I2r2r8Xh0i54tikm527uQfWxndj4/tv45r3PcOBoBaynnTcpg6Ye1OXsxZaP3sN3732MA0dKoTP37z5cGrz0og2fs/G71EawOrsBZqMNCdOiyN/O4NaVpNhJh6ehqAVSpQSB0b7OXPfDLGKeha5gYLPTIfHBl2V3wIQYgzFALD01yDyWD1X6Vbj+gQdx3a3zIS0tQmFJG9krgiowHpOW34br7rkRgeJOyBJm4ur7HsSYsG5UV3fALpJCbNOjtbERDo0KtuLjqGq39n35GXCcHY1ZO1HYpMDoiaMgYULsouhu6cX+z7L4ISbqjDskkGfUcWIvNn+9A73yMMREekNbSt5vOYjuc/r1mVB3aBOOVnQ73/fDUIVt/3oPhS19sc2GFI50KvZ8g/U7CiHyC0ewvwMFX7yPfcVdRCI5D7Fb0JC5DdvWHIFBGYLwQAEKv1+L/UeqRsRQucVoRXlmHT+rMXJsqDN3cPS26dBa3cXHIZOp3LOk0VDSlvUdnn/sMfzDmV758zvILm87Q1D3h4NdW4XNLz6LV/75Pgpru0+zyg8tNmhri1BU2XayjJ2fHhx89Tcnr+0fj/0Mb734JWq6zl5nXgx8R4C3gpHXI0AUMyHGYAwQq6ETbbn7sfXVP+CvDz+Iv//meWQVV6BXT+OcCSFTaqBRKyCWKSAnW5WXGhKJDDKZiG/U2jLXYV2uGIsf/TnmpkeSCtCMH3bISEVpJsJt7zdYs64Gk+65A+PifCD0UHybyxWryYbczcX49o9b8eXvvsfhr3PR2dADY6+Jdwx3BxzpUTcXlaBXORYzly7A5KU3YcVPn8Jdt8yDj1wAXXsLOrsMoG2iw2ZCV2szeg1WvuK36rvQWlOJ2rJKdHQbiFg0obO+HEXHjqKsoo6foME5LOhpqUd9eTnqa5uhM9EGyAFLbxuam8h3N1SjtrwKrR3d0He28Mc1NXXAbCMNjN0KfUcTGirKUVtRjU76G6c1znKETbsBd/7sYSy9/hrMvv4mzJtow9795TgZWU0oQciEJbj5yUdx3YqrMe3q6zEjQYyq3BMwWS79HtLrt5sd5B6QvwCdFSatBcYeMww9Jhi6jdCfJdHnZiXX70pUhNHI901lbUiZG88HS++/35Vsloub6NJe20Xumx6p890bSX+oMHe2w6aeiTv+9h889c8/YHq8Hrs/XY2aNuM5xI4ZtTs+xSHhLNz2kxsR46cYPhHAmdCaswf7MsoxsK6GFe1tbQi96Vf4xYsv4pcvvoAHfr4CkT6D9wMcabCArgy3cSUGdOV6KvHN819DvPhWXDse2PLpd3AkXY2rFqZCYtOhq9sCjZ8fOjI+x/otVlzzm3sRjFJ889J7CLr5GSwZq8ZO0qurir0Psywb8XnjNDzzs8WQdeXgwyffQ+xfXsSiBKdDMEcb2Qbkbf0e+w61Yeojj2JqSgA8Ve0MdUBXaqmacG2qM8e96Dr1OLqmgAigU9WbwluOiNHBiBoTAv8YH9j8ZWjhLt0ewDmsaDn+PdZ8theiuNFIGj0a0YnxCAnxh5TTY/+7L6PU6xrccddEiDqKser9L+C74Faotr2A73VjMDbQit42co8DRmPB8uloO7wa6z85AN8lN+G6265DaNcxbNt1AmajAZxUCU3MDCy7YRzat76Dd7a1YcIobzTVNEIvi8CYRF+0lhSjyRSGZY/di7EBemRt2ojiaiLMDHoIg8dj8Z03ItZf3n+FFyd0mLIFB1/+J3LHPI5Hrk3A2Qb57EZyzIcfoVIzE7feNh1K6aWVAZvZiubt5dAVtUEslUDsjLAv4KPr07P74RnS9R41/qdmRFK/staKDjSXtSN5Thzp+JzdeiWRiaG6iJmUVNzRGZNz758MNREpFwsdHpUqzj9ESv2RqG9Spd0MqZcckkEsJl6//R18ttsP9/5hBUIVAmirD+Gzz/Zh/K0PY1KYA1U5eWhq1UEaEo/UtAQ46rKx853XcFg+D/fcthwpo33QVVqAspIGONRBiB4zBlEhaphaK1FS1w2N0AqtNQIpE4OgrylGcX41rHJf8nc0BjHhvrD11KOsvAFysYCUxWZAHYyE9PEIIffOYexCbUEu6hq7IFBHYNSEFMg7S1BhDcOE5CCY2mpRmnMCHUSQq4LjkDguEb7kOZ56+u1Y/4ffomfJX3Dn7HC3CkaupxtynZZfuk3jpTmtXvNEUFcmxBhu40oXYjfOCkdbwWEc2nsUzT1GCMVKBKfNw7y5adBnfXkBIfYobknvwpr3NqEHagQFiFC2rQQzX3nzpBDjrAaUbH0X7772PayBcUhODCGVjwgBU6/GtQvTIJcMrwF7qIVYe02X893wIiL30Zs0NsGzI+E3J8aZeylQy44WjfmZyDmajXLSIOnNCoy+diWWzI7BsY9ePbsQ2/ESDoU8hEdvnQiVowN7ScNYGbgCdy6X4quff4ykv/0D070r8PU/VyP43ocxNzUQjq4irHvhWwQ9+Diiiz/D/zLk+NmTd0HdcRjv/Gc3xv/0UcyNMmDVS99BedUduDpNgtytm1FYZ4VfuAJVmXkY/cAfsHhswA9ljt2A2oPf4rM1Lbjx/55ASqDcuaM/DjQdWY3Vqysx4Z77MIWck+gSGyxqpeo8VA1jZQfkchkkRIzxZUos5oXY2RpCQ68ZJq3Z+a7PSb+5tA2+4V7wClSTluzs50IX7qbW0YFAOwb6TiMv+vgI/5fgqM8LMfL580EbXOqjZNUIEbYgDv6kc3Cp9BdiwWI9SrZ9jS1HDFj6kxUw7f8ORYYQhAVKYe5sQrdkPKanC5H1wWs4pFiAe29ZBG9dNvZm9yA8whecsRNVDV646uFlEBetxXvvH0Lc9NlIHD0JIdJyHDhcj4DQAAitvURcSTD1lmUI7j2Ej19fC+/x8xDtx6HmeBFkE67H9VenoHrX1ziYZ0D4qFA4tFqo49PhX7cWqwzz8af70smxR1BS1Qup2Ijq/AYEzV6OxfOTiahz1XNEiP3ucRT6zkaUsBMGmz/GXXcD0lNDIB3kJAomxBhXLFekELNboO3UQqDSQE17ug4rDD1d6NUaAaEUCiJQNCo5HKZe6PQc6UV7E+lEP9MNkcYfKpkQhq42WCU+8FKR153t6NVZIJaRXrCNIz3BEKikfRUP9Qsz9XSgq9vAv+9DALGXHwJ81E5rwfAx1EJMLBVh6eMznTnuhQ5Dfv/SPtj7xXyjDSsVYbThHjUzCpqxgTAGDCI8Aak6afVJk91qhlHbhbrM77F6px43/OJWdG547+xCbNeryB33f/j5slgitDlUrHsNq3NicO9Po7H+qU+IEPs7Jtn24/nf/w9aGbnntGEiZcOoNWHsk//ErJ71+KAsGn944gZw9Yfw5gsZmP3bn2CSpgPfvfgVBHNvxnT5UaxZ34qJty+Bd0cWVn15EBN//hcsSwvqJ8ToZAMjOeeN2LitHKOuWYkFk2Igdi730ge5PrsZHcX78N3/diNqxYOYNyMOCnJOl1oa6f2yNDZC2KOFjy9pCNWkIVSpIFfI+bLlWm6mPw6b4+SQMv18wc4y5G4pxfyHpiAsuf81nY7NaudFz0BoqejgF/meffdERIwO4X/nYulu6uWHTc8HtebRuq1eYIUyzAuKQcQ+q9/+Cv72711EkPpCYCb1RsBYzF+5EpODK/D2f05g6bN3I8FXCktnETa9sxlJDz8K5fbnsdb7fvxuiYwI97VQLroO8yZEAJYWHHnrf2ib/zPMExOBtbUdKx66F7GaXmx7+2v0Js7FVfMSIbZ3Iefzj1EWewOuT2jEZ18dx4w7H0F6vALlaz7CzuogrFiZgB0vfIPw+36BWWODyHcbYKHheUhZ/1I/D3+8fxLqM3dh9/d70K2Mhqa3Aba4pbjzvgXQkDqzjx4ceON5lKhnY+aUKJgqMrBrZzUmP/Q4ZvAdAedhl8BIE2I/LPEMBuMkApGUNNz+0Cil/B8ofa/yC0ZodAxCI8Pgo1FARBp4idIbvoE+vFO9UCSDd2Aw1LRnLRDyx/toZKSBkUAdEIqwmGgEhYYiiHzeJcIoAoGICLsgsj+mXyLH+mmGXYQNB9TyQBdTHorkHaw+adGgw1aBMb4YvywJy387H3f8+xpMuWksf9xg4Bw2NJdkIjuzDNRYoyJi1T84CAryTB0cXb+OOpQb+Mjxhq52ItSdDbTDAVNnB/TUj8nQgfqaVqjCyOckpHzBDqvVBrF3MGJCxmLpb/6DP7z7AZ5750088+b/cPussAEIIAc6aqphDkhFYmoy4tLGIzzwzOEvGjy4HUVbv8CadUVIvvYuzJsYS0SYgLfMdja3wWCxwapvR/H2b/HJf3ch7p4nsHhOAi8MB1Ma+/6OyP0h10uFsYgIcrFMxA8jnitRx3mFl5xP1OpUfqSOjxsWlhQIpTP/bEnjr+KF94WS2l+JroZeaMjr4AR/+BKBdGaZGkiKmxSJ5NlxF0ixiJ8eCf8xIYMSYX0oEDPlbjzxxsu4dUkifBKmIo0+R/Lc6qoPYO3zf8Gbf/gD3nv5S7SqfEjRODUUbzPp0EkE2v6PX8Nb5Ji3/vo6jtPJQ6RcU4QKJREocoCI9Z6uEhz99h2886c/4s2/vIxDFV2kH0ld3snzlJJ7TY6ja4VKaBw3zgG7vpN0OOWkTvSGWCSERKEmHTk5+v4kORgaC7FtWzaCrn0Sjz68DIFKDtYfCF8vzHjkz7j/3quQnJKKsYtuwNhY0nEpbRmgj9nlAxNiDAbjisQ/ygejFyRg9j0TcdWTszD/gSmIHh/GC0D3wMHS2Yh8IlS+evMNfP3Wm1i3qRARUycghjRAoQkRMBRswpo338Pu3Vlo7XYJMTs6Cw9g22fv4evXXkdubwRmLh0NldIPYdEOHFn9HXJbvLBg5RjUb/8Gq99+C9+8/zkOZlbAMiAjjQihYyfAp+sgNrz1DrZsPoRW7Rm+cA49qrd9jS/e+BrNJgeaMjdh3btvY9vBGmjbirH5/a+QX0Ma84x1+PSNb9DgADqOrsXat9/Ftv1FMFkv3bdusDSVtKGnWcs/S3cFXKVhvSqz6hAQ5QtNgNqZexkh8kbKNTcjqH4vDh+tgyh8NNJTx2Huo8/iqZdewVN/eQa33HEX0uNOdT6kPqFIShiN0dc9gMdfeAVP/+svuOPnv8INRCT2F9pilR/iRo1DyqKVePRfL+Lp5/+Oe578FVYuTjmngBD7RCEszISSrGL0mszoritBeWkzXHM87BYjbKTD6uenhkTjj8AAX/zAU87eixNb1yErvxpavQ5dtcVoaDbDL1BDSviVheg5gvM1gzEojq0rdPZSg5w5g4MODZhtNnSSxBh+HCYTQCpAmUwGuVwBqVR60nx/tuGjiyFvaylv6UidNzSz0+h3R44JQcJU0iAkBkLlc3qDTR2m9XSh5R9OWx0wAnIPNKExiB0Vg6CQEASExyB+wlSkT0iBl1IGr5AoRMVFwD84DFFjJyJtcjpioyKJQBuN5LTRCAvyh19EItLmz0N8uBe5ryoEJ41CSEgQgiPocYmICCbCwMefCIR4JKTGw0cth8I3HPEJ8QjwUUEo80JEYjzCw/zJc1IiIDYG0bGh8A+PQmRcGHz8AxEcm4yxU6cgPjoUSpnoZCMrlPkiZspMjB2XiJCwUASEhiIwLBz+/j7wDQlFcGgQNF5+iE6bjDRyTdSKGxAaQo4Jgx/5bWoJvlTsOi2EFgsUCgVfvvqXrQsNDWV8lweb2Y5pt46/oGP8QDH0GJHxTR4pL5GIHhd6wXMYDLRes5Fy12o5/xDmQOitzEJetQJpc1PhrfGD0laBY4erETpxJpIjzche+x22r1qNQ0eroYpKQmSEAh1Zu1EsT8ectFiERKrRenwnvv/kC+zdm4UOhz+SRkfA2nQCuTVWjJs4Ht5qNfzDvKArP4zNH32OPbsy0GRUIy4lCqLeauSdaENs2iQEeQnRVZqL8g45xk6bjNBQEcp2rsH21etwLKcF3qQ8KzvyUWSNxaKZyRASwb/ru++Qub8QLa3tQGASxqfHQSY+de+1dTnYu+pb7Fq/EUeOVCNkxnWYPTsFmn7l+JIwmyAm5U8ul/Plr3+95omhSeYjxnAbV6KP2I+ZofYRU3jJcPNzS5w5wwuNpt1iMKLBfKUNclweWJobIdJq4etLhKbGiy9bVJTRsnU+kV9X1IJt/z2AtGXJmHBdqtsazbztpchaW8hbTmkMsaGEdgJMZjMKdP19QS8Nh81KRJ2A97ekd83hsJGyzUFM7qMAjr4lfKhvnUDEz1AViUiu1QI7xOReEzFDhxHJd1iphVMghFBM8sUiftidht8TS8R9oXOITKDH2UjnhSPvhSI6wYLUAZwdVpsDIjF5bvQwuw305+jn+CFKGrmeZvDDluScyH4rRJCKhfyxVrKfI2dOf0NA6hQx+e1Tz5QjX0G+nwhW6ldHz09MBDvtAAz2uTMfMQaDwWAwLhLqeF+b0wibxY5RM6Ld1mDSSQBVx+v5mbQBUT7O3MsDIRFAUplTLJFEBZJUJuV9SgVU/MjkkBORIVfIeF8t6oUoksggpSKMfgERN/R93zFykk/9Wp3fQ4TTyfiFZCuSSCHjj6PW8b7jBEIxb810iSN6Przg4vdR3z/n78tl5BgiuOh30N92HitTOH+Xzp51/vYpnN8vV5w8P/4aTjvmyoAJMQaDwWAMK1QQ8A3qRTSq1C+svqAZUeNC4eVGP65u8r1d9b28JcwdyyQxGBcLE2IMBoPBGFbo8KPQ5ZMzgKEmarVqrexAd5MWYxeNcua6h8biVpj1Zt6fkMHwBEyIMUY0V6AV+rKBHz4QikhDSYcD+t5fSUjI9ahIkjnsvOOu0GQEDHpweh0cLA1JoveW3mMxx/U56IvFvF8OHbY6X/myGKw4sa8KocmBfGgJd0GDyzYQIUZDXQTG+DlzGVc6vEXWWa+NBJizPsNtDIWzfq/JhDIDc9b3BJy2F+LODqg1Gt5hX+n05xA7G8/BMBKc9WmymC3QE2FgNBhgImXNYqHOzbZLCubJuDC8uKdO2SLqWySBWq3umzkpl/f5GjmtZGfSUNSCjS/sxfSV4zFm4SjyHe6xIdC1Jbe/dRihCQGY9+AUZ+7QQp31zUT452v1zhzGcCMgdZvKaODrNZWzDLominiiw8mEGMNtuFuI8bOLSIXVYzLDbKbJBLPJws+0cTjsrLEcQmhlRGeRS8gtVqmUJysrV5iB881sGwieFmJU5LvEmJkIMFq+6Pp/dFaYnQa9ZEVrSKDlil/hgDpyS8QnyxRNVODzQ5ZnKVu73j2ClvJ2LHl8Jvwj3OdQX3G0FtvfzMDVv5yNqLGhztyhhV9rktRrXc56zWQ0kvf0tYUvlxwNasYYEmiAbSr2paSMKUh502jU/IxJGsaCzjRlQoxx2TMUQow2lFR4UWsFL8ZI5UUrMSbEhhZeiJGKSiyW8JUUtYTx8Z4kUt4acbkLMVq2XImWpz5xT5fRsZMtK1dDCW3nqFWMDkfyZYw0gLyVlR8G/6G/WHdzL7790zYkzYrF7LsmuK2htJltOLIqH3UFzVj2i9nwDhqeQK60nFHBRcsdrdOMRIjxHQFeiPVZY1nVNjTQ2aQiEQ3dIeatsLw1ltRrMqnsZL3GhBjjssbdQowWTboQL7VQ0IbSJcr4XiOpzFjRHTpoZUT9w0SkcqINJbWC9QmzPqvFYCsrTwsxWnZog0i3dC1C28kGsC8xhg5X2aGhEVwO+650Zrmizyjzu3wU7i7Hdb+ej6A49/lx6buMWPuPnfxalTNuT4NM+YPY7kMCLV+0DqN1m9VKxJizI8CsscMAKV68NVZMLbI0RIeU71zy8dKc5W+wddulwIQYw20MhRBzNZZ2IsLszp6kK48xdLgqJFdj2edQ3WexuFKEmGvbP/Vl9m0YQ0S/otO/LLnKXH9623TY+vpByBRSXPv0XAjpAuhuorGkDRue340590zk14B0rU061NByRuswV3J1Lvl6jVljhxxq+aLljNZpLkusK+9sZXA4YEKM4TbcLcQoLtFFKyi+AnP6T7BiO/T0r5T69xb7518qnhZiFFaGRhZnlin6fIoPVGHvh0dx9VNz3O7DdXRtAUr2V2HxYzMQHO/vzB0eTtZrtE7r95ri2jKGhjPrsTPrNk/AhBjDbQyFEKP0r6BYcR1++ldQ7qqoRoIQY4xs6PqPez44Cm2HHtf/dgHkGplzz+CxW+348pnv4R/ug0U/nTbsgVz712n81mkJIzUcv2UMHaQ2c704Wbe5q167VNxn52UwhgjXHwrtufBDZCwNa+rfY2QwhgMqUDobetFU0oZR06IhcdPi3i46G3tg7DUjLDXIY9H0XZYwuqWWfuofxvuOsTS0id5n52Qv/t6fYZH0BMwixnAbQ2URY1x5MIsY43zQZmn/p8dRnd2ApT+nQ4cBzj3uIWdLMbLWFeH6Z+YjIMrXmTt82IggKOvVOd9REdC3ZQwPGtLBDKBraTo7957ubDKLGIPBYDBGFDSSfvH+SkSnhcLfzULJbLCg6lg9vINVbo1JNlCoyKRWGK3N5kx26Igw09kdLA1TMlgsfEgkG50oQe6/p61iTIgxGAwGY0RxYl8laPDN2PRwiCWDW8XhTDrqutHTqkPcpMhhmynZn74G3/mG4REsVltf/DYiyPqHrvEUTIgxGAwGY8Rg0plRfqQWgdE+CE5w75AkpbO+B6ZeM6LHD08k/bNBmn3nK4YnoIFzaXBw3iJm77OIeRImxBgMBoMxIqBWibq8Jt5qlTI/we1BVk1aMx8/zDfMGyo/pTN3+PGk9YXRt9YsXTKPLmtGhRiziDEYDAaDQbBQ/63sBl6AJc2Idua6D32PkV+zMnZSOCQysTN3+KErgzA8h8NOA+na+EDhnhZhFCbEGAwGgzEi6KjrQcOJVoxekODMcR+0se1u6oVRa+YDuIrE7vU9Y1w+0KHhvvWKR4Z1kgkxBoPBYHgcm8XOL8BNG8ao8SHOXPdB29uqrEb4hHpBEzg8C3wPNW1Zq/Cfn/8c/3SmV//6LnLK22A951JJHOzaamx56Q949d8foLC2G3bnnqHHBm3tCRRVtg3YQ85u7kbpjs/x9u9+ged/9Q/sPFIBvfXKsyYyIcZgMBgMj2PUmVF2uAZxEyPgE+LlzHUfDpsdNbkNCI7zg1egypl7eWPubINFOQ0rn/snnvjrM5garcWuz1ajps14DrFjRt3OT3EI03HzA9cjxk8xfCKAM6ElZzf2Hi6HxZl1XjgrKrd/inWbmzB25U9xy8ppMBXnot0wfNJxuGBCjMFgMBgep6GgGYZeEyLHhrrdSZ/SXt0Fi9GGwFg/t4fEuBhoHLOuRi2Mba6AroNBAJFYBrlKBZVvGEbPmQqFuBOtPQZY9a0oPbgTe9eux+HDBeg2GtFZmo2j+wuh66hDe5MZYrkdLSeO4sDatdi34xBqmnvg4OwwtJYjJ+sYKrIzkJNZC5PNhI6KXBxavw77tu1DRV0nbA4HTF11KDiWgfKcI9i/bh3278pAY6eBfAcHm7ETVUf3YN+6tST/KJq7OfinTsWUidGQcDYY2qqQu/177F63AUcyCtGlt5wuHi31OLa1GAm33IGpaUmImTgPS1deg3Bvz6yEMJQwIcZgMBgMj2Kz2lCwqxxBRCSFJro/ZAWlIqueiBUFwpKCnDnDg1FrQkNRC/K3l2LfJ8ew460M7H33GOo2l8NmsjqPGjwOqw71hcUwWVXwUZhRuP4rZJ5og4386yrZhy1rjqPXyvErLfIR5DkzmjO3YPuuApjggLmtGNu/2I4Gcr49lUew4e0PkZFdDYvDgvaCvdi2NRM6qx2WrirsX7UN5U29MDTnY/uHH2BfZjlMll6U7ViPPeT7jCYdinetwfbtuegxmdFZlY+ivArUZqzHun2l4Kx6NFeUoZGIUbupEwWbNuDA4XKYbaeGHR0dVahu8YG8+zjWvPxvvP+ft3GksAnWfsdcKTAhxmAwfrS4Zkyx5NnUUt6BrsZeRI0NhcJL7nw67sNCBE9tXhN8Q73gFeTeYUl6/nYiDmwWGyxGK7pbtCg5WIUDnx/Hqj9vxzfPbsGW/x7E4a9zUXaoBlaTDaHJAQiaHgGRdLCWOSOqMz/Fa4/ej9/f8yA+29yA0YuWIsyUh2277Ri9ZBGmLVqMafMnwJK/FS3KGCQlhsBnzFSkRlqQ8X0ZvMdMw7SFizF9yRzEGI7gQF4rb5kSRyRi0pKrkJ4qRd72fCAsDVMWk+9bPA8JohIcIiKNHicMiMKYuUsw/6YbMWNCGLqqq6HtKEPOjjIkLLsVS2++BctuvwVTJkRCysfPJc9cIILIbkRz0WHkl3eRB9SBhopGEJ13Es6kR2NXMYpLTUhctAwTx6iR9dUHOFbSAftAncwuE5gQYzAYPzr6iwAazNG1IDCNL8TS8CV6761mGwp3V0CqlCB1QcKQrPdHFw/XdxowaloUv67gYLATtaDvMqC9tou3dJVl1BCRlY1NL+7Dp79cj6+e2YzDX+WiNrcRErkY8VOjMP32NKz402I8+PYK3PDsAky9bSx8RgVAMMhzARSImXI3nnjjZdyyKAHeCdOQPikOYn07aqr3Yc2/nsN/n3kG/3vhM7QovOkil87PkZcmLTo6C7H/g5fw+v89g9efewXHWkxw2G38fqFCCZWKiGKLEd2dxcj85i289ez/4fU//QcHStuJaCJ/P+Q4gVQOJTlOJBRBIhWTPy7y96TrRI9WAf8gH0hEQvJsNVBr5OhbyICDobEAW7dlI+iaJ/Dow1fBX0HKAflb7I/QJxhJoYmYcf3VGDd2HMYtvBYpYQ6UFzUOzMfsMkL0HMH5ekRBK0iG57iUyvDYukKEpwQNu+mfcfmRt7WUj+OUOi/emTP86CxWtJlM6LXaSLJCS97T13Srpe9ZGrLEOewQOev49pou5G8rQ/zkSN5RfygoPVSNJiIe5t43GeKLjB9GLV1dTb1oLm3jrWplR2pRvL8KhbvK+eFGKvKolYsOe0aODUHKnDi+XNMQHOOXJiFqXCgCo32h9O6z9NG2jS763UrK2WDprcxCXrUCafPSERUdgKot36PTKwEJcV5oL+5B+k9+idvuvhnTZ01ATGIaRsWq0XF8N4rl6Zg3Phi6ymbIp63AA088iDkLZyI2ZRImjA2DuekEcmusGDdxPHxUIhga2sCNWoB7n3oE85fOw6jREzAhLQZcdxXyTrQhNm0SgryE6CrNRXmHHGOmJaOn+ChaBCGIjPaDqbkSDc0GmOpzUWSNwdQoG/IKmxE3eToig5ToLi1ChzAcY9PjIBP3tT1U4OnKD6CsxweRUd4wNp5A1sESBEycjVGR3hANRq+bTRBbLJDL5ZDJZJBIJKct/j3cjCgh5hJfrp4qnxykx0oU9ml5LLk90a4N/5rv45ziYgolE2KMgeJpIUbLejepiBuMJuhsduhJw6i3O/qSg6WhTiIixKRkSwNrVhyuR31BC2bfM4EXK+5uCOkEgMKd5RBLRRh/VZIz99xQ4dVGxCFdZqlodwVytpbgxJ5KlB6uQeWxen4JJrW/EpFjQjB2USJGL0xA4owYJEyJRHRaGAKI6NIEqCBXy5zfeDq07LldiM1NhbfGDwpbOY5l1CJ0wkwkRZiQs341dqxai8PHqqGMTEJkhAIdWX1CbE5aLIIjVGg9vgubP/0K+/ceRzvnh6TUCFj7CTFvtRp+oRroyw9jy8dfYO/uDDQZ1YhLiYKot/qsQmzstMkIDRGhbOda7Fi7AVk5LfBKGAVlRwERYrFYNCMZgrZi7F61CscOFKK5tR0ITML4fkIMQjl8QtVoPLQJO9asQ0ZGFUKmX4PZs5KhkYl4X7dLZoQJMQEpFKe3vB6EFk4TSbwgoImIMP7fyDnFKxYRKXxSgRBCUV9BpMlVKAdaMN++/2tMvnEMJi4f7cxhMM7Op7/cAIWXDDc/t8SZM7zQYchWIsLqSGIMP2rSEHqRDrZNzyHjk3x4BWkw/6Ep/GzJwQ4dngkdPtz25iGkX52CtKuT+4aiLXbeikV9xww9ZnTW9aC5og0dNd3obdfzi4HTgK9S0lnwJiIkOMGft2oFRPlCppJCIKL1I6kbaRpg/eiC/r7JbEaBzuDMuXQcNgusNgHfqaF3zWG3kvccEZ3kPoJco9lCyrqDiBoxOUZKxIYADosZNoEEUgkRM/QZWMl3EPHJkfpfLJESUSICR7/HDkikEgjp9dHhRpsVFiIeOfLNIiJcJBIxBA5yD20O/nN02JEjx9gcAvL7ZB/9bn5RbfJFgr7fFzjIb3FiyOhvnPw+570U0e8k59TvfnL0d8l3WG10uFQEMRFNYnINF3vPz4Tr6YZcp4W3tw80XhoolUry231ibLDffSmMGCFGT8NEbnZ+d68zhzGc0FXXwsXkD1Es5hMtkK5COdCKkQkxxkAZGULMSISY2ZnDGE6k2l4oiADoKjMg+9sSzHt4MhKmRPHix51CjIqewl0VOPj5cSL0phIBIYSuw4DeVh066nt4Py+b2c4PK2r8lVD6KPgYY0Gx/vAN94JXgOqihzIvhDuFGOPSGGlCzL1dj0HCLF+egzZMRtIwmUkFYbWeWgiVwbhSYcXbc1iJCDOR+qb6SBP8on3gE6HhRz/cAZ3B2NOiRXVOI46tLeD9uGjU/oxvc7HjrcM4siofLRUd8A5WY+J1o7HokWlY/Nh0LP7pDCwkr6fflob4KZHwC/d2uwhjMM7GiLGI0V6CkQiAwl53BLljXCwiIsA0ei3kCgXfO6Bj51IpNWX3WcYGArOIMQaKpy1idMZei8GIBvOVNv/q8sDe2gJHQy+yP63E6CVxmHBdCql75LxV4kIWMdpk8W4r1H+YJJvZhvaabt661VrTiZbSDt73jAoyGk7CrDcjLDkYSbOi4R/pA5Wvkp/NKJVLeL8x6o4xnDCLmOfhLWJ6Hby9vJlF7EzoHxXDM1ALmMFggNlkOmURY8+DcZlis9r5xZ0ZIxOHnUPtkTYixqUIHxOIC3le02j0Pa06tFZ18jMXszcVY+f/juC757bh/cdWY/Or+5G/oww9TTqEJgVg3NJELH18BhY8NAWaADWm3jwW45cmIyI1hI8lpiZiTKogom+YRZgLTzT2jFNQvzcxb2QQktcX5ws9FIwYixht+PWkd1qsZ70ET8CR3oGgpQVqjRpeXl5QqVRQKBQnfcYGArOIMQbKUFvEupt7cXRtIULi/flZvNTfp3+j636LmBVtJ44h52ghek2AMiQOKVMmIzJEg7Pak216VB/J+n/2zgIwzipr/08yktFM3N3r7i6UFgoUKO6wsMsa6/at7/f/1pdddhd3h0KpUHdv0zZtkyZp3N3Hff733MyUtFTSRlvur1xm5p3J2Hvnnueee+456NSlYeyo6O6A6CHBA6e1C3Wnj+P06UrYoULM2GkYPToRal+yUY8d7fkHcbw6AjOXjYS6H96quageZ95i52dEGKbcPQJqTfd44/OIGTvM6Go0wtxp4cuMnY0G6FtMMLSa+K5FSvqqi9Dw5cXAcNZ819llz/JIW/97kPeFG78ziz1e6z06tJBHzGa3o4H1PwpCt1NAO5v80nUPu2+YmOTrEi64WP+SMb1BcdFaZu9UZOsUCki9fW8oBNkwE2I2JsQs3iOCwcRlMMDTUMc6phZBQUFsYGQdVKUSQkwwIAy0EGupaueJNWlgJeMclhCE0YvT+e43WpLqXyHmhr3uAF754xaEzJqEeGbv26pK0GxJxbKv34Y47QV+P7Zm7HnuFVQk3IiH7poECW054zBh1FmN3RuOIWT6fIxPCeW70QYKj8uKsh2fYPv+RsRMGgV1eyFy8k2YdN9jmDshFlJ/N0yVh/H+n59Fsf99+PG/70REPziR6reWoOrzUsz++hhEpYXBY/WDodGCjlo9Our0XHCRR5OWFmlHXUhcEMISgxCREsI9XAEqGRTaACg1ATw7/YWMJwm2D366gaeUmP/41CHzfp0PCTHqfyTArFYrLGYzLOzSZrUxO8jEGC29Ci02IFBfkjB7JpfJ+VK4LwwnQM76kXejiBBiQogNGSTE3PW1XiEWzGeovnVzIcQE/Q0JMYrPWfKtmd4j/Ut7fRc2PbsPLoe3Lh0bW6nQM+V/Sp2agJSpsbDrZGjtl1hsO+q3/AP/2p+GZ362HJFM6HmcNlgsTiiZWDA1dcA/JBxahYTX2GttskAb4sKR/76C0ohZWD4vCQ6PBIqgEAQHytFVtA/vvbQTETfcjmWLJ0Arc8Hc1Y6uLgv8pComRIKhYq9h72qB3uyBn5sJFgegCgmG1GGEwWCBNDACoSFq+LvtMLS1Qs9EiZ9UAU1IKAIp/YLX2FBiVUNbA8wOJlYjA+FnbcH+V19HmW427rl/FuTmSmx77UOU1hShxnFrn4UYmRtzowEVnxTAUqVnAksDY5sVLjulQGCTPtYnVEEKniYiKj0MkandwovSRPjzlBHMUPZSmVbk1GHHy4eZCOvekTlcICHGxZjD2b1pwbtBihrFtvFNC0KIDQjU70mQSyVSnpqDcogFyOXcG8bvE0JMCLGhRAgxwWBCQowyqg8Vco0UmXeOROCMeO+RvuCGuWwHXvjLBmhGj0N6VjoS09IQFx+BAGspPnjmeQR9/3dYNloHd/VO/O9Pj+DOfz2K1rf+iwOtKsQHOdGlN8OhSscN9y+B7dDr+GBVHlTJk7Hyh99AZPspHN5/HM0dlN9KjaBRkzFnwWQ0rP4DPjgkQ1aGCvrKStgixiAjBmgpK0CTeyLu/+mDiLUVY+faraho6ILDaoM0cxkefXgu1Bf0DrHP0VSEne+uh409bvnSUZDYO1Bb3wlp1QY891ksfvRc34SYy+ZE+WcFaN5dw2/LVFIERWsRNyqSt4gkJhSZ8OorJGj2vHUM1acacPcfbuRLmcMFMrlnxZizu9STy+mCi4liOiYYWEhsUTkmEmQyvuLTHStIAszXBhshxAQcIcQEgwkJMTI+A9VXjG0mZK/Og9t57vBG3hYqLB0/NhKIUcMc2k8G2m1F7Yl9OH4wB9V1jegy+CNj6cNYNjsAn//oxYsIsRdxUj4JDz6+BFp3Iw6+9gpyIm/FNxar8dG/NiBm5YOYn2LDtvc+gTNrOZbOy4SntQAb3tyFkEW3Iij/NWysHIdHvncTVBXr8eLfT2LBL3+ASdF1ePtbLyH1l3/ErKBq7Np8AK0dftCp27HzgArfe+W7SJSfq6bcnWXY/PF6lBaVwxo0Frc8cS8yozXeZVEXug69jP/3XkSfhZibnfP2gma0HaqBuUYPh9kFTYiSe71C43WISg9HeHwwT6JKHsyrxdhuxsZn9/L4saXfne09OnwgwUWmlxrZPl8FGWKYmOTrFp/Xixpd73l7KEQYMWxKHFHnc7AO2eroLjgqGFw8djs8Bj131SoUSp66wredlzpqbxAljgS9hUocqYOUWPD4VESmhPZ7U2jlPJEn2TQy6JS2YOa9EzD1zrHInJmE8NQQuJUSGNiY03fIoEqgjU5G2rgJGDVlClJjnTi0ejvkqSnoys6DYsYCpEco4OmqwN7tdRi5bDzMp3JhiZ2AaePjIVOqINXnYVeBHNMmhqDoSAm0I8ciRs4E2vvv4Njho8jevAH7t+1FeVEjVFmTEGEpQb3faMyYmwa5uRb5RzoxavkCRAVZUbh+H1QzZsCd/RkONEVg3pLJkLQVI++EE1Pvmo3gs4X6uuORaNkyODoBCQkh0JdXwiCNREpyGKRciXlgqz2OfXnqvgfrM0OnDFNDHeFBWKIcCeOjoNapYemwofpUI2ryGlFyqApn9pWjs17Pyw3R7sbu5UjKwd47Y1lf1MyeoxITbs5CaFyQ9+jwxCcGeKogfwlfNhNt4JrPpvlaTwE2VEKsD3MbgUAgGJ74S/0RmxWBSbeOxN3/uxT3/eVmjLkhnQftU5B3/w64LhiLDuLgiQoYHf5Q6UIQHJeAELUbDg9tk3fCbDDD6bBC394Bh9Mn/pwwdXTAZHPAYW5HbVkngmJC0V2h0A230wE/eQgixs7E/Cd/iV+88hp+8/LL+PXbz+HeG7MuH8Rv60JVXjsiR05E5qgRGDF2BDTn1T/0uJ1orylCWWUHE0gxSBo9DmlRfqgvq4DVbEBHYwusvji7foC+dzo3UoUEAYFSBMWrkbEgHou+OxWP/OcWLP/xPCaeRiAkJhC1+U3Y/cYxvPuD9fjoF5uw581jOLO/ghfZplQWVJ7oQil2KH9YY0l3LjGaGA5HfMa/pyDgTSLagDfvd+0TZL5zQW2oEB4xAUd4xASDyUAX/SYvWMrUeB6krQlRsT587iBLS0MmNtb0j0fMCWNNHvZs3IXCk8dRevIYTh0vhTJlPqbPyoSi6wwO7MpBY30VGipKUVzsxsRbJ8N86hDO1LbDWFuAU/sPoKg5FAtvW4jYID80FxxHYX4x/BMmYWSEP6pPHEVh7ikU555Gg0GKiJhw6M8cRKU1GROnJcK/oxQnDjQiddEMhKv0yF17AJo5y5AZ2oncQ0dRVVGButJiFJX4Y/rKWWc9Yh6XHU0Fh3Bg6x7knWTPf+wwSlpUGD1/LqJQhLVv7YIiYxQCu3L7xyPmxWU0wJ+NOZSygsYcGm+oUXxYdEY40qYlIHF8NGLYeBKRHMIz3LfXdqH4QCUvvt1Y0orm8nZ01HfBbnZAws439SfynJk6LDi9rRjBTMzR89B9ww3fsiQ1X7yYaIPXfN/9+QyVGBMxYgKOiBETDCYDnb7icvRv+gqGy4b2+ho0N7bC5nBDqglDTGoSgtRSOLoaUV5YBbtEieAQNUx6P8SOjIODPb7L6Qe3vg1GBy1tJiI+LhRSPyf0TLTV1bVDkzoGcTowwVGNhoYOuKUqhMQlIjI8EJbGcrQ7QhCXGAKYW1BXYUBoehI0civq88ohT85EiMyEuuJStFs8UKkVsNvVSB6fDNVZYephb93ERE41mlq74IIU2sgExMSEQWJrQWVFJ8JSU6Cxs8/QIEfSiCgE9IOtsjfWQ8LGnODgYDbmBPLxpmcesfOhAt3mLgtrVi606gubUV/cwoWYTCHjy9yBkRqExwdBEajA4Y9PYdrKsRizOJ174IYbVAi71GCkr58Wh72XxLAwx9c5fgiU+COUCppfwDM2FAghdhY2M3FY0dXaDLPlvFmyMgRR0UEXTsx4nSCEmGAwue6EmOCKuFIh1hMyWbTsSBsx7FY7mkra0FDSgvozzTC2d4s1Em7RmRFInRyLyNRQnktOppQhgLWh9pDR+6fkrSc79d4jgsFGx+x9hFQCObdvrE/0yCE2FGJMLE32wK6vQ87mT3FwXzYOfvIatuwrRVttCSra1Rg5LgEy7+OuR8TSpGAwGeilyctByxP9tzQpuFIutDTpG28uZwjpfu7JkPrz5LzBsTq+E3bUgjSkTIxFxfE6HgcYGKFGQ3EL8neW4sz+SibYWmFsNcHUaeElkyheiDYCDDZk61xuD5psogTXUOHPfvsyisH09SVvv/O1wUYIsbP4QaoMQuK4mZg8bwYUbadgyHoUT337Hky9zkUY0R9CjNIFRKaEIG5UlPeIQHBhhBD7auM2GpkxtENBQkx+ZULsUlDwPpW2Gr0oDbMfmMjHItq0oYvUwmay812ZxQereH6xusImNJa1wdxhoeGfZ+sncTbQdAsxNxNiwhs7VFDfkzKb111vsrsJjxhjOHjEvsCJupwdqJGNx5SxkfCzd+Dkp6/g/edfwZatJ+EOikMMm4XZS3fiP39ajbrqPfjsubdwtNwMhbUAa559Fhv2VCE0IwvhCjvK9q7C28/+F5tWb0RZRwCik+Kg8rRg7yv/wHsvvIkdO3PZc8YiOiYYsstuhRoY+ssjFjcyErEjIr1HBIILI4TYVxuPyQSJ0wGlUoUARbcQoxCIvgqxipxa1JxuxPhlWTxlCcWOhbCxOjItDAljopA2PQGpk+P5pgB9qxm1eQ28iHjpkRqc2VeB5oo2HvwfoJZ3izJml9gb6lfjTLaOYsSahRAbMjxWKyQ21nhC1+5Gds4nxgYbIcQuSA8hNlqN8k9exPbOyXjkx09j8ZxYnH77TVQHj0Y8SrFpXT5G3P0kbr85E6UfvYfSoHm4/6lbIDuxA6dssZiQHICGhi6EZU3DpKmpqD64Cy0ByYgy7cOH6/2w8n9/hlsWZrAfvxRhMUHol4orV0FfhZjL4cLx9YU8O7ZYmhRcjuEgxGxOFxtz3PB3u+DndMLjcABspsx/C+y6aP3fwBp91xL2PcuZwVOpupcmeZkZrzG8WkNI5/TIJ7n87ylWtWcsGO2alcqlXGBRmSuqOZo5KwnjlmUihQkzXbgGDpuD78ysOFmPnM8LUXywEk1lbbzmJc98z8Y48pzR8/bFWHMhxr6DZqpLJRgSPBYr/G02HiMmZ/3PNwkYKiEmgvUviBXZr/wCB1SP4OnbVVj3nd+hLGU6MiIoBw+byRQehTnrSTw4ox7/+nsDnn7tW4i3luKTH7+IgCd+ilsmSHDsX8/iUPjNeGKRGrs/24gWWxBC2N+X7TuJ8JuexPLJVmx8dTMsGg00IQkYO28u0pNDh2xDQF+D9dtqOvHJb7fy5YBRC9O8RwWCCzMcgvWpth8VXjabzTCbTLBaqeafnd3n4sZS0P+QkZNIKL5Lyid7Gjb+UZwYFV6m21figT8fyi225v/tQNKEGMx7dIr3aO8hIWfpsrHnMaC9pgttTJTRrsz2Oj0cFgePRdNFahAap0MIa8ExOr4JgGLVrgR6Haovedpo9h4RDDaerk4oTEboAnXQBmrP2rq+emSvFiHELkgPIbYyEJuf+T3qZtyLWena7rv9pAiMSkGIcS/+cikhFrYMKxLK8fl2I2749sOI9avF+v++Dcek+3Hn8gw4WurQVFuDuoLjyMnTYMUvH0Fy4ND4xPoqxHK3FvOlyeU/nIuIlFDvUYHgwgy1EKPxhsQYNZvVChsbe+xMmFEhZrqPpxQQ9Dtk5Eho8QzyMikXYSTAfEuTdN/VCjFK9rr79aO45SfzeVxYX3E6XEyYWfkuTH2LES2VHXx3ZnNpO6QBEqh0CmhC1TwulgqUR2eGI0Al9/71xelPIWZqzMHGv7+Bcm/cv0Qbi3HLV2LWpBSozitj9QUO1B1ei/VrTyFs9gosWzweavZ5BgVHJypyq6EZMQrhqsu8pqsem3/1F5wy9ggf0MZh2sqHMJuJ7b5YSi7EjAbodEHDQoiJpckL0mNpcnwyQoP0OHHagtRxGQjX+KGz0YCgrDSouoqx76ARU26bCp2zHQXbjkE6cTYyo/1Rf+QwalUZmJDsh7L8CsgjIiBxtKM4Ox+SpHFIkhdh/9FOhMXHICigC2dOWJC5cCJCFFc3CPWVq12apPOmZzPRAx+cZDNELcbfNGJIOrLg2mKolyYJnyhgV/glCQG5jImCADn30IjW/40vQ1JT0HIkxYbJzk72SJxRQtarGT8om37BrjJ01Okx99HJ/TIGUYwYCStKCExxZhT7mjEzCWOXZPCUGLRj08AEGlUAKMuu4cuZlSfqYGgzwWWn+pGUOLS7n/X8XDRm8hixfliatLYU4NieBkz79o9xy60LESNvwv7NB+AfPwKxoSr4X+h7sJRh/Z9WIfKeb2DWuDioVQr23Q/OmO02lGHba5vgGTEJcUGX2QLnp0L89DmYvHARpi5aiFEpfsjbU46UhQsQF6KgVeKrx2blwfq+PtnT1vVH37lShBC7IB7YjHpIwzKQEh8KbXwmojyVOLFrD07n1kGdMR5pSeGQuqwwOjTImJACJZtlmPUOBGeNQJROyv7eAkl0KkaOzoRW2onT+/ajosnNftBxiMvMQjz7YXeeOYhje4+grDkAsx5diawYdd86Vx+4GiFGO5TIdZ/9SR6ay9sw5+HJCIr0eg0FgkswHIQYQYMuCQAyutTfZUwY+Dw0og1M8xk+nsOpxxjTFyPY2aBH3tYSRGeG8WoK/Q29L4ozo2VI6rdB0YF8R2bWnGSkTo1HeHIItKFqHkfWVNqGwt1lKGCtqawdXey9mTqtsJkpXUJ3jBkV+O4PIWbrrERBdi0S5s9HQkQggkJ1aDyWD4MuGRnxAWg8cwKnj51ARXUH5EEhUKELBXs2Y8/2IgSkZyI1NQFKRzMKDh9CYW4p2syAjj2H3GNGTU4u6ts70FhRBpsiFGpPB4qPHsLpk2fQondCExwEmVOPstwCtHS0oDLnKIpLG+CUByJQqwCcFrSU5iI3+zgqythxhQ6BOg0Uci0TsvFQONpQnnMEuTmnUcfsiESrg4bqivr6gB+bHJFYZ/1FLrOjbOMqFGkWYsmSTKjO1kq9SoaZEBNLkwLOlS5NkqueZn9F+yqgbzWxWWImJt46knXmofHoCa4thnpp0jfs0WXP1n2w+0IwQPSwcz0NH11erRGsPFmP7c8fxIKnpvFdkUOFw+bkKwT6FhO6mgy8DFN7XRe6GtkkV025zTQ8zkwXq4ExiYkSJt76kjJDX7ETH/9zHyb/6EcYFytDc+4OfPrhUWTc/QjSLEew57gBUXFB8Nj00HdqMeXWGTDmfo6P/70PKU88hSXTolC8ZguaQ6IRJnfD2FwD56gVuHWqHNv+8FdkIxUzZ49G2ugkNG/bjkp5MMKVfjC31cEQO489LgCf/v0lNIWOwoSUQLSWnkajZhIeePhGuEt2Y/uWXMhiExDoscAVkoFpUzVY98O3kf6H32GkrQAnT5bDw8xLW1kJTPGzsfKOedApz7c3HjhbjuHVX3yApO/9EktGhfS5SPZwW5oUVlNwRdBAc2rTGaz70y7sf/cE2hsMmHrHGIxbmslnjALBtUBP409igAZgmnDwJhNtQJvve2bNJ8R87WogL1RrVTvPnB8cHeg9OjSQt4zSZiRPjMXYGzP4MunNP5yLlb+/EZNXjGKTDwWqmGg8vroAVWuL4bT2dQXIha6i/Xj3Z0/j148+in/8YwM0kxdgXJINxz89jJDJizBryVLMvmEBVLbTOFZsR+b0iYjUxWLU1AmQVu7F3s4QzFl2I2YuW4a581JR+cEO1BooLkuFxElzMe+GOQhszcHOOmDKDTewxy3FnPkj0LJ2Dyr17HGSUKROmYd5K+7EDUsnwdpahzZ9K3IPHoB71I246d57sOS++zB/3ngEBfgkhx87/24Y6gpwLKcSdj8rKioqYLZ/OZ2Mh4m46oO7URM5GZMzgq5L0SKEmOCK4MtJC9Ow4GtTkT49gYuvU1uKeXkR4UkQXEv0FACiDX27WihLfumRal4gnALohwskMhVqOV+yDI0LwuhF6Vj2zGw8+p8VuON3ixF7Ywrk7P6+IYEuczYe/NO/8e1v3ABtWBYmz56IUKkZtWcKsOflP+K5n/4Ez/3mr8itBNRuJ9zevyQRZ2xpQVvOWrz2y5/h2Z/8DC88vw3SSD847fQoKVSBWgTIPLC0t0Gftw3v/u5/+OOef24dbIFOOKxMOPnLodKoeXJUqVzORAWl5zCis90AbRQ7J3IJJAEqaHRayLxLim5jA/Z/vB3t0TfhO7/8GkZGKuG4gAgjo+JoKcX+PW0Yt3g6wmTXp2QRQkxwxZAYo8DVhU9Nx7zHprCZjT/2vHmML1cKBALBYGLR29BZb0BkSijkqmujBoo6VInAhGDvrf5AirAJSzE1pg5Htp+AQRqN0XPGY9yd38Z3n30OP/vH/+Gx7zyGOXNSoTireWUIzxyF+PTZuPOXf8ZP//svfO83P8bt37gPaaE9v0cpgpMzEJs2HTf/6A/scc/hB7//Oe75/hMYGXFhIekvC0J8YgSaTp5EY6cF1vZaVJwpg8HWLQPdDjtMNikCI0OhDNAiNJYJNsUFdlG67WgqOIUGRRzGX8eJwoUQE1w1FLhKgaoz7x/Pdy3RkqVAIBAMJuSNVwQGIDQhiHuhvqr4KyIwfvEsmAr3I6/Sg/F33QZ18Wd4+Wc/wN9+8lccLmyCw91z2UICbdpc3LYgDHv/+zv89Zkf4sUX16KBCdtz8Yc6YTJuW5aG3Hf+wh73Azz/749Q1nTxibe/VIPRC25GvOUo3vn1j/Gv3/8XOaUd8Pm8JIFRmDwvCfVr/4N//Pz32LjnDEyOLy+puCztOJNTgaCMsYgOHj7ezv5GBOsPCS607HsFL25NxDd/twyhw2Ds6EseMdo9eeC9HJQdq8GKXyzidd0Egksx1MH6gusDGns+/tVmviS55NuzepXHa6jpzzxiHpcDdpsTEoUClFfWw+yo3e6AvywAUgngtFnhcFBePH/IFAGQsYN+HhdsFgckSt/fUC49Gy9E7ucvhZw9jo472DGPVA45r1DgYd81e26rFU5X9+NkAfQ4D3t9ej05ez0/9hgne303u08Ofz8PXHYbu+2Ex492mypAT2W32Nj7VbJ3xB7LX5cJN9qw4CdBgIL+7otlao/HDQf7rjz+tMu2/wLpRbC+gONx2mC1sg7qvX0tQzlykibGwW52ormi3XtUIBAIBhYKhzC0mBCV0btkqtcbfhIZ+9xKJohIPPix21IEKJVMcNEmCBJfKqjY5FqtVTMhI+0WGUxEBah7/o0MCrWGPYYJEjrORRH7W0q2y0UYwR5Hf6f64nH8NfyZeGKCrvv1/JigYs+lDOB5yej1pQHK7tdnE3supOjxahUXbfyx/HU1UDIhpGR/d37eM3oOORNtAXLve79O+UrlEfO4HajN/hwb3/sUR45XwtRWgtO5JkSkRkPubMHxtR9h+5rNyCvtgDY2DsFqD5qPb8WWnAroT+7AtjXbcKbJjfjUWChgRVPBQWx/fxUOHToNozQY4eE6uE21OLJhLcorK5Gzqw5hWTpU71mHLZ+uw/FDBbAqI9jjtLBVH8WRkmDMuCETKmcHTm/5DFtWrUduURPk4dEI10qhr87F7g8/xO7t+1HZ7ERgePi5eVb6kb7WmpQppTixoRDhScGIZoOiQHAphkseMcG1DQXp1xY2Y8qK0Tzx6rUA2br+SugquEqGWR6xr5BHzA1LxU6sevUINBMWYc6cFDQe2Y6j2aUw2dpx6v1XkWdPxcyVKzAxvgsbXtqIOrMd+oqTOPDZblhipmDmotHo2r4Ohwqa0Jy3G9u2FyF69lLMWzACjfu24FBODezmVhRs3oQTRVakz86C1NAKvV2H0QuXYmymBDlrPkJRg+msJ8zj6kTBp2/iUHMIpq+8HVPS3djx8jpUNNfj0JodaFSPxPxblyIx1B9mk3XYetCUlMCPQUsFAoFAMNA47S6eCoKWJWkCKBBcEcPIw/YVEmJmlO/eBNPsu3HDkunInDgbcxZOBjmz7TU5+Hy7AdGxclg69HBpwqFp3oLsgg4ufBQT5mLO7AnInDoVo8JsqKmuQ/6BY2i1qSBxmMD0EXTSBuQcz4XN6YYsJhHjlyzG6BHRkFiNaC7KxtZV61BQ24VOfRPaDXb+jphsgaMhH5u3NSM8Sgkre21HQBBC9buw77QeGi17Pw1lqKzuRGBsCmIiAy9cskIgEAi+YlBVj44GPVImx0NCAVHXENfzMtu1ANlRSrdBCcj9/b7IZTdUfKU8Yi6HE/4y6Zc+NAUhOu3NKD9xAmdO5ODMyQpoJs5HUqj8wh4ojwdupxGtVUUoor85mY8ueQwyshLPqdlFS6EVB3ei3DEOD/3qJ7hhZjoUfuc+I9UjcznbUJl7yvvaZZCOmo2MxFhMuvMuLJiRBEPpEWx9+0MczK6A3SU8TgKBQNBa1QlTuwUJY6O9R64twpgI0HncUNqskBkNQCeb+Le3wd3WKtoANfp+6XuWOhyQSr3B+RTP5j0nQ8VXSIipED9xIpz7d6Kwsh2WzmqcPl4ABzsFAdFZmDY6DLpRi3HzE09hxX03I2vsdGQmaC/4BfnL1UgeNRqxKWmYesdDuOPxBzF97jxMGZsCOW036QE/wf4SSP3lUGpUPOfWF/hBHp6CyaOjoU2fjaX02vffipETZmNUjAfVZXWQp87CLY8+iFEhDtSVNcMhhJhAIPiK47A60MLGcXWICsExQ5tN/2qQ+PsjQi5DKBMBOrcLaocdSosFAWYTb3KTaAPR6LtVWi1MDQAK2mQgl3t3Sg6tFPoKpa/wwO0wIX/969i4MQcmdRpGxJlQ1joBj//mDoTZKrD9zXdwIq8Gdm0SZt/zIObNiEHD1rexumUkvvvgHEjcbTj2r+dRMfkR3DlFg7KDW7FtzW40WqWIm3ITlt0xH2GoxKb3NyF22eOYmqqDpbkQO996F8cLW6HLyoDE5cbUu59EatvneGdPPB790TxoTTXY98H7OHy4GFZ1HCYsvxtLFySiIXsLNn26C00GF8LGLsZNK5chOVo9IMuTfUlf4ePFxz7ClNtHY9Kto7xH+odh0kUFjP5y34v0FYK+QEW+N/1rP+LHRGH6XeMglV87S5OUvoKa0+GEgwkwSmXhcDjgsDvgYqKMVlzEiDcw0PhFRf6lUgkXYRSoH8Auqfg83TdUwfpfLSFmbkJ5pQtx6dGQewzIef9Z7DMswuNPz4ZOOtTOyaFluAox6p49W89jgoHFNyDxAYpmjOxmz2N9QQgxwdVCv/2qU/XY8twBLPr6dKROiefLS9cK9P7PijGnkzeX08VFGB0TDCwktkiMUe4yGa95KuPXaUzztcHmKyXEnB35+OzFdehwuOiDw60Ow8QV92FiWjCurVDP/me4CjELmyk2WKzniLCel4KBQ8UGrCA2cyTXPQ1cZOx8M0YhxARDBf32D7x3AjUFjVjy9ExeZPtagwQXfQ5qZPtot7nb0y3CxNg2sPQcw+h6z9t9Hdeulq9UZn2P2w59SzMMBgvckEIZHIbgYI03sd1Xm+EoxKhrGu12FOpFDcuhQMNalMSPn3+aOUqo8XiK7gGsLwghJrha3C433vvR54hMDcW8x6dck4lcaWzzNd/t7ivdF4IBpIe5P1+ADZUQG9oItUHGz18OXWQc4tLSkZCWjPBQrRBhwxg+UIm8ZEOG0+mA2WSCzUplUpx8snQ9L530NI6iDU67Gtpqu6BvNSE6K+KazabvM/4+j8zZRukURBvY5v2ueyZw9bWh4ivlERNcnOHoESOjr2d9orgfarIJrhyp1QI1E2JKpRJqtRoBigBecYH6Aw1gfWG4eMR6Dn/DZCj8StHT+PXWEB5bl4/8HaVY/uN5CI279pYlCTfraw3mblsn+t3go2SCTOcN0O8pwnrbB/sbIcQEnOEqxLqsVpSIPjE0GA2Qd3ZCo9FAo9VAxQRZgELB+8S1LsRo2Ouy29FksdGt7oMMYRIHh1CZlBtC7pGgf/7nGsSL4XK4sOb/dnDPxq0/W3DNJXL1QSWOcto7vbcEg00I6zexbGJ5Ic/YUPCVWpoUXFuQsRRLk0MHTY7sdhtrdrhoZ1ePAONrHfoMVqcLXQ4Ha86zTS/aoDQT61M2NvGmtA1Ol/Oc4PVL0VjWhs5GwzWZTd8HfcbreYn/WoDGM+p/Ttb/aMdqb/vfQCGEmEAguCA0KNHWejffVi8EsaD/sNsdsFos3caQ97FuQ3g5GotbYTc5kDYtwXvk2qPb4HtvCIYEO5sMmM1m2NiEgCYCQynCCCHEBALBRek5QA3lQNXfDPXA+1XHzgSYkTaCeL1ivo0glzonVqMdLRXtCIzUQh2s9B69NmG9z3tNMBS4mPiyWb0eMW/fG0qEEBMIBF9JhBAbOmi522I2c0HGE5oyY3i589HZqOdljVKnxnmPXLuIvje0UJ+z2aywe4UYnY+hPCdCiAnOwoMVedCi9/oQBS4KBAPNUA+8X3WotI/FYuGCjDxil/OGUawolTUydVqQPPE6EGJD7IH5qkO56HhKHibIhsNYMMyEmDD8QwWJri+q0XfvIPEdFwgEgv7ExQwheSLokkTJ5Qyhw+5EXWETQhOD+W5bQTf68sNY99qr+Iy317Dxk+2oaNTDddHv0wO3pRknPv8QG9fsRE2rCYMnCV2wtNaitknfy4VZDywtZche9xHWsM+3/pNtqGw0sGfpO7Q0TJUM6GsaDhOyYZW+gtyEHRYrjxsgtyFd8h1b9GP1ln8QDAR+kDHxJWffsUqlhkajhlKlgkKh4KkrSJz1hv5OX0F9oov1h1LWBht38wm8+e8P0Wro+doqJE+/DUvumAqdfCDmMGxwsBtQc3Iv9n6+Hw1mIHr8Yiy6eRaig5WDPk1xdnbA09SIwMDAL6U06W2fuBgDnb6iq9mAo5+eRuL4aCSMi0WASua9pxtammgyW1Bns3uPXCUuK1qLs7Hz0y2obLVAFZGO8cuWYsroRATILtRHXGg9vg6bT8fj1ocmI3DIpsKsr5kacWLbBhzckwerMgKZC2/DjYtGIeDs5MsDh7kN5Yd3YP+O42h3BCBl7m1YtHA8glS9S2lzMeyN9ZAYDAgODoZWG8jTo9B4c7HUKKYOMz76n83ImJWEaSvHQhbQt9cfSsj7R4W+T/dDfsTabf/Fix8bsOC+mQj2M6L00BF0aMbh1keWI0onv8CYYUfTvjfwyg4P5t0wFWkZGYgM1wyOR8ZjRMma17HZMAlff3gWLpuK19WCHf/4M3KRhQkjI9BVVYDq1kgs++Z9SAtTeB90dXi6OqEwGqDTBUEbqD1nXBsK54Pktwzv9aGHaUIp+/FLmAH2o8YGS392KWUCQcruo6FUtP5vAf5+CJBKeI4oGgypIj0l7pRJZWfrC/aGY2vzETsiAjGZEd4jfYPmCDbWB9pZG3QUYciaMgOTJqag7ngVghfdhwceWo6sUQlQBQzQj9XjRHPuTmzfXoy4RXdi4fRoVO7YiJOtGoweGQ+ZZHCtttvKRKjJyPuDQqHs7hPewaq3feJi5G4p5sZ05PxU75H+xcBm+rvfOIrSwzUo2F2KzkYjFFo5zz8lkfrzvmVi/crAxperxsMmCpVHsPrtLQiYcCtuvXseQtCKnCNVCM1IQ6jmQqbGg/bczdh2QoUpC9OhOqcbdSH7+V9is3EExifrBlZ4u/Qo+PRtHGwJx4K7VmBUtAX7Xv0E5qzZSItQ8Nf2uOyoObQZB47okXnz7Zg7OQKl27ehzBSM9LTIPlUlcTEj6M8m2ZQsmPqXTC67pCFsKmtD0f4KjF2cjrDE4GvaU099j/KINdsd3iNXj778BM40x+KGB5ayc5KK2Gh/5B47BVXKaMQE+rHfQQs62tphsTP7GSCD09CAvHWrcCZwBpYvmIjQEBVc5i60NzWhS2+GE8wOsPHNZTWgo0sPp8UEo8kDudIfdkMn2hqb2W0r3BI6XxI2cTShq6MTDqsJHS2tMJrt8JcHQCrx4/3H2MZev7WdHXfAP0CNwMh4JKbEI0gtZ69hREdzMzo7utj7YzaejS8S9vs8e2aNxdj6+imM+do3MGf6GCQkqlG0Zzs8KdOQEqnq2+/DZoWU9T+fves5rg1F3xo2HjF6G5TPg7aSOlgHtTvsX8pfJBgYqONJWAekWoLUIX0d05dBvbdG93ryiPnwdJXj4798BOkNd+OOeSnsB2NHR20ZygoqYZVoEJU5EomxIbC3lKGitJ0ZeivaOy0IjMtAuNKI6rJaIDAZWRMyoFP4wdRYhjO5xTDa/aGOSsXI8WlQMWHQjRt2JnysDj+odBo2KbGifNPr+KggGN/45l0IPs+rM9AMtEeM4jQmr+ifvnI+JMSOfJILt/OLcUMi80d0RjiSJsQiPDUILjarbpP1YdBlwrnx+Bqs+vgMpj3yBCaOiGLihJ1DO5s8sqdtLiuAXhaH5JQw+Nu6UFlSjoDoVLiPvYwXNoXitruT4egwQhU3Clkjo2A+cwgbXvwPyhLuxYN3LUJqSiC6yvJRVlYHq18g4keORkJcIMw1Z1DcbIfW0YHGdheCU9IRIelEeVE9pKxPZY1OhVpiRwt7/YqKRjg8SkSOGIukhDDImYHsxgVTSzs8gUHQMAMNdyuO/OnnODj2Z3hmearXQ8IEAzNYTrc/M8QBbFJswOkPX8W+tjQ88ORNCFReXR8gj5C5tA5o6er2RqjVXkHWXbWBQiPO58TGQjSVtmHmfRMQmRLCBXWfYV8FlUiSygc3Hxl9fgub5Jxo7IBc2zfPTu22l/DurhA88qs7ESW3oebIBqzZXo25D98PbcUuHMiugoWNn36aMCRPnockFGHLq68jXzYWy+9+GLOmSHHs852oqm+CzSWDWpeIGfcuh7b8c7z+wTEkpyVDGT4T06cBJ3ceRl1NK5wyJdSx47DgljlQNe/BWy9vQHByJuytDWhrd2PEbY9g6bxkNJ3Yht2bj0LvdLMZfzjG3LgEoSUfYZV5AX7z+GQ2wd2NvdtOoMtqgdUZgkl3rsTMSYmQ+wS+uwOHXnkeZ/zTkZUWAlNtKeq7QjDvgRVIDO5baavh5hEbVkKMOig1Wjbw7aRxU6O3KITYwME6nj811gmpI9Jg6BNh1CmFEPMKsbnx6Cg6iF17iqBgwkTqsaCpRYbxy5citPYzvPHiSSQtngGdvRJ5p9qRMG0yIhQG5B0uwahHf4gbxqpQumMbM6I2yDwGVJ0sQ/LjP8PikcFfXhpg/d3eUYH9H3yKyuBpuHflLKgG2WAMtBBrrerw3hp8AtmMOnpBEsLmJ3uPXAUeN6wtZ7D9nXdwssqB6OSRyJgxDaNGpUIX4MD+V55FceDNuP/BSZC0ncGnr72P4IVfw6jWD/C3tzsxe/k4BLm7UF7ahJh5t2N8YAO2v/ICyuNX4oF7FiHGrwCr1xQjKikUEqcFHTV2jHn4TqiOvokXNzRi1txxsDeVoqjchvQp46Cx1iO/wIYZX3sUk6LNOLXrEDqcEji7alHbpsTcRx7ByBj1lz0JLjv0tTlY84/PEPmNn2HJiOALehucxlrsfOVtNMUuxsrbJ0N5waXXy+OwOlC3oQhduc08KStNAvlY482uzxXSeXTUd/H7g6IDoQpkorBfhVj/LHPKlVKogpQ0nF4Sp8MFfasRDZ1G1geToUsO8d5z5dRuew5/+28uUicxweRnh0EPxE5dggWTPfjknwcx8ZmnMClJA1PlAdb/jmHKNx8E1v8Ra3SP4X/uSkbxqjewwzAKDz28AGp04cwnL2Ob/yKsSC7G+5+UY/Fjj2NckgRH3vkY1aFTcPuKKZCzfrb31ffRPn4FFkWV4+039mH0yq9jzvggFH38Ova1JOGu+0di73NvQrrgUSyekwpPZz26bEDn3tfxMQmxxyahNucAjmcXwK6JgKM0H5bkJbjvoXnQBvjOrRPVe97D+2/tgzwuDB3sd5L5wA+x4saR0JydvF4dQohdAhJhPkFGu2QomI6uCwYe6nw+0eUTYD1bb7jehdiKqRrse/MD1AZPwc3Lx0Ph6ULeqndxUjsHN0UWYfU6I2780WOIl5bgg7++ivA7foplk3TY/s+foS7ru3jo5gTU7vwUG7flwj8yAaqKvWi54U/40a0+D4QXdwuO/P1ZrD9VCXfYOKx4+nFMygiDpJfnob8YaCFGHqobnp7hPdK/dDTosflf++FyfDF+8GV2iR+i0sORPiseqqxQdKn7YoQ9bJxywdrViMq8XORlZ6P4dCncGcvw6JNLUPHxCxcRYqvw8o5EPP27WxET4EHl7vewabcLN/3gVtS98kucGPcLfGuREgf+9HdUTH6CTQASmOg3o2D1f7FPdhOWaPbjnbww/Pi7d0HWeAgv/G0/pn7v65gZ0YVP//4xZIvuwc0TZTi+dhUOsAlBRFYs2gqKMOqxX+HGceHnyBxrx2ms+cVfkdtuh2zcHfj+D+6ATsGMkff+buhzOlC54x2s3W7EgqcfwZhEHZ+8XQ1UpshwqgaO2k6o1FQ2K4B74aUyNvlj/er8522r6cTpnaXImJ6IkHgd9C0meFx9N1u0AkMpMXr2kb5g7rTCZr54zKGbvWfyApNto+8gIEqNjMfGQZsQ7H3ElVO77Xm8us6DW77GhM3HL+J09EN46rFZCCj6CD/9yScIjAvloSdw22BEMJb+4EeIPvSvbiG2Igzb//h/2HCqFboQFXs29r5MbXAmPoyHVtixYb8ZDzz5ECJclfj4b3/GkVIrgrkHzwVbRxsClv8U351lxPurC7Dwka9jVKwU5evfwuaiIKy4JRRr/noQs//wU4yN6V7qBkwoev8veM84Hz9bEYkNb62BI2Umpib74fCHq9CWchsef2zRWSHm0efj3V+9i5A7H8H0UWGw1h7DptXZGHH/tzEjM6RPcW1CiF0C31uhyy+9rWHzLq9TvH3P1wnPv+wN17sQu3WCFJ//8/+wK8+McApw5V+NH1SzHsDKuDJ8vsWBm3/yCCJRjI//8SoiVv4cS8ZosONfP0FF8tO4f2Ij/vOznZj9u+9hrLYOm//vDyhd8Cf8dEXa2aUgXwZ7Eg1OSwvyPn0Hu9uSmWG/BSHX2dLkQAbrt1S148Ofb+JGVqVTIDBcjeTJcUibmoDgmEA+yet7sD47Xzx0ApDIZewcumFrPIX3fv8BdHc9grCCTy8sxNo+wev7RuC7f1iGUHbi2/I/xyev52PODx9C+zu/6RZic11Y/f1fY69Bicgg7zKMnxzx0+/GhKBsfFSaiF99dwU8tQfx/N8OY85Pn8JkbRs++fuH8Ju3EhNsW/HZHgVu//FKqGt3480XNmPs07/DsvER3p96tyhgsy7Wj92wtJRg93/+g9qZP8RjNybjC3nqhtPchpJd67BlVytmfv1JTEoPQV99s+cH61PfouVJ6lvne+D3v5eDkkNVuPsPS6/JRK70PXc1GXBi4xnkbSthfYa+dyDhjkzEL07zPurq+GJpkgno5n14/U87Mfqb38KMkCI8/4fDmPuLb2B8nJZ94UYYLP7QBrlQ8PKvvR6xROS//RL2uKfgsYfmQS11MzGph0ethv7Ep3h7b7cQi5G3Y9erH6EhbhbuuHUSFH5OmPQWyLRqmEu34d0LCLE7HxiJ3c++B93tT2M+5X0zdcLscKJpywv40DQPz8x14oNPTmLGA09hfIwHx996BafcE3BvDyHmqtmO//v5ftzw2+9gYoIGltZirH/pTahueAa3zmaTE/6oq2O4CbFze/wQQ1+Ar/k8M2ebRLQBbd7vuec5oCb4AokiEInp4zF6yb34+l/+hZ//62948mc/x2O3TfaKskvhgdOkh1kahpBwHTTBkYiKZANkTzxOdJSexLGdR/gWb/p5ypj4MpuMsAvP8BVBfTomMxwTbs7Cgien4ZafLsC0O8ciND6I39cvMDHXUXoMuz/bhKLSBljsNmZvuuAMUEOrDoCUWQpzVwffAd5ZW4nWNiowTn/nYgavBs3NFAzdgfKTBbCHpSBIywQXe2suNvGw+euQMSULaTc8jm/+/d/4n+f+jqd+8AxuuWs8NL3oa1ajCX66SPY+NNDFxCFEd57ZchpQvmc3TpwsRqfBBo9EDqUG6Gw3wWntRHVhGTrNdtg6qnFk1YfYtLsds77+NUzsBxF2JVjZe6NA/fAkNhG4xkQYORPMXRbk7yzDln8f4JsNuAhjhCQEIXpuEr/eP/hBETsFM+dokLd1D1qVI3HDUh3yPnuPp3747N1PcaqQ4gW9DyckWqQtXYIYSwHWv/U6PnuNiag1u9FgPHdy4q8Mw4QlExDQlI0Nr72Gz958B9u2HUfHJbx/EnUSJt44BrXbP8DqV17B6rc+wakzzd7XZ5PXiFSkhwNHV7+Dz99fj4LyRpz/bJKosZg3Q4Kj77+KVS++gFVvroE9chomZEUMah8cDIbXrkkv54sB0Qa/XQ3X1a5JH7YO5B/Ih3/qKIxMiUBwZCCs1cex84NV2LvzAKo7AxCfkQi/lkJmjN3ImMUMJdqQfygH6pFzkBopR8WRbegMnoqJk1IgqT+ELR+uxan8ErRUlsGWvgSzs0LOeinI+1CWvQPbV32G/dt3o6xFg8nLbsCIhDBILq/2+pVredekTC5F7KhI7gELTwyGXHGuN5FCHkxsht6nXZPsfHkcetQXHMGBz9Zh77ZtOJFTjaCpizF3ZibUfm3sc67DwR0H0WCwo7NDj6gx0xBhPo392fWw1GdjzyefodQYizn3LEdqdCDcnSXY/f5OGORxGLd4Eiy527FrzWrs3XgA9RYVkkYlwlmZgxPtQZg3LQvQ1+DowVokzp6EmAALCg6dhl/SaIwfFYKGwxux+/OtKKxqQltLF6Inzkd6lDdGjIlBe3sVjm9bh22frMOh3cfQrhiFm1bOg06fj89eXg9nQjpsJ1fhbXa9xWxCe/FRHN68AyVGDdJTYyDvQ5zO+bsme/atnuNPY2krCveUY8ScFESmhXmPXhu013Vh92tH+fvXRWn5bl1Th4VPBGY8MA7uaKZ8+4gsMJyNP0mIjNBCJpEhOC4J0TERbLIXhei0dIQHqaDU6hASl4a0rERolAFQhSciOSURoVolZNoIJCZHQyEPgCYkCrFZIxAfFQIle964ZPadhwXx3fPK0BjEx0UgQK5EYGQsEjPT2X2BCFAFIzoxBTFRYaw/SBHAJpixqSkIDw9hk55kxMaGQR0YhEg2fmaMTEZYTBJ77WRERkYiOiEeQYFaBIbFIGXiJIwYnYbQIDUbW7znX6JCVGYmm7CGIDA0AnFZEzB53nREhyj77kESuyYF1yvX5dKkmxksK5uryeTc8PiRWHLY2O/YDrfHD1I2gNFuLwp4trPpnkwRwAYJ+hsb/NigJZP4wWk1wyVhP3g5u8dmgdXqIJcNJH5sdixXs0HQF5PTvSTvslMeve7nl0jZ6yrkXIQN9gBxLS9NXo7+ySPmPV+0w5s9j8vtgZ+/lJ0vBTNe/jyuymamXYeAlH1n9HgJ6y8Stx1Wu4f3E8qR6C9jfYOfYyYQWd+y8BQAdEwGt50KYzu6+1oAGQ0ZE39W2FwSKElcup2sPzl5v5P4eb7oq+z0OKwW1idd8KOdiOzVpQGsP/I+7H3vvG9b4WCPoXfD+zJ7Tj96TosdEvY5/J02WNnrn+NIYf1awR53tTFiRG+WJmmZ/uSGQhz97DTu/8tN0Ib1XbgMNPSeTW0mFDDxlbutGApNAMYtyYC+xYiTm4r4MmXm7CRMuWcMSjGEE8yvONfd0qTRaERLS4v3lkBwfeHHBFOAis3aZd4fqB8ZLCWb5emg1QUy48GEFxNJ/rIAKFSKbsHEjHGASt0t3NjfyJQ+sUXGVAWNTscTWCo17O/PijCCxBZ7fmYwfc+vUisgZRZ6KAYHweXwni8mmlRMTGj5eWXn3dtX/Gm5jx9n55n1IUqSLKddgtR/NCp2/rW8L6hUTERxLwD1IwXUvF/JudCh/nK2rzGxRsfo71XsfnoNP4kMSrWyu4/07Kvsulyl4c+vVjMBzVr3RMKHr592P0ar0559Tf6cTBjRe5UquvsrfTZfo9fuiwjrLVaDFQ0lrYjOCIOcveZwx25x8Fi2jf/ch7ztJUiZGIubfzAX/ux7L9xXwT1hmlA1suamMIE2/D+PYPC4YiFGdcFIfDU1NaGurg56vZ57LgQCgUAg6C/MnRa+NBmTFcHE7vCNCqJlbipGfuC9E9jzxlG+DD7v0cmY8/Bk7gk78kkeP0YTtvQZCYhKC/X+pUDQTa+EGImvzs5ONDY2cu+XwWDgszGtVouYmBhERUV5HykQCAQCQd+gJd+Wqk5aQUVkeij3Kg036D067C6c3lGKzf/ejzP7K/nmkCXfnonUKfEwMBG269VsvmtXpujOMTZmcTq7Pri7nwUXYRC8ur3lgr2bPFxU57GtrQ319fVobm7mlfJp/TQ0NBQRERG8UeyIQCAQCARXgr+fd5c2D44mm/hlo1iRU4uwxCAER+kueP9QQsuQtfmN2PiPPTj4/glEJIXi7j8sweQVo6EOVqGz0YAdrxzhMWKRqaEwtpkx6daRCIrqtpnD7fN81eDL/kzPUEkl6ot8mX8Iz8nZYH2f+KJlRwpkpcP0Q6EASooxoEA2geBSXI/B+l9lrvdgfepb7WzMo1Jq1MjzT32OqnnwQVFsY+p3yNZx8WUxQ+Z2I0inY/1Kw20M7WDzVfSgxKhvfnsNRi5Ixcx7x0MiGz5Lk5TlP39XGYoPVPH6pROXj+Bls0h0EVRea+9bx1B/phmz7p+Agj1l/DPf9P05UGoVfCnTxvpbvdkCB+uHDnbdyfoeXfew+7wmWTAAcMHlL4HM5QSlsNVqNd0ltqjveTeKDIUg89Pr9R6z2cwHIOoA9EOgH4RvW6dA0FuEELu+uN6FGBdgNjuffBqNBu719wkyYQwHBjJy1HeoD5F9ofAWEmE04Zez2z4hVnmiDlv/exCLvj6dL/MNBygbflVuA7I/zeMJWmn3I6VfiUj+IubLarLj4Ps5KD9Wh6l3joHT7kTO+kLMf3wy+xwJTAT4cSHm639WqxVkf+nSZrWxMa/bCSK638BAcXpUU1kuk0OhVPDxjGsd2s0sHcL0FXV1dR7q/Bo2K6E3JRBcLUKIXV+QEENzE7QkxHRB15UQo75FgosaCTAra5QyxOcVE0JsYCAjR7sHfWLM5wnjuZykMn6fH/u3+42j3KN0288XQsPL7wwdLqcbrdUdOL6mALUFjXy5dPpd4xCREsrLdPkMNwm1o2vycXJjISbdMhLJk+LwyW+3In1GImY9MAEKdbdjg4QYF2MOJ+tvTIzZbN190c76nlv0vYGETwT8qZ4y639yOe93PIcd63u8BNpQCTF20sVZF/QLAyHE9GymWGIWQmwocHV1wq+lmed50gV1p0Hw5Xq61oWYzytBeZ0o873dK8qo/iDdJxggaGnSawzJA8ENIetPtCzk84aZ2i1Y/b/b+W7JxV+f7v3DocHQZkL50VocX5sPqUKKEXNTMHZJOgK8osoHeb6K9lfyJclxSzMx4eYROPTRKSbcmnDjt2aek4yWTO5ZMcb6oK/5jgkGFupj1PhkgPU5qW8CwPqlrw02QogJ+o2BEGIW2jRitcFGSU7ZZffSEQ1aNHMUg9bAwGaGFEztdkLGDATF8NDypEqp4u58MpjXgxCjRsOfzxByTxgdF0PigEKGjhtD1sdIjPn6k88bUXG8FttfPIIbvzMTieNivH81uJAgr8ltQO62EtQVNCNjZiKPV4tIDvlSvBr1o7IjNVyExY2O4nFhzRVt2P7CYYy9MRNT7xjNDX1PfH2PGvU7321CmOSBxSe2fILM1+98bSgQQkzQb/S3EKPByRfHY7aYeSyFxUxLSDZuOIUQGzj8KaBVJmVNDrVa1R3QSnE83lI0NHj1haEWYjTsnW1uDy8CTv3Nd59g4PAZO58x9BlAX586/NEpnoX+yVdXQjrIQfrUF2ijAGXzP7O3ggfjT797HOLHREOh/nISVuorDUUtTDgeQoBKjmXfn8Nznu16LRuNJa144G+3XPTvfI3fZq/LL8UOkQGH9TbflbN9jxo/5L0cbIQQE/QbAyHEfN4KHszKBBg1iqUgj5jPcAr6HzKK3FPBmiJAwT1hJMIoyJVm99e6ECPOGsEeBlEwuJxvBCntA4kadZASy743hx8fDOj8W/Q2lB+vxTEmwkgYZc1NxvilmVDqLl5snOpJbvj7HgQwsUUbC4KiA3F6ewkOfnASi78xHenTE72PPJeefc533XdbMDj4xrDz++BQIISYoN/obyFGXZOWCCiA1be92yfMeLcVXXfA4IMTG6jOxlF4Y3h8cTx9HbCGgxATDD+q8xqw5bn9mPPIZGTNTvYeHVgoGJ8y4+esL0B9UQsvEj/+5hGIGxFxybQZXc3dCVs7G/VY+OQ0xI2MhKHNjM//uhtBUVos+NpUqC4i4lxsEtlgtvAxjEYxGs+EKR48VGwyqfWOZb7WU5ANNkKICfqNgRBivtgJiqPgsRQuiuH5Ir5CMDD4BiXfIMUFGCU+7KedRUKICc6Hft95W0u4ILr1ZwsQlhDsvWfgMHdZUbCrlNeCdFgcmHTbKKRMioMmVHXJPm7sMPMl1NLD1Vj89HSkTInnv4tDH51E4Z5yzH9iKpInxPLfy/nQuOVkn/VER5f3iGCwCWKnJUrunVxKyPPfXR/W1wYbIcQE/UZ/CzHCJ7h8cTy+7iq67cDjG5Dokosv+uc1LH0drIQQE5yPxWDDpn/uY/1CwWs1UmmggcJudaC+sBmHV51CV5MJSRNieJA9veb5gfXnQzFkx9fkI3d7CaavHIuxSzP474O8ap/9YTvSpiViziOTIAuQev/iXGhy6XC6cKpL7z0iGGxUTifC/Dx81y7lEJMxUUbnsD8mmVeDv8lk8l4VCIYf9KPgQoANjrRM5lseo4Bx0Qa2+b7rszvamAjznQ+BoL+xGW1czFBJIAqSHwhcLjdaqzpw+ONTPGEs1X1c8LUpWPTUNJ6v7HIijDzy5EE7tbUY45Zl8p2U9Nuwsvd+fF0Bryc5/uasi4owH90LkoKhwul08LhjnrJmGMQb++v1el5PsqOjw3tIIBhenBVj3hmLaIPfhAATDDQNxa2QyaUISwjifa6/cdicyGMCatvzB1F8kAp0j2ACbDoyZiRByl63NxQfqETO54U8nQUV8JYrZdyIV52sR9Wpei7MQmJ13kdfAuHRH1JoGdxOu+9JiLHrQ73C4h8dHc0zG1N26bq6OjQ1NfGSH/TmBAKBQCAYaMgQFh2oQFCMlmeu7y/oeUkoUWb8zf/ah8OrcqGkHZnPzGFCLIsH1fcGeh7aSJC9Og+B4RpMvWMMNMEqftzYZsGZ/RXQRWqROSvJ+xeXZqgN/1cdqidrtzv4xi9fHPJQnhM+7QgJCUFMTAy/pJlIV1cXGhoa0NLSwtMFCAQCgUAwUJg6LGit6kR0RvhFdxpeDZQO48jHuVj9h+1or9Nj4RNTccuP5iF2RGSvvWBkoGk35b63j0OhkfPi3dow9dn7Sg5Voqm0HdNWjuVLk71BCLGhhZI2dy9JDo9NX+f4fylhY3h4OMhLRpm0+UyitZWLsvb2dr6eKhAIBAJBf1JzupFfxo6M5Jd9hQLqSSDteOkwCvaU86XEZd+bjYxZSZdMSXEhjG0mHHjvBKknzLx3ApQ9NhEY28w4tfkMEsdH89i2wV6+11ccwfo3Xsca3t7Apk93oLJRD9dFxYUHbksLTm74GJvW7kZtqwmDFx3lgqW1DrXN+l5GyLlhaixC9rqPse6Nt7B96xG0GPtRgwwjMXzBhXjyipEQi4yMRFhYGE/kSIFtzc3NaGxsBMWV9UR4zQQCwbUOzYxFG9zmg4RYgFrGPWJ9gZ6zo0HPvVc7X83mHg/K5zXjnvGISA71Pqr3mPVWHPzwJM8VNuXOMYjOijgnfu3U5iL2msDIeSkDusvzYuhLj+HwwSZo4lMRlxAO/Zm92LJqB5r1jouIHQdajn2GDdltUIdqIelxDgYcjwV1+z/FZ1vy2LvoBZY67HrjNeTUOBAUFsg+2w6seW8f2qzXX9iU5LcM7/ULQrumVCoVL/hL12lNleLJKI6MSs4YDAZ+qdX2bq1dcP1ybG0+YkdEICYzwntEILgwuVuK+c6ykfNTvUcGFzLY5DWwuVxwUHO74WTNd120gW1chLHGhVO9Hqe3liA6MxxpUxO8Z+jK4KWJTHYehL/luQN8qXPckgzMeXAiT9Da22VIH/S+6PmOfJKH0iPVTMxN4+9NIu0WYXQ/icejq08ja04yRi5Iu2DOsAtBf0t5xJrtfffu6MtPoKg5Fjc8uBQZ6WmIjfJD7rFTUKWMRozOH8bWFnS2d8Ji9/Dfm9PYiNPrP0ahbhaWL5yI0GAF7IYOdLS0wWi2M4Mvg4x9RpfNiM4uI5xWEyixglwhgcPYhY7mVhhNVnj8aWe1BG6HGfrOLtitFnS1suew2OEvC4BU4gePyw5Teys62tphtjjgL1dBGxmPxOR4BKnl7DVM6GxpQVenHla7G5IAGSS0MYh/MjfMZzbg3U0q3PmjBzF+zAgkp4ejYudn6Awdi6QoDXr5dV8YmxVSu53Hx1MKC9ol3rPe6WBzRXnEyPNF6S6o/h8tW9Ib9l1SjJngq81A5BETXJ8Mh1qTzRYrqkxm7xHBYBLFhFG4XM6NX9lhKpidg6XfnXVVRb4dVgfqzjQjb1sJr/uYOC4aY5dmIjIl9LLpKC4G7bA8vi4fp9iEgQQd1ZvsianTjF2vHuWpMO770028xFFvIZtpZbb0tLHvfa9220t4d1cIHvnVnew7taPmyAas2V6FuQ/fj8DK3dh/uBxmsxV+gRFInTIfiZ5CbH71deRLx2L5XQ9gUroRR3Zko7mhDa4ALbQJU3DTyumwnVqN1z84juS0RCjCZmHGDD+c2nkINZXNcDJBpYmbgAW3zoaqaQ/eemUDgpMyYGtuQFunByNvewRL5yWj+eQ27NqUjS4msiAPZ+fkRoSWfIRV5gX4zeOTUXd8N/ZuPY5OJuKsrnBMWbkSMyYmQM4VFvuOitbgT38qwa2/fQpjopUw1JzEJ/96GwELvom7V4yGsg96ydPVCYXRAJ0uCNpALXc2+cTYUAixy/ZSiguj+DBakmxra+NLlOQZCw0N5bFktHRJqlIgEAiuFUiIXcEcVNDPOJ3d6QOsZhtaa5hR1MgRmhB0xefE2G7mOyF3vZINfbMRM+8bj3mPT0V0evhVizCicHcZ8neVIX1aAsYty/Ie7YZyidXkNaGuoAkTbx15RSKs/7GhsXArPv3Hn/H6n/6M1WtzETliGmJRiq1rqpB5z9P42u9+jXvvHIPqbVthzZiL+XMyEbv0fiydq8PJNQfhSF2MR3/7WzzxrRXQle3G4eLuVFZ+smCkLliJm2+NQ8mWA2jRTsL9v/o1vvbMfYjpOIFDp2q6HycNRNz0W/Hor3+Gm6dFou70Geg7qnB03UEEznwAj//6d3jsG3cgNUrtK7dNP0B4IIMqWIeIjDGIkrai6GQ5bA7f+fdHQOJMzJ3IBO8Lf8Prf/43tuzMhdnpDycT3tfbL/eCPZU8X52dnTxIn+LC6LZPfJHni8QXufMIuqTdlgKBQHCtIITY0OJbXels1XMvVlR6KCRy/16dE3qM0+5E2dEaXnA7f2cpkifHYdn352DEvFQo+iCM6LnJu5a9+jQvsTRlxSguEntCZZFObjqDqIwwXg5paJEiKHYcpt80HyHGcpji52LhskkIaC/DqdP7sfp338fvn3gSf//dSzhdU4r61i+8cA59E8orT+DA63/C/37ta/jf7/8v9h47jILyNi50JBFRiI0NhZ+lE9UVJ5D90XP481NP4g/f/RW27N6LvNJmHujvrwtFVEwY5LIAaHQqprLtcHTUoLFBiZRRyVAHyKCNTER8YhhkXHF4YGf3Z+87DmvUWEwYFQuP3QCL00l3nsVPEYlZj3wb9z35CG68+3bMXTIHcfEKqMO17FNfX5wVYj7PFyV3pZ2S9CMhV11QUNBZz5dPfAkEAsG1jxBiQ4XNaoWR2Zj2ug6+vBc3OhLSXuxmdDpcPCfYpn8d4JnxpQESrPjFQsx/bApCYnRnY7iuBvJ01eY3YfvzhxASp8Pir0+HNlzzpaWq09tKYGgzYeyNmTwbf2+hmDOqUUkxcZSqQ1/RAbve6r33apFAERiJ2KypuPHrjyIwfw8KKroQEJGEjLQ5uPsPz+E3r76O37z4En7zz79i8ZgvNizItGGIiRyLuU/9Er965XX89uWX8cu3PsYzt2Z84bliSJWBiGKCadp9P8DPXn4Vv33lFfzqzQ/wP4/OuOiSmoS9p9BgMxqqGmFjAsuqb0N7mxEu/pPzwNxeiyarFFmTJiJlzDhkpiXgS9+kxwFDYwv8QmMRkxgFNOWhrjUCI7NiIBv81cMBxZ88XyS+yPPlW3YkD1dsbCwXXxSkLxAIBNcbwiE2dPASMxYLWko7oQ5WQhOhYub54ieEPFWGVhNyN5/Bxn/s47sYp945hidmjUrv205Lgp6/raYThz/OhUwpxewHJvD3dT70mPzdpUieyMRB5oVf12lzcqHWUNyC8uO1OL2jBMfWnOY7OWkJdet/DmLbc4dQ8s5JdFX2V0UbPyjipmLmbDVyt+1Fq3oUFt8YiLzV72MtpbZ4fzVOFjbi7Mofw18Ti1m3jIE5fwfWvf461r79PnbsPAWT89yEFv7KMExcMh4BTdnY+MYb7HHvYtvWY2in4P6LIFEnYcKNo1Gz7UOsfu1VrH5rFXv9Ju/r+0EVkQI6bdmfvYsNH36OwopGfPnZbKg+vAHrXnkRq154Ees3FSFp+R1Ij1aeIxSvB/yYCPOQp4tyiFETCK4WEawv6C1DHaxPu7+bzBbU2S5uTAQDh6u5CTKTCfkf1kEXocHsh8dDG6rlqzAXKm9EOxRJzDSWtvGA/im3j+JeK4n0ynKCXQy7xY6Nz+5DW3UX5j0+GSmT4770PlwOF/a8eRyVJ+uw/IdzEZESygWXobXby0VCUd9kgLHDwjcQWI12fumwOhGgkfOM/LpIDdQhKmiZ8GwM8EAZrYVcc/UrTZaWStS2yhGfEQ0Fe7uWjlrUN9oQnpwEFQyoLylDW6cZUIYgLj0VoUEyGCvPoFEWj/RYHfxcVrTXVKCmugVOqRLBcclIiAuGs6sBNW0uxCXEQSln37Hbhq6GGlSX18PuHwBddCLiE8LhZ2lFbYMBYfFJ0Cr8YG6qQbNRhtikaPi7jGguL0VzqxF+qnD2+omQ66tR5wpDZnwQzC01qCyvgwOkPWSQB0UjPj6M77jsxg1Tcw1qK2thtALqqEQkJsdA2b2+2SeGW7C+HxuQPPTiAkFfEUJM0FsGWojRMpPT5oJU0b0l/Xz6TYh52OtYmQHu1MPudMNfqoBKFwiVUg7/iwzofMt/uxWq0GDIpUM4t/e4YGPGyKA3wun2g0ylhS5YC+nZvAAe9hAnExR6GI0WuD0SBATqoNUoIelT7gDA0dgAT4MeJ96qwLjl6Ri7LIM7AnoKMTqHXc1GnN5egsK95UyoqTF5xSgkjI1GgKr/AuTtFgd2v3EUNXkNmPPgJKRMieceMhJeLnZO3azZzA5UHK9Fzvp8KLQKJqxkMHdY+f20KYBONV1S7UkSiJR5PzReh0AmMoOjA3lqC7rfn116/DysrziQb7J434FgsBl2Qox1OOGgF/QLQogJestAC7GuZgPPaxeVFoaI5BAERQVCpvgixLd/hJgHjq5aHN+8DkeyK+GR+zGjHQDdqNlYfsd8RLLPdyHMFVvx6v8ew+I//ggjI3oKCg/MDUUobQlE5pgYBAyoPXDD2pCHLZ9sQ3VdE+w2B2z+YZj/jW9ienoIj/3xuB1oKTiIvZv2oLrdAo/ZBP/oCbjh3hUYmRh0UaHZG+yN9eg42IjGnE7Menwczz3YU4hZDFaUZtcgd1MRbBY7smYnY8ySDC7G+gvKPUa7Lk9uLETe9lLEjozgtSLJk8W9Wy1G1swwdZjgsDi5GFMFKRAaFwSlNgCaUBVfvgxiQkvDLoNjA5kQu7xA7M/0FYKrY7gJscsmdBUIeotI6CroLQOd0JUM6a5Xs1F5op7H6lBAuNvl4UtEcoWMG0OTwwmDqw9Zuj0utBftx47t1Zj04Ddw68obMSIrFhLIERoTCTX7fBfC0VmGnL31SFk8E+HqnqsRbjQdfA/vb3Fj/Pw0qAZYiNkaS1HpTsQNd9+FWQsmQlu/G5tzgzFpRlK3CHS70FlfA5t2FBbduxLTJsSj5dhB1DojkJUZ3cNzduW4uoyo21PPhUvG3DgEKLuTavqxfy0V7by4dh7rI2EJQZh6x1iMWpQGRR+W8Mi7RcuIFCRPdSMrT9ThzL4KFO6p4LsvHVYXE382vuzYWt3J+4qCia3IlBDugZPIpUyQmXmx7ymsjZiX4o0Ti0BIrI4H7fe2dBL5PvoroavgKqGErg4HFAHXYEJXgeBSCI+YoLeQR4zSAtz+q8XeI/1La1U7Pv7VFrgomSSDlobIi6ENVyN+dBQyZifCHiRDw3lb5q8IJsRa8zfhvVd3IXHZw1g0LwsqGYkvP/jDiZoD65FdosGC+xYjxF+Po6vXoTFkMman1eD1n69ByNQENJeWAlEzsPyJOxDRvA2v/vMdlDZqMf2hJ7HyrtmwF27Dhk+2oKpJgvSld+DmW2ZA0XQEb716DJFpDhTtKYZ89AIsmq5B9qr1aFCMwi1PPozxCQGozd6I9Z/uRLPejdiZd2D57fMRHRTAl9HYm4fH6YCdlhtllDbCgead/8Y/943CT369FMHcJeaBy+XgS5JSeoylDQdfewvlQTOx8p5p7LNefayO8XQtit4tQNLUGIy9mYlONRMyfjIUbi/j4sjJRArVdUycEAtVoOKiWevJfHETRv9RYwLboreiva6Le7PaajpgaDahq8XIxJibPa+LizK6lLD3T6koqEYkZccPjQ/iRbulcgn3ntIuTikT0xTn9f6PN/AUG/Mfn3bBIP4rQXjEhgFdXVCaTdDpAqHRaKFUdXtjxdKk4JpHCDFBbyEhRl6qoUKuliLppnSEL0rxHrkamAiw61G65zOsY4KnqUuBuEmTMXH+QkwcE4v6be9gR64OK767EhGSDux6+Q1UR8zHLVNa8dKP12LEM9/HjdOiUbbxTWw9LsPyZx6C8sTLeH3/CHzn90ugKN2Il16swo0/fhQjQh3I/eQFHLAtwspprfjv77dgyve+gzlxRqz9f8+hceRdePz+MSh4/SXkhS/FUyszUXb8GNoRjFCNA0fWrIX/1Mdx1/KRUPSwM26XDW1VBaguLkT2uqNI/uavcOPokHN2pXlsXaguq0Bt3iEcPWPG9PsexRTK+9UHe9W4oxRV60sx+5tjEBShg6XZhhNri2FqsyB1Wjwm3zYKukit99EkXjywm+084z0Fv/taV5MebXV6dDboYWw1oaPBwOOwZBT8rZBxQUVL4IFhaoQkBPPLoGgtDEyYbfnvQb7zcc4jk6EL13hf6VwoBuzQRydRfKASi5+egYQx0d57rh4SYja7HWUmMxO6LnYOmDhkxygmjgtLUpWCAYE8riS0JEwIa9gkQ6PV8swQSoWCCe/uZXEhxATXNEKICXoLCTEbM6wU+zMQmPUWFOwuh6c7cRGHvCoURE0ekJgR4QhI18EU3B9VQZywtDejprgAJUcPMLEixbJnnkBo8bqLCLF2vPfH42djxMyNJ/Hxq6sRd8vXkd7wEd7gQmwuWt/9LZ7P1mHu5FiewNLeXIQzFQm4/dF4fPxCGR558TtIdddi/W9ehO3mr2PlvGCceuU/2IUZePKOOBz6dA2qDGqERgWi/vARKGY9gXvvnXDOkqeLCckzO1fjVH4DWtscyLj9cSycHAd5T7Gmr8LeDbtQW12LLnsYJt9+GyaNjLrqpUkXE1MVn+TDUNiKifekoSmvC7W5zQiLD+K5uSgrPuULM7aZYTXYYOq0wGq08cz5Fj273WGBuctydvmQlixJYNGyszpIwXcl0lIhNfJe9VzSpLiwxtJW7HvnOPegLXpyGsISg733fhlK7rrpn/uQMTMJs+4f3y+7NEmIUd5OKhVIKaPMJhMs7JJyq1HsIhdjwioPCCTSpVIm0uUyKJRKqFUqfknLk5S6SwgxwTWPEGKC3jLQwfotVe348Oeb+M5Jf6k/otJCkTo1ATFZETyFAHnEqNZkn4P1zcyI2j1MAGghYbddHcX49PdvQXLbYxhn3NUrIWZqOM6E2Fok3PYNpNV/6BVi89C56v/h+ZwE3HlTFrqlhB8CdNEI9y/Cf/9Rekkhdu+Edny2qhpzv/sU0jTt2Pzv59GWds+5Qsxhg81PigD2/bgdVnQcex/PfiDHN/50P+JUJDjY53Ha4fZIQQWeXZZm5HzwDnIco3D/I4uh7bH54UowtxhQ+m4e/Ji4gguwdtmhjehO7UCGkBKfOiwOWLzpH8hBpNIFQMcEpS5CDU2oGsExtPlChgAVeb1kfNlZ6l1OvBT6ViN2v3YUjSWtuPlHcxGbFem958uQ+Nv3Tg7fLXn/X26+ouStl4KEGHnCnA4nE2M2vkxJoszO+qLL7eJCTDAwcG+YRAIZE11yJr5IgPlixKjvDZUQE8H6gn5DBOsLestAB+tbjUxkFTRjBHv+2Q9OwISbRiB2ZCTPWUVLVmTs+hys73ai+eQmrH5tLeo63ZBIrag+fgAnGuWYuHgqguw1yDtWhoDoSNhrT+LI9hxIksYjK9aEg5/thy0sEoEyI/I2fI5aWyZmL54AeetpHM01IDorAXHxYWg+dAaB4yYhMSEUHn0rnCFpiPSvw4H9bRi/fBpCPHoU7z4GV8ZkjExSoiknG5WIx4RMBcrzSiGPjoMSRpRl58AROQ6jR0d7s5Jb0bDvI3y0MZcvv9m7apG3Zy/ao6ZjepYLh9cfhCM4CPX7VmHzrhI4/CVwNBTg6OFyaDInY1TW1QXr0/euL21H4+4q2PQOHsPnL2US1u3hHlISXbQkGZkWhpHzUjB+aSYPkB+1OAPpMxKROK47kWpIXBA/l+pgVbcIY33pcrUladfjzpeP8CXx+Y9P4cuMF409Y++HgvhPbCjAzHvGIZ59b/0Oe2ky+mT8uTiQyyCXyXkAuWgD00h0UW3sAHZdLpcjgDXykPliw3xtsBEeMUG/ITxigt4y0B4xqkVIAdkX22nXX+kr3HYjGgqycWRHNhq6LAgIScb4JTdiXGYUPKYGZsjX4VRhAzQpExEmsyMgZTImJhuw98MjkIRLUV9WCYSNxdw7b0JKpArOtjPY9tYnaI2aimXL50LWeAx7Nu1DXZsNQVkzseCmuQixnMHn6xox57EliPS0I2f1DjjHL8TULDWqdm1DIdKweFYCqg9vwb69ebBpEhCpkyJoxDxMn+7dEUnYO1F8cCcO7T8Jo12G4MxpWHTrfOhMJdixNgexS2/BiCATCvdsw/FTFbBDhbipizFr1hgEa+TnxJH1FoqD6ixoQfPucmYAXTy1SGhsCIIjAxGZHIYARQAXJv0Nebdy1lOaimLMuGc8Ri5IvaT3jJZFNz67F3KVDIu/MaPfvGE+yCtGjcwvjxPzXhfmeODxiS2fB0zCJhkkyIdKhBFCiAn6DSHEBL1loIXY5ei3hK6CK4KbG7cHjsZGSIwGBIcGQ6sNhFqj/lJC1/7CYXMgb1sJDq/KxcTlIzHxlhHcK3opctYX8Db30clIm5ZwWW/bleITXT1b9x30nzDJA4lPbPmEV08B5rscbPxJjQsEAoFAMNBwo0eihpxR/e/4+hLkgavMqcfRz04jdUo8JtycdVkRRolcT2w6g+isCJ5DrL9FmA/6LnzLkmebVMKDxkUbuNbz+6bv3yfEhkqEEX51dXUemoVoNBo+IxEIrhbhERP0FuER+2pDmfUlBgOCgwfWI1Zxog7bXziE6IxwHhd2uSVGSo+x961jvLblTT+Yi4ikEO89/Qt5wPQOb0JXrzfM5xQTDDwyfz8omBAjeoqwoRJjfgaDwWMymfg6Nf0AKNV/YGCg926BoPcIISboLUKIfbWhWpP+Bv2ACjFKU7Hj5cO8LiWJsLCEi6epIChAnzLr73w5G6MWpmL63eO89/Q/lFk/p73Te0sw2ITKpIj1xiP62lB6xfzJExYZGYnw8HDuqjMajaivr0dHRwdsNpv3YQKBQCAQ9A9k8LqXhr4IlO5PKMHr4Y9O8Txkcx6cyOtDXg7Ksk9Z/eVqGS9hNFCcExMmGBJcbCJGKUNoQnY2ke4QnpezUw+aiZAYI1FGmWYtFgtaW1vR2NjIxZlAIBBcT9DgR9FCEo+bgmXJTQY4HPCwAVq0gWv0HUv9/SHjqQPOjdXpK2RIu5qN2PdeDlqqOnDD0zMQkRp60TQVPmjXYtXJOtTmN2LKitG8FNZAQe+RKgUIhg6Hwwmz2cydTVyMeXetDhWX3DVJWX/1ej1/owQJNGoU8CYQnI9YmhT0luGwNOnLbk6hGZTdnMY7u90Bl6s7u7mg/yGx5c+El1RCCTXl0Hpjkym7OeV18omyq4XSVBz84CTKj9XyTPiZs5J5Qt/LQdn7V/16C8ITgzHvscvHkvUFMvp21v9yuwzeI4LBRm61IIj9zikUi/of9T3SNf01IbhSepW+ggYt8oqRgqSHk/fMJ8poMKPjOp3O+2jBVxUhxAS9ZaiFGM9szsY1ym5uZYMyzYxJhNF4RtnNRQaBgYGMHHmnSHCRHSEjSEk1Kcu5zxBerRCjYt4nNhbi6OrTmMjGoAk3ZUKulHvvvTRHPs1D7uYzWPSN6UiZFO89OjBwIcb6Wa5erDQNFRKTEVqblW9SVDEdQ0leffGJw1aI+aDBi2aQXV1dfBDjPypvi44egMzDgmsKIcQEvWWohRgZQ18iTV5ehjV+mx8TKmwgITtHXjFKpEk1/6jYsi+twNUaQjJjp3eU4tCHJ5E5K4kH2geoLy/C6O9oCXPTs/sQnRmOhV+bCql8YFd8qM9R0e88g8l7RDDY+Om7oDSbERio5YW/fRtFqA8OayFGM0WKGyM3vu9PyJ1HAxjdjo2N5ccEX12EEBP0lqEWYjRmkUH0XfpEGd32jW+CgaHnBJ6El0+AXa0Io2Dr0iPVOPDeCYTE63DbzxZ677k8tJS5+/WjPF3Fg39fDqW2P4rAXxrqZ1Rf8rTR7D1yhXicMDXVoaGhFQ7eVf0gUQUjMj4WuouJT9anndYuNFfXwuDSIC4tAWr51S8BXxlUk1UPq1sBtToAlwnXY3jgsurRWNEEZUIKQtQSuB1mtNfWoKXDArk2HFEJUVDJr140ebo6oTAZoQvUQcvEGC1RDmshRt4vEmA0UPl+NFqmIKlmE92m4yTORMoLgRBigt4yHISY75LSFrg97rO3xbLkAOO1cz4xdn67UurONGPny4ehDlZi4ZPTEBTVO1vkqye569VsTFiehcm3jfbeM7D0XYgZkP/Of/Dx3makjUmGn9OE9pYuBE5ZifvumPxFCaseeNwO1BxYjQ0bCqBKnoCF992E+MDeLdv2HSfKd3yAk4axWHLLWGgklzrH7PfoMKJ8z8d469mdmPGXF7As0w8Vezdg1+ES2N0SwO5B2IxlWH7jeCiYBrkauBAzGqDTBQ0LIfalT0GeL4oHa2pqQl1dHRdZ9OZCQkL48mNERAR345EII+g+IcIEAsG1hG+wpUvKnE5LY9RoMBZtcNr5y5FXYwApC/6+t4/zczjj7vEIDNd477k85A3L3VqEoJhApE9P9B69VpAidOIS3PXNb+H+7z6De1eMRtmmA6izXLhSDgmxujMlQMoNuO3hpYjSXLq6QP/ij5C0SRgzOhryy51itwtthQewa9N+dJnoszDR2lyEXXsqEbf4Xjz0/e/gztvHoW79dpS0XT85ACW/ZdAVEl/k/TIYDDxwlX4gFIwfFhbGL+mHIxBcimNr8xE7IgIxmRHeIwLBhcndUgxZgBQj56d6jww+PuMv2vBoVwJ5LvXNRux5/Si/nP/ENMRmRVxROaKCXWUoOVSFaSvH8DHrSt/D1UDvmwrSm7osqKnr4BsMpErZFb62HS25x1Bhj8CkSak8FYjHUIVD+9oxZul42Iv2Y8PL/8Wqdz9FXokemqgwGI+8gTfe3oGa4nK4orKQEeFC/sb38MELr2DL6n1okwQiPDoMroIP8fvfbERzzVEU1wHRYW5kf/gyVr38OrZszYFdEYHIuBA4i9bjj7/6DC0th7Dh+RexbkMegkaPR4zOH/qybKz77z/wwRurkH20CgHxibDkfIbd+RqMnBiB9mPr8daf/ob1H69D9olGRIwZiRAV+w7YJ/N4XOy7MUIXlwBXWQO0s+cisOEQjraosWjJLIRqVVCFB8J6aB0KdZMxLinwqorPw2aF1G7nQfq0ukf6puekYLDxb2tr454vEmHUSYKCgnguMfJ8CU+XQCAQCIYTZKfMnRYcXZ2HpvJ2zHlkMhLGRF02V1hPKNdYzucFSBgbhcSx0Vf0t1cDia/W6g4u/I5+ehpb/3kQuX8+iKZDNXA7u5fFrwwXDOWncGjLZuxduwprVx9G2LwJCGw5iR0bTyHuth/iV8//A7eMB/ZvPICAaY/hzltmY+LKp3HLkgzUHlyNg5VRuPsPz+FXz34fuqod2L27GBabBfpOPaLn3oWblmWhet3byJfNw1PPvoRf/eEhWPZ+iD2nmuF02mDsaEfoxPvx7X/+A3dN6MDG7WeYKC7Ehne3QjL1Yfz8+X/jsftmQenvhtNqhtniYOfODpNRiowld+GWJ+5GmvkANh6uOxsN4OcvQ0TmJIydmAaVTMJElguWVgMUfioopbSJgol2qRohsX6oa9FfN1EEvOg3beGkYHsSX7RWSspQIBAIBIJhB7O+x9cVoDynDuNvykLShCvbKOZiwid3SxHcLg9GL86AYoAC9CkGraNOj4I9Zdjz5jFse+EQdrx0GMfYe28saYM2PRghoyOuWgS67RYYW6pxdMMW1Com49ZbJ8FWVYjKE6dwYu2bePfZ/2D77qM4c7wIjV1W718RJlQcPoCKsmxsfulfePu/b+J0XhXqCstgtHmgCh2LrJFxUDobkbsrHy352/DZc//Aey+tQkl9NUpP1cDCzoFUnYaM0XFQqXWIjAuGVW9Ae20xauSRmDg5E2qmJSJHT8LotKizAfoeSytKsvNQ39QOfUcnDCYz9KZLLTH6Q6aRw87+Odxeweq2w9wBhOpUV+cNG4b4k/gSOcAEAoFAMNwhb1ju1mLk7y5D5uxkjFmcDqms944D+vuGM808SD99egJiMsO99/Qdem7awWnRW3FmfwU2/GMv1v55J/a9dZyJozrEZIQjdUo8JFJ/RGSEIvW+MdAmBV/RcuoXSKDLmo7F9z6A5bfPgNzeBbefH6RKNYLiUjFh0TLMveVWLLrvKXz7Z48gI7JnpQAZlCEhCBsxE7OWL8e8W2/DLd/5Pu5+cDaCekb6y5TQajWIm7qIPdctrN2GO575Be5dPgJK70POxQ+SAAX8XU7YHC7+fXiYeKJ0MOwqg303Nadw6IwaM+9eifk3zseIlNDLiCkpguMTgK4ONOkt7HnccLbV4HRlILJSQq4fIea9FAiuCfiPW7RBbQLBcMBpd6HoYBWyV+chY1oiz5yv0AR47+0d5k4rTm4+w8XPBCYork4EfQH9PkwdZjRXtCOPCcT1f9mNN59Zg/3v5MDQasKoBWlY8T+LcM//LYM2TI1SJgBTJsfhxmdmQhWh6XM8kp9Ug/R5yzDSrwqbNp+GNmMa0jJ1qKmqh9loQEd1DdrNNkjPWeVSYdSiWxDTXoq6xk5YTB1oqK6G2RPAHtfj/chjMf2RhTCdKURjhwG2zlbUl9bBqVLgwhsfJQhOnYxZESbs+OBTHN1/AHs//AC7cyq8S4h+CAhLQJKuDfkHj6E0/wzqWoyXWV6UIDB5Cm4Y6cD2dz/E/u1bseGttbBOX4ApSQNXhmqwORusLxD0lYEK1u8pBoQwGFr6K5B1OATrC64dKOVDTV4TEzjHERwTiAVPTkWA6srSL9DYUX68FgW7yzH5tlGIGREJ/6tYFqTnsehtaChuQUVOHU5tKcKJzwvRUNQCbagK6Uwkjr0xA5NXjELiuBgu9k5sKMTJjWcwckEqpt4xGopAOZrtDu8zXjkelweKiHjEx4VCqtAgPEoFg9Ef8aNGIDU5As6GYhQVVsDsH4KkURkI1Sr4UqkmOglxMTqoQmMRHe5BTf5pVFe2QJUwBqkpkVBI2ORLGYW0rCgE+Emgik5FlLwVFXn5qKk1InTUBCTFBUPK5JM7IBRpI+Og8GN/43JDEpSEtLQ4xGemQK6vRsmZKrh0iRg1PgvaAH8owxORmJWOlEQpqnJOockAhMQnIC5rHJKjmCj1fjYO+45dbjnCR2QgTMc+X2oGghxN7DnroUiZgcU3T0ew4ko3OfRgmAXrX1FmfYHgUgxEHrGeSTbPb4KBhQYkX/P386cJ7dm0NX0drIY6j5jg2qK9rotnv5epZJj7yGREpYZ233EF2C12fPiLzUwsqbHo69OuKNUFQTscW2s6UXGslgmYJhhajPxYZEooEsbHICI5BLooLdRBXyzcGdvNOLwqFyWHqzGeibPxN2fxjP99yiMm6DPDLY+YEGKCfqO/hRh1TaPDgZIv1WQTXXYw0DLRFSXrzvXkmy362vUoxMRQOPj0ph8Z203Y/NwBmLusmEc7JK9ilyPFKZ3cWIjja/Mx7/GpPD7sUq9NfYGWQh0WB99hWXywClUn65iYc8BfKkFYvA7pMxIRNyqKCyupnP0+eixz0t/TkuX2Fw7zZcupd47BqAWpkClkfHIphNjQIoSY4LplQISYzY5CgyiOOxSomMGIZLZF5k10SjUBewqyvjBchFjP4U8MhYNPT6N3IQNIHiVK2Fpf3IKFX5uG5IlXV0qPxNDnf9vNRFwMFjwxBRImpi4EpZkg4dVe04XG0lbUFjShs0GP4GgdguMCEZsZgXgmBHURF/emkdBqLm/HXva+LV0WTF85FilTE/hSvO9+IcSGFiHEBNct/S3EaMAyMCFWZBTFcYeCAIcdQXY7j6HgRXHl3RnRfWKsLwyHEkfkbW1j/asnYjgcHHRM3GuYGPJ5V3s2HxajjecKK9xTjpn3jMPIhel8x+GVYjfbcfDDkyg6UIm7/3cpE1Vfzo/ZUa9HfVEzmpj4aqns4EuhofFBiEgJRXhSMKIzwvlSJnm+LoXL5Ubt6UYc/vgUrOx15x2+MXsAADSISURBVDw4CUnju+PEfAghNvRcc7UmBYLeMhBCTG+1odgkBqyhwN9shtKoh1ql5tU1FMruwFYqTXOtCzHqWy1WK6pMFu8RwWASKZMglPUjX1/yGUBfo/OT83khjq0+jdGL0/nSnlx55dVdyLxVn6rHlv8cxNglGZh219ju424PnDYXD94vP1qLlqp2HoAfoJbyvGSpUxIQFK3luzLJk9WbpVB6rbr8Jp4vTKaUYv7jUxBD2f7P+60IITYM6OqC0myCThcIjUYLpYpNNIUQE1wP9LcQo2TDemYsS8w9kxEKBguPQQ9ZRzsfqPisUalEgEJxdsDqC8NBiDVbrKg2CyE2FAR73Ahm9k4ml0MmpWXvL+pOUqZ5yru14R/7MOHmLExbOfaqRBhh7rJg878PMNHlxPzHpjCxBDSVtaEipxYNRa2Qyv15WonYkZHInJXMvV9Xg93qwJl9FTj0wUlEM/FFqTVC44K8954L9T2b3Y5SJsToOo1zbje17o1JIgR2AGF9zs+PCX9mV9ROBx/XaJKpZOMahV74PLSDjRBign5jIIRYFzOWpawJBh9XVyf8W1ug0WoRpNNBRQMWLVFeB0KM+hYJsRrRt4YElcUMDRMftCQUIA9gAr/b0+rH/lUxEbbr9WM82ersBydyoXS15G0rwa7XjvC0OspAJRpLWpjg8fCdjlFpoQhPDkFkWhiU2ivLR9YTKh6et6MUpzYUIm5UJKbfOx5BkVrvvV+GBJfD4YCdiTErEwRmkwkWdmljzel0cjEmrPLAQOlKpEz4y+UyKNhYRtn/6bKnp18IMcE1jRBi1xfOzg54mhp55Q0KatVoNdeZELMwIWbzHhEMJjJ9FxR2G7QaDTeElM9JzgRZc1k79r5xlD3CD8t/NA+BlwiKvxgUcN9S1cm9aqe3l/JdlyS0otLDkTIpFqGJwUwoaaDSKftcY5Jiwg68m4OC3WVIn57Il1AvJxx9XjCnw8nEmI0vU5Ios9vscDFxKkzywEEii8Yu2oAkZ+KLBJgvjxiJMCHEBNc8QohdX/iEGBX/DwoKhlqjPieotS8MtRAjz0OT2YK684L1BYODp7UFcouZi3zytFK/suld2P1KNmwmO254eiYie5krzGF1suaAvsWIsqO1KM2uht3s4J4qiUyCqbePQcaMBF5TUhpwbpqJq4XMpqnTgoPvn0DVyXoexzZuaSbr04rLGnL627NijPVD8o7RJd2mEkmCgYXOv8RfwnfOytlYRh4yuk7nzdcGGyHEBP2GEGLXF0KICQYKJ+tXUpOR9ysN61f+bhkOvZOHrgYDD3JPGBfNvRMXw+lgY0OjAV1NRlTnNaD+TDMvKaQJUSEsIQhylRwlhyqRNSeFJ4DtT0hEtdd24cjHuWgoacGk20bxjQAXS4lxIeg5qJH55QLMe12Y44HHJ7Z8HjASZeQZHSoRRgghJug3hBC7vhBC7EpwQ1+Th6M79qOmxQRJUBxGz5iDrKxYKC+YcsGBttP7caglGDfOHQtZP3hprgq3A82nj6CkWYOxc8byUjTn47G1oWDbRtTG3Ygbxkf0S4Fie2M9JAYDgoODIfdToHR3HSqPNWL2QxOQOTOJe7LOh7xFlOOrsbiVlxdqqWhHBxNuukgNYkdEIjwlmAfIq4IUPGi+jomzW34y/6JB81dLa1UHdr+eDX2rmZcrGjEv5YpEGOETXT0bBemza95HCAYKJrfof2eFV08BNlRCbIh+/QLBMMfdgB2/ega/fvwx/PrRR/DLRx9l15/AP/7xLipbB0oYemBvLcLq597G0bI27zHBtYDHWoXt/3kVpa5YjJs5HXE6E7LXfIS8agOTaBfCBUPVKRw5WQbX+bbX0YGT776NzTuK4HIPsGH2uNBZfhr5OWWwOs9/LSYLXGZU71+Lj195DcfKO73H+w+X3Y3KIw0o3l+N0Tek8Yz3JMJ84oQ8RZQHrORINbb8+wDW/nEn9r51DDWnGxCeHIyl352Fm74/BzPuGYcRc1L4rseW8nZU5tTzpcKgqIsHzV8p9H6onuT2Fw/B2GHFnAcnYsTcKxdhPfGJAB6b5P+Fl0a0gWtD7f26EP3iEbNYLDyIV/DV5rr0iHm6cPLF57BbNgfPPDFvgH+8HtgaTuKtZ7ch7ZFHsHBUpPf40HAte8QonYCx1QRVsAoBStmXgrL72yPmqt6M3/8kG8v/9AwmxGtBTjCn3QaPTApbYxXaZdGID1ezAdeKttJquKOiYdr7Gl49HYwnV0yCxeyCXBeBmLgwOJvzsOFf76A+ahpWPHgLksLlsHQ0o6muFXa/AOiiYxEWooHbyI41GOAvccJkskEREo1AuQ1tze3wBIQhJjkaKqkLxuY6NNR3wOUvhzoiBjFRQZD4+rHLiuL1b2J3cThu/9YKBPvr0dzQAUVYDIK1MhjKD+OzVVvYez4Fy01/xc/vyOg/j1iXAYYyF4q31WDM0nReJDsgQA67hX2edjMaS9pQll3Ns+rLFTJow1WIyYxAxoxEvtPxQlhNdqz69RZefHvB16ZdMgP+lUAbAMpz6nDgvRM88H/hU9MQkRTivffKIYGpp6LfJDjZP9rJ2W2KB1h4Cxh+kLPxIICNYVyY+YTwEIozyW8Z3utXhM1mg16vR1dXFxdiWm3/zTwE1ybH1ubzbeI0WPYHNDDZmMFsZ23osKHx2BFUShIxfWIS+6G6YGosxYmd23HieCE6rHIEhengMdXh9KFDqK8px6kDR1DdZIbE3YmCXTuRf6YB0tBo6NT+MFSfxpEt25B7/DTqO9wIj42AXPLFj99lbMSpw+UIGT8eSSH+qM/NxpkqM0Iigwd9+cptZQLYZOS7ihQKJeSU88krwmjg6gu5W4p5osyR81O9R/oXyoxOHpS26k5mnG2QMmWk1Cm893YbQpPDCQMT+/2BHxNcXad34XhOARob2mBzS6AODoU6wIIz7/wfPm5Ow5xREUyI1WPH//wfyhJnIcaUj+xjlfCY21BZmIe8g8fRpY6B1lyEQzuOos1sR2DmOETYS7F/0y6UnClDQ1UZSopboYiMgad0I978yydothpRf3o/9m3PQYexC/VFx3Fg0wF4ksYjMVCPk1t3IPdUIWoKTiJ7fy3ipo5FUIBXSHucaCs+ico2NUZMTkTtno+wdV81dEkpCOe7CgMQnZmBoJZcVATNxOwRobSq02dcRgP0ZzpRsasJsaPDMWJeMvRNJpRn16JwdzmOry9AbX4T34GYNjUe45Zl8gle6pR4Hgd2MU7vLEHF8VoeoE9jUX9AyV9p9+Xhj07xrPzzH5vcJxFG45qL9b98JkTbmBhrZ62D9cUONs51OF2iDXjr3hjhcx35+527U3IoxNgVjaZcxTPx1dDQgJaWFi7AKPdGaOiVV8IXCK493LA0FmDz6h1o9egQEa5E04HN2J1dBltHBQ6s+gjZp5mR1HhQuPZNrFlzDHa1Fm05W7BjSz6MDhPqz5TDrgxFaIgfKta/hV0FHRdZuvKgo+QQdm88AL2LhM/QzNSuZUiMnd5egj1vHuNJPXe9mo3q3AY4bP0v7P1UCVj09FOYMzEKpqpj2PD8X/DOi2tR1X7p9Bj+YSmYedfjeOB738Ft88Jw+NNsyEbOwZSxo5Ex/04syFCgYPcRtMhH4qZvfAv3PHUfsuTVTMAVs/HYD6qQREy89QHcyY5HoAFImIkVX/8Gxsd3oqysBU7aHcbEFo3V6qhQuAqPo7z5Al5AF+ub+1dhW6ESs+5cgZGJIZAwsa0IjkJsQhQUV1Fa6FKY6h2o3t/q3SXowdFP8rH71WM4saEQTmYsxy3NwrJn5mDhk9N4SojEcTE8y/2laK/X4/SOUsSPikLihBjv0b5BmwJObDrDSy1FpoZgzkMTEZZ4dUlfe9IPC1GCPuBgYoxyuFHaEPKOD/X5uOyvi8QX/Yibm5tRV1cHo9HIxRcFWcbGxiIsLIzPmAWC6x6XBVUH9qPJpEHm6BFIHjkGIzLlOLj1GDrZD1kSEY8xC27ArEU3IC0xAqro0Zh0w1JMZEakq7oRVrsHHnsbTu/dgZyiFnhs1civ7PA+eQ88dugr9mP1qzsRueRezJmWCvlQBXMPILzAcpNxQJqxzXx2cLUZ7Tyb+qktRVj/191478frkbO+AJ2NBn5/v8BeSxmZiWkrHsJ9P/wFvv2b7yK45QD2H6zApaSYJIiJcp0SUrkWsekp8G9sQKflC2nuZuK9uToXh1f9F39/+kn87umfYO22QyhrIAHvhwA15XjTQKZQQxWogjZYB3mAEkqllIkcO9pObsWGYzZMu/dBTBkRAWZ+mBE63+jYUJe9Ee+/vgmyxHFIiQ2CdICEP50TY0MX6vbVw9xmh8flQXNpJ319mHzbSNz7x2W48VuzMGFZFvdoqYOVvUo3QUvRuZuLoG828iSwASq5956rg96nxWDFkVWncPSzPCRPjsOip6bz+pN99ZjQc7vpAwuGDEoZQrqGhFjPXatDxUV7OC09trW1cQHW3t7Oj1GsSGRkJMLDw3lZAIHgK4XHxQbnDtQc3YH1r76Ej59/GVv3VyOG/RYo4NpPIuWFsf15jhopL5lBXoXueCoPHLVHsObDGsz41i/w6MOLEBLgzw3Ql7BXIXvLLrTaVZCxSY4/xS5477qeoBIzr39z9YC0Nf9vJw8E7wktMVF+KX2zCQW7ylB1qt57T1/xwNlRiF3rDqKumYk71g+kUiUTRkxE+EmYyJLC0dkJCxv0TS3N6GCiwYerowVtnRY4bHpUnymFJyYGwUpaKvHA5XQwsRWA6KRxmHjrk3jmPy/jt6+8hB//8z/4yeMLILvs8rADnbXVcMamIi05HnGZmYjRqC7Ql/ygSJqJB37+dUgPrMa+7EpYnW449E1oqGuH48Iu26vC3mVF3Y5yODutCMvUYtQtyVj43cm44ZlpyJqfzJciqZyR/xV44Oi81hU2o+xoDcYvzYLuElntewvFF+576xjyWT8ZvSAN8x6dDJ4jrL8EqhBiQwp5wXglA8rh5nJyITaUSH784x//lmI/CFKJ5PHq6OiAyWTib5aCc2npkWLAKPtxX2NDBNcv132M2KRk+NnaUWcKxeKnvoGbb12EjPRUpEwdjWBnE07nViJ6zDTEaD2oPH4Uem0mRo+KhP7MERS3BmNkqgNHD5kwYcUcZhA9aMnZi5qIuZidFXLWOPIYsUPVSLr9UcxN6sCRAyXQJqciTBsw6LELAx0jJlfJMP3ucbzIcn+3sKRgNJa0nmPvaHNA4vgYjFmcjtE3pCN8dARM/RQc7TK3Im/Hdhw/vB+5hw/hxJE8uCPHYMaiaYhWWZCzYTOKC0tQ31iP+vwqBM1ewmPEjubVwdVchCM7duFUsQ0TVy7HmIRA2JqKcOzgYbR6EjB+RjxMFSeQs2sfTmYfQ0W9HWGJcZC2F6HwjB3pcyZC69+JgoPZUI6Yi/ToAFRlb0dr4FRMnxiJpsN7kJOdi5ryMlScrkPMDTchLczrMeIxYnlotkdhyrLFSArtQPaOk/CLToRf0Xqs3dbGvs8EmHJ2oCRwRp9jxJxmO6QBMoRkqRCVqURESgjUOtU5fetK+7mNiesjq3LhdnpYfxrLBVNfaK/vwuGP2feV14gJN4/AhOUj+GaB/oLGNafLxb7zLwS5YJCxWuBvs/HJMvU7X3kjX9D+YONXW1vroTdBipAavRF6Y7wQptgJKbgCrttdky/9G3tks/Hdx+fCbetAyf6t2LlpLxrbXQhKnowFD92JVL98fPjuHoy/7zuYFOPC7pdfQG3MLbh75VjUrPk3NhSm4IFvT0Hphy9j075yKBPioWnJg/nmv+Int6V5XdPduybf/td2pD30MGYnunHsk3eRYxuB+x+5EcH9aAx6w7W8a7Klqh0f/nwT94oFx2qROjURmbOToNIp+K43t8fd73nErJ1taG9th8XuhJ9EiaCoaOiYKPB3mtFUXQOT3Q9KXSAkFgtkUXFQO9rRYnAhwG2G3uSETBOKiJhQKCR+sBvb0dzAhKQ6GtHRaji62tDa1A67xx/KoHCEhQfBz9rBJs0u6KLDIfOzoaOxGZIg2hQigaGpBlZ5BMJ07HpjHVo7rZArFfCze6BNSIRO6QvWp/fdCr1ViuCIYPi7zGhv7oBUx94He39tBjnC44Lhaq1FpzwK0cHsObr/8qog7xV5lXrmEdNqA3nf8pXPulKRX3K4CjtePsxTWIxZnHHVmfNJIHXU67H37eNoKm3D3IcnIm1aAmT9/LsjO0tljU4bzd4jgkGnqxMKs4n9PgN5Ld2e49qQCLG6ujo+JaROSG+A3kxISEifB1rBVw+R0PX64loWYh2Neh4zlE6pDlJDv5Trqf8TugquhP4SYuYuK1b9ejNC4oKw6KlpvH7k1UD2j0oV7WMijFJJLPzaVMSPifbe27/0mxDzWNFUUIQO3xK8nwTqyHhERgSdsxP7HGjjRnsj6uo6oYyIR0REIGSDshHIw17aDpPJDrlaDXmvlp49MLfWod0gQVhcFAIk3alY9A4VwmPCLv4Ze4GHhJjRwGvoagOHXoj5k+eL4r4o8J6u0wDV2NiIpqYmmM1CsQsEgmuP4KhAzHt0Cl8m70vCTcHwhXZc0hK3w+rC6EXpVy3CXE43z1dGiWIpPm3BE1MRO8Q5/HqFuwHbfvdrfLJ6K3L27cbBdR/hk9ffxamy9i8nCeZ44DbWYO8bb2Hjxl0oKqqD7cIPHAA8sLeVYsdHG1HWYvIeuxTsvZpqsf25/8UbL6xFo9EJW1sR1v/593jv3V3nbGi5HvCnoqu+2S1dj46O5pekCilWjHZKGtjMRSAQCASC4UJzRTtKjlTxuL/4MVHeo1cGed2LD1byFCeqICUWfI2JsJGRV7w8OlTINJGYeNdTuP+7z+CB730bYzTNOLG/CKYv7YwlPLC1VOB4oQzznngcc2ekQSUdLO+PHySaCIycNg7h2l7saLW3IffTt3CkTA8/+ii2Jhz94C2cqjX3aWl8uHLBhK4UOEneMWq0e5LybVD+MPKWUTyZWLYUXIjrM1j/q8u1nND1ctDyUH8mdBVcGR6TCRKHA0qlimfTl7M+5rMtvVkashpsfLyh4tuUQV8TfOXeMJvZjpz1hTi8KhdRaWG44ZszERQdeNUxZr2l34L1PZ3IX78fAdNvQHok+/zseVsKT6DRGYuRo1TIX/MmPnz+ZWzadBhtdjVCNZ3Y8cYLOJJzGg3lnYicMAHK5lPY/OaL+ODlD5GTWwtJWAzCFSbsfOnf2HrgJHI37oEnfTT8qg5iw8v/xap3P8XpMiO00dEIUrmR/dbf8MmGEyjc8SFWv/0JCpsDkJiRCCUMKNz4Nt799wvY+NEGVFt1iAo0Yuv7B6EaNQKh7kYceu95vPfi69ixfh9aEILYxEgESP2Z0PLAbTegoUWNkeOC0VLhQtrUZNitoUhPVaKzU40R00ZCLe/DebJZIbXb+QZEGt96jmtDsjTpvbwg9MYiIiL40qVGo+GijBK5UkJXysEhEAgEAsGVQgaP7IuEiR4/r/HrrQEkIVNf1IzKk/V8V+PV1JM0dVpwfG0BTyCbPi0Bi78xg2fsHwoj3Bdc1i5UHtmFg1s2YdfH7+JYjQsZU2PQtPld7GvNwCN/fRG//uPXEXzmc+wsD8INDzyApLQbce9vv4lU/1Js/HA3AmY+jt+8+m88vDwaBz/ajDqDFTZDCzpdkVj03W8izZaHbRtzEb/iR/j183/HzaOd2LdhN1qYGHaY2qF3BmPut/6AH/3Pg/Cv2YvTFS1oPrEWG/bbsehHf8av/vt7TI3xh4VN7Mx6ExxuFxzsujRiBGatfARLbx2Jmv0bUFLvW7L0g78yChOXzUNskJKLFH91PKbePAcRavl16RHrlaSkHwwtV5IoCwoK4j8iyi1GcWSU7oLcuwKBQHAtoWLjWARrOqcDSpMRks4OoK0V7uYmuEQbkEbfLVpbIHU4uIfV5wWjXHm9xWl3IXv1aegiNUieFAvJFWb9N7abceSTXJzcdAbjlmVh+j3j+G7aaxEPEzVWA7PFebuw9tMCZNz6MKanSVC8Px8dZQfx+fPP4r2XPsKZ+goUHS6F6eyKpQuG2hKUVxeieNuHeOfZ57Bx0xE0Hz2GsiYbIA1D8qixiA4NQGdlIapPsu9r3Vt4918vYNe+HJw5XoRGvZUpCC2iU0YiOlwDRXA0AjUSWJk4rM45Bv8pCzEiMRRyTSRGzpuF2EBp90u73dDXlKA0rwwtbe3oau+EnpKrOq+vuK8r4Yp6MP1gaHcBecgooz7dpiVLEmQCgUBwLaGUShAikyDI3w9ajxsalxNKWq6gZrOJNhCNvluHHSomwJTMltCSpIxd92e2pDfeKPKGlR+rRUedHpmzkq6oqDf9bWeTAbtey0bRvkpMWzkGk24ZCXXQtZumSaoKQdbiO3DLk1/DwlEeNLQ7IVEGQKVUIGLcLMxadhNmL7sZNz71C3zt/vH4Ig27PyQBCshCkjBy/mL2GPa4FQ/gib/+ABNie34ffpAqVNDFpmDc/CX8cfPveQLf+slDSAu/WM1PKeQqBZxmK5zsO6fv3cPEF10SHpcVlSdyYQqfisV33oop08chTOsVaV9Rrmwq0QNaVyUxJrLsCwSCaw3y6lOTSWV8LFOxMYzyCZHnXxekQ1BwkGgD1Og7ppQoFO6iVDAxcAXxOZ0Nehz66CSSJsRg5ILUXsdzUUqKtppObPrnPjSXt2Hhk1Mx4aYRfJfktQ8TS7oM3PjEbWj/9G0cK5Nh4v1L4KooQWOnGQ5zJxqLq+HQqvBFbD6bgKRMwqzkIDSUNcDssMLYUovqDidUvoLwhJ8EYSOnITVdi7raJtisFnTV1vHqEDJ2zi6MAmkLVyAi72NsWLMdefu3YsPbq1HW2R3r6+cv4+koXE1FKDp+ClWVtdBbB2v35vDkgsH6VwL9gCjgTSAQwfrXFx6rDTCb+O+b2vUUrO+bnftik+jz0DKZnH0++pwkzkTr/9bzu5XLuvsTLwVGfcrv0rFiDpsDJzaeQf2ZZiz6+nRoQ3vnAKCNGXUFzdjx8hF4nG7MeWhS95KmbGg2nVHf65/M+ux57P4IGzGC70SUBoZDp7LCqYxE4qjxSAk2ofzECVRWdkCVPBIZKZGQwQ2XJBDJIxOgUWoRnR4P//YynM45g067iv1dFqKCVew9+iM4PglRYRrIVTrEJoTDXleIwvxymP1DkDQ6AyHaAF4rVBOdhLiYQEg8bvbsMkQkpCAqLhmJCWq0lBSgqqoLERNnIzMhCP5SDeKykhGfFIcASy3K8kthVUUhLjkZyempCFLLzokB87ic8FeGITY9DkqmIt3se5MHRSE2KRLyvuz4HGbB+n6sU3y1paig3xiIhK56qxUlZpHQdShwdXXCv7WFJ9wkLxGFJfiSbtKg1RcGOqHr5aBh72xze+Byu845Jhg4fIbOJ4B9xu9yRrCusAlb/nMAKZPiMP/xqd6jl8bldKHieC0OfniKZ/SnHGExWeH8tYYKkVl/6BluCV2FEBP0GwMhxKg6vpkNWmazBWaTie/Wpd27lEqFytQI+h9uFP38IZX4s1mnDBpN97KdilINKL5IM9AXhoMQ89FTfInhcPCgfuYzeudfno/VaMeuV4+gva4LS5+ZjdC4IO89F4eC+iuO1WDXG0cRGhuEeY9NQmhC8EVfY7AQQmzoEUJMcN3S30KMBiwqRE9ijAQYb0yQ0W0SaR4hxAYMPybEZDIpE10yPkip1Kqzy5MkxPrqURhqISa4tuD1JF88jBn3jceYRenwv8xOSZvJjrwdpTjyySmkT0vEtLvGXlFg/0AihNjQI4SY4LplIIQYLS04XU7uBSMBZrfZuThze5eSBAMDDUYSCQkxKXwJN30xYr7lpL4ghJigt1j0Vqz5v52Qq+S44ZszEBh26dgwqj95fH0+CvdUIGNGAibdNhra0Ivt8Bt8hBAbBnR1QUlFv3W0aUQLpeqLkAshxATXNP0txKhrkhCjJUhaivS1bm8Y67ai6w4YNBhRok0JNSbGfIMUtcvF8vQGIcQEvYF+5xSgf2z1acz/2hTu3aJYrwtBj6XdkbtePoLiQ5UYszgDk1eMYv1seG0mIyFmY5PKPIPpS2OYGNEGHuo9fkYjNFYztIGBPOtDz4LzQogJrmn6W4gRNGhRFyXxRdepEXRMdN2BgwuxHo0LMNrVxoyg71hfEEJMcDno991U2optzx9CdGY4z35/MeixlNpi5ysUR6bH9LvGYsS8FEjlwy8/FY1hPUMuTEwUUNZ5K7tOE83usc37YEG/4s/GLwq3IC+/gokvjVeEBSgUZ0Mu+jq2XQ1CiAn6jYEQYt2D0rnNd1wwsPgGJJ/w8jXfsb4ghJjgclhNNhz68BRP4Lr8x/MQmRLqvedc3C43F2xUM7Kr2YipbAzKnJMMiXRo0lNcDhJiNLF02EmM2bgI84Vd+HbvCtfYwEATSZpUUhJhCrfwpa+gVCqUk04IMcE1z0AIMUJ00eFDfw1SQogJLgX95mvzm7D1PwcxenEaH1Ok8gsLq+aKdmx7/iDsFgfmPDQRKZPjB7xwd1+gz8Y9/ExAOhxMgDkc3ENGYRgkxIQIG0DY8CXx7w6xkMq68wbKmAgj0e4TYUKICa5pBkqICa4/hBATXAqn3YnP/t8OnjCUkreGxOm+ZCBdTjcv/L37tSPQhKox+8GJiE4PG9YijCCTS80XasFT8XivC3M88PgEF13yuFcmzHx9RggxwTWPEGKC3iKEmOBSFO4tw65Xj2Luo5MxemGa9+gXkPer6EAljn52GsExgZjz8CSExV8+t9hwwSfGzm+++wQDR0+x5RNkPW8PBUKICfoNIcQEvWU4CjExFA4+FzJ8XS1GbHp2HxTaANz4rVm8n/SEKiEcXXMaJzeeQUxWBGY9MAHB0YHee68Nzu9rZ2+LLjjw9OhyQy3AfAxvH65AIBAMAGT4qLlZc1HwNC0N9bgu2sA231KcbznO1yhOqnB3GVor2zHj7rHniDC632lz4sAHOTixoRApk+N43cigKK33EdcWpLmoUb/zXbJvQ7SBbt6+RvS89F0fCoRHTNBvCI+YoLcMtUeMhr1mixVVJpFUcyiIlssQxhqlDPCjf960KFSce/uLh5A0MRYLetSTpPOlbzEi+9M8lB+vxZjF6Zh65xgecH0tQkW/c9o7vbcEg00o6zdxSsU58WJ0OVSeMeEREwgEXznIsIs56NBB1TJ4ygbW6DqdC4r7KtxTznewjV6U7n1kN11NRux54xgqc+r4RG/qnWOvWREm+t7Q42ZCmPc9ytvm7j4fQ3lehBATCAQCwaBis9lhMZu7C/g7uqtlNBS1oOJ4LUYuSOUB+D5aqjt4otbW6k5Mv2c8xi7JYCJseOYI6y1CiA0tDibArNbu/G2+JLpDSZ+EGP149Ho9mpqavEcEAoFg+NM9+xVF44cKOxNgRqORCzHKoWWz2HlC1tDEIKTPSOBCy+Vyo+5MM3a+fARdjQYseHIqRs5PhVwh8z7LtQn1PYpTEgwdDib+qaqBgwkxX9WWoRRjVyXE6AO0tLRwAUY/JsrFIRAIBNcSwhYOHeSJMDM7QoKMEprmbS2BodXE60PqIrTcKJYersLWfx+A2+HGTT+Yg+TxsZBIr5NFHNH5hhSnk4l/q5VPAmhpnITYUNLrXk2qsbOzE/X19Whvb+fHAgMDER4ejrCwMH5bIBAIrgW6PWLCGA4VZAhJhJEhbK/pRHl2LWJGRCB5YgzfOVmwuwwHPziJoGgt5j8xBeHJFy5vdK0i+t7Q0h0j5uBLlD137g4VlxRiJL7I40WeL2q0pkq1maKiorgA02g0vGK5QCAQDCd8A+vAD66+1/lyOoaLwe/3BggPHd73zd+H99D50P3e1tvP1lvc7HXJvtgtTlQebYCxzYyxN2bAT+LHRdiB909wEbbgiamITAsDFWu+nuiP75Dg58N7bnp/jrzntR/PZ6/xvl7vXvOLx/bq4VcAPSev6+n9DoYayW8Z3utnoXV7g8GAjo4OLr5o6ZG8XyEhIbxSOW31FAjO59jafMSyWW1MZoT3iEBwYXK3FEMWIOUxPwNBR4Meu187Cgcz9LScJZH5nxPgTQbL5HDCwMTA1cMMhNOM2mPb8Mlz/8Jn73+CvRt3IL/MiPDUJASr5d7HnYulchte/PHHCJwxHeHqnmEdHtg7G1Df4oI6UIGB1R4eGE99iN/86hhGLp+AwAsM6R63HY2n92Djay/jk7fexe51u1BrVSIqMRpquRR92envNOrhx+yMudGBst11vJ5k7MgIZH+Sj5x1+ciYmYQbnp4JdZByyFIKDBRk+Cl9RbPd4T1y9Rgqt+P5B57G6i27cHDDWuxYuwXlegVik+OgZr+vC351bgNOvP1XvPyfT1HtCEZqagwCBmnJ12OtxYEPt8MWl4ZQ1eVCmtzIfff/4f1d/hg1LRGKfuwGHpsVUtb/AgK6i36TQ4l0Ts8s+4PJ2W+fXMRdXV1oaGhAW1sbF2Dk8YqMjORNrVZ7HykQCATDG5fDhbKj1bwY9Pq/7MaB906gaH8FupoMcDv7Lx7E1l6BvZuOQDnrUfzk+efxzC+/jgkxATCZr8bIutGc/TFef/UI9EM/SWdCzIHO9i4ETV6Jp//+H3zvp3fDXbAX2Sfq4OwPLwLTwJX7G6EMUiAkQYcT6wtReqgKY5dkYsY947hQF1wOCQIzZuPBP/4Xv331FXzvB3fCVXgIp4qbL74hwFyFE7taMe+Hv8VdN0+ASj54jhXywPqRI4ddCr5A8qMf/ei3FPtFS5C0jZOUYVBQEG+0DCkC8QW9RXjEBL1loD1i5i4LTu8o5aLLarChqbQNNflNqCtsQltNJyQBEnhUUhj7KCic+gacPHgSrog0ZGUmIjgsCnEjMhChk6ExZycOHWpEaHIsAtxGnN6yGQXNUoSr23B8cw5MtlocXPMpcvI7EJQUD1TswEfvrEPZmQo4FGFITI6CuWw/Pn/zLWxbtx9NTg1iEyLgaTyJT97cjsb6o9j61qfIq7VBjRpsZ4Z499F6aBOSEKryoPHkDqx9423s2rQD1V0KRMRFQc0+dzce2BtPY1+2E9NuGQ+1qRr73/oAFZJ4xEZpmHkHM5gyhMSnITklFoFqBeTsfNWfyodRm4Ks9AhI++CycxkNMBbrUX+iA3GjI9Ba3oHyo3WYesdojF82AkrtuWWNrif60yNm66xA/uFqxMycieigAGazJag5VghbeBrSoj0o2Pwh1r33MQ4drYE6LgnBqMem197A/iMFaHX6IzYjC1pjETa+8So2r9mFinY/xLD+qnJ3IOejz5BbWYP/396ZB0d1XXn4Q61u9a4F7TISElpASAIkFgMCGRKDARt7iDEmk5BhzMTl2ElciVOpSv5IqvzHVDmZiid2MqbIBBwcjB2MMJjFgNl3mU2WWISQkJDQvvYidUvdPe8+1LLMkIRFQki+X9VV91uq+3X30Tu/e+655xYfO4zNmkiE7zqf/WUNn/xtN6W1bkbGx2Fw13J48w6uVF7hxMb17DtQiMscS2yUVVwcVw7mk79uA8cPF+G2xBIV5qX86CVM4zOxdpZzbOM6tmzcyvkvqtFGxhEeYiSgNyLlo67wMOUdo8meFo+nqoCdG/bhjU4kLDjo/ko+iIiY261qnIchIqZ5+eWXfy3e2GKxqOJLRMFEtWOJ5G6RQkxypwgh1lDWzPndlzm97UK/twv7ynDfEpXqdnuwNTqpL2+m4lw1bc5OrKn3N9FIY7AqosfG2S0fsHvzTi5eawWjsi/MRHPhQc5ccJMyNR3TCAfFexRB5IkmNc7Jie3nCc17knmLcgmsPMrBQzUk5OYRr7nBVdcU/mXlLKwtp9j4P6dJeXY5c2aPw3l2C0eqwkmyVPHJ+n1Yps1n9tQ4SrZ+SKFjFHOfzqX73EGK7eFkjTFRU34DY9IkMjLiKDuyixsBiSQnjSRQ9TM9Quykm+y8KEq2bKbYO4Y5czIwaTU3l+NT/EJAgHBOYstLc+lxjp+9QdpjynVG9HWYd09XnY2y7ZWM8I3Abe+irdZO3srJpOclEWS8/ZDucKF/hVgZhYcuYx07FqPPxtUTezlb2cH42dm0HtrAydYU5i97ivRH3Jx4fze+tEfJHmei7Ggj077/AumGMja/9Snhi5bz+DcmoKvYw/bCIDLG6in+aKNib0bynl5IkqmWnX/YSuDMZ1jwxBRMjSfZdtymCPIgCvLzueIepb5PtKeEfaeqScpIouHIJj4r6CBnyVJyUi201LdjCe3m1No9GHJzMbdU0kwEWdMnoW88x7FiG2mZqRh1X3YW6goPUabY9riEdg6u2wo5C8hOj0KnUQRTz1n3xEMmxAJEzpc/8V5GvyQSyYMgYWIsY6aOIm5s5IC0yKRQddmcvog8sbBRwSQr7zvtuSy1MOj9MYIRgSZFQC3lld+8wcqXlvKIpowdv3uL3aevK27k7xGAJWIMEx+dRFx8MjlPzsNKCeUNXZgsBrR6C2YLVB3aTonORHdNCVcultOl0VK35yi1Ni8YUsmZnUNiWjKx5kgSJ+SQnJrEqCgTTpsDT5eT5uuXOLtjBycLSulosSsi1C5GA79Cd0cVx95by8m6cBY8O5dQo/b/OzhvF/YbRez98DDmrHlkJIWhuQ9n5e320HChDWeTSxElyrbXx8zvTCBxSpzyG0kfdHf46Ki+wP53/8D//uJV3nmvhIzFS5kQ3cbpj88TqHVx42IRlVVOXO5KCr+oRRtsJShQjzlYT9P5Q3zRpSGwsZQrxaV0avS07tpPRUu38tqhZM2Zy/iUCOxXCjhjc6Ftu0ZJcQl2rwbH3sOUNinn6eLIyp3B6NEJJI5LRuN20G5voLjwIuGzFzAxYwzxE2cxe34ukaaeII8iRF2tdVw7fZDPPj1GdWMrdS3NdHluSRvwKSK98iT5v1tHa+YSFj2W+mVHYRgRIHLBRF6YSMyXSCSSB8HsFTks+mnegLVZyusL4SXQKeJCiL5cZZ9IAJ/3ykzGz0lGb9Grx+8dH153J3ZF+PhMkaTOmMczP/ghT03VUXSx6h8IsVsRqy3ejJT0xafsdbc10tzQSKvSOnXxzFiSTbDun7uh9mtnKCx0M+M/XmXpc3OJtN4+yuRxXqfBpryXy0Fze6e4iJ4jPXhcNJccZfPqTXSNf5KFCydivc+cIkeNjcbCekXf+TAo15X9bBoxGRE9kTfJ3RGAOTGHp1/7FS/9fBUpsWYsISHotCOU77eT9qZ61XbaFCEemzWXnNRwddi5F+Xn7ra39tpYqzucGctnEh701d9YtU9HOy3+8zqtTFk+i6i/m0Hvu5kPpgj2253hsdVw6rMitBOW8MKPV5A9Ngbd7X5/r4vWplp8Oh1tNfU43MOzCLO66LfNZlNnSYobgQjViRmSsiyF5G6Ri35LHhYaKprZ9d9HSH40gfjMaEKirRhEXknPjG+RD1vn7KDa5Va37w0vtsrP2bZxL/r0x8idkUVgSyE7/5iP5/EV5GkLyN/RyryfrCLadppNb+Wjyf0uz0xpZPXPtpD+45/w+LRoSretZc85PYtf/S6mc2tYvTeWf//lAkbWHmLN2xd47KeryEow0HKpkEZ9KqPcx3jjP0v43js/ZIy3im2/egfXohd5Ni+U82veZj/T+fZ0B/nvFjLtlVdID2tj+3+9RcvYb/P885Mwqv5OufZzG3n9zSZe+O0SbJ++z94bibz46mJ0DaV8cc1N+sRUOi7vZdPGIxgmLuJbz0zHqv8ybeVehnC6Xd1c+/gidQcqxSUoIjkQc7hRXV9ysIaFBgO1zESUkdFL0tCZ771D0F6+jw/fPMzk114jK8rD5+t/T0H7BJauyqX8/Tc5HTiXZctmEOxr4mpxDSMzMwl3n+XtlzYx9Y1fk0UBa39zgMyXf8C0VAuOsmIquhPIjHey6/XV2Ob8G8seT8JVe4b3f7uNuOWryMuOpvP6Jcrawxgb2cYHv99K5NPfYf7kWNov7mT1h2U89f1ldB9bz/5LoTyx8lvEeK9z+aqd0Wk6tr62njE/e5GWjzdhn7SY559IonzPn3nvjIGXfrSCGOX/9CYezv/ldXbWTGPF9+I5tWYdrZNWsmzhOPSKaLsfS/G1taK32wgODsFitWA0GnuHJwfDBtXyFWKMVOSICUTVfKfTqTZxYTJfTHKnyBwxycOCKHswYX4ao8ZHY40wozNov3KD7Z/yFSMIMo0kOkJH5aFtfLJxEwVnqon65nMs/kYGweFhuKsK2P3XDyhpCSYyKoyQhBQSYwLUPDWfs4Td723gakcSC1/8V9JizOgVp1x/4iM+L/eSMn0+2ckdHH53DVs3bFPOG0nm5HQs3lYqqryMnZmOdYSLhrIagpIzlNfVY6uuwm4eRc7USZi9FexZ+2cOnKomyBpMxJgMxvTJEetur6Wi3srkb04mOTWRwMv7KXLFEtZxicMHK4geF604yA8oKm2irewcx3d8woGtJ3EExzM6Xnmde4hgdTlcNJ6+gcGsISTOoDQL5jAjljAT5pFG9flwb6ZQA/pgRXzF6jE/EnJfw7HdHU3UV3cQMzGL8GATITEh1JVeoisshUmzJhNYtof8P61l364iTOOnkJQQjs7bTuWlVuKmTyYmdjTp6UZOrf8j+eu3UHRDw7ipE4g0eWkor0GbmE5SXDCB5mhFmEdS/NGf2LT2b5wrd5OgvGes2UdtVSuhyWk8EmGk29FIdZOP5MwMkseNx+woYse6dRw9cZ3wiTNIjtNRV9JA1Oy55IzXK52Qv7L14wM0uLXoo0YzITPlKzlitpoKnIYUsqZmkTYuioqD+3FHphIdZhhWyfpqRKzneS9iBqVoouCeEGKifpiMkEn+GTIiJhkq9E9ETHIvCBHcVVNDoNNOaGgoFosVk9mk1qgUfsYftRyuiM/f6XJRZHf27JE8aB62iNhtLV4k7ovq+WIWpbio+vp6tbK+KPQqkUgkEsm9okYdNA/e2UkkDyv/sOshirhGRkaqETGh4sUak0KUieFLiUQikUgkEsn9cUcxYBEyjomJ6RVkYoZlbW0tDodD3ZZIJBKJ5E65v1RriWR4cVeD8SKpTQxZinF9EV4WFflFhEzkk0kkEolEcieIlJebydEatd7bYOTlSL6+iI6Av1jxw9ApuKesSBEhE0OWoolkfiHIJBKJZEgi5iv1aWL+kmwD15Q/qggTvkOjCVA79aJK/9dJjPV+1p7vw99u933J1r9N+aOudxkoSqaI5PyejsBg2t9tZ03eLWLBcDmrUiJnTUqGCmLWpLhvuV1uHE4HDrsdUdza7Xarx/rhtii5DcLZ3RRhWnRBOixmMwajsbeMgL+EwHBGnTUqbE+xNZFvLWyvQ7G9TuW5sD2Z7jNwCNsSthek2J7eYMBsujlbN0ixP9ExUCeSDIIg6xchJpEIpBCTDBVEaR6/GBMCzKWKsC51WxxT+s49Z0r6E+HkhLMTgkt03lUnqAgwnU6HVnGQAT0RsuGMEFrCxroUe3O7XaoIE6JMdAo8npudAGl9A4OIvGoUwaVVmk6xO38HQKfV9dqeFGKSIY0UYpKhgt8Zej1eXIozFAJMCDNPt7JPRiQGDsXHqVGxAI0qxnQ6rSrIAntqOA2WI3yQCJfrt72uLkWAKbandgAU2/N4PcoJPSdK+h/FtPy2F6hVxJhid1pFhPVd2UEKMcmQRgoxyVBBiC1x6/M7Rf+QkH+fZODwOzsRnRA5On4BNpiO8EHitzFhb6KptqeIMq/vpv1JBha/nYlHYXtCmIlomGCw7E8KMUm/IYWYZKjgv+2JR7E4sXCCvdvyljig+B2d3+nd2r4O+O3s1uY/Jhk4+tqZePQLM//2YCCFmKTfkEJMMpToe+uTt8HBoa/jGywnOBjcam/S/gaHwRZgfqQQk/QbUohJJBKJRHJ3SCEmkUgkEolEMkgM73nCEolEIpFIJA8t8H/9/Ha68+spyQAAAABJRU5ErkJggg==;" vertex="1" parent="1">
          <mxGeometry x="109" y="70" width="610" height="378" as="geometry" />
        </mxCell>
      </root>
    </mxGraphModel>
  </diagram>
</mxfile>
